<svg id="Layer_1" data-name="Layer 1" xmlns="http://www.w3.org/2000/svg" viewBox="0 0 375.12 231.12"><defs><style>.cls-1{fill:none;stroke:#3d4752;stroke-miterlimit:10;stroke-width:0.72px;}.cls-2{fill:#3d4752;}.cls-3{fill:#fff;}.cls-4{fill:#abddf3;}</style></defs><title>data-flow-diagram-7</title><path class="cls-1" d="M226.67,56.47h94.61a1.78,1.78,0,0,1,1.8,1.8v30.2" transform="translate(-3.11 -2.11)"/><rect class="cls-2" x="222.48" y="54" width="1.08" height="0.72"/><polygon class="cls-2" points="319.97 86.36 318.31 81.22 321.66 81.22 319.97 86.36"/><path class="cls-2" d="M321.92,83.68l1.15,3.6,1.19-3.6h-2.34Zm1.4,5.18h-0.47L320.91,83h4.32Z" transform="translate(-3.11 -2.11)"/><rect class="cls-3" x="246.82" y="49.93" width="62.21" height="8.82"/><path class="cls-2" d="M250.34,56.67c-0.4-1,.76-1.59,1.71-1.17a1,1,0,0,1,.48.38l-0.42.36a0.82,0.82,0,0,0-.71-0.38,0.46,0.46,0,0,0-.57.4c0,0.47.73,0.41,1.11,0.58a0.87,0.87,0,0,1,.62.78c0,1.25-2,1.21-2.46.44l0.43-.37a1,1,0,0,0,.82.43,0.49,0.49,0,0,0,.61-0.45c0-.58-1-0.41-1.41-0.76a0.67,0.67,0,0,1-.21-0.24" transform="translate(-3.11 -2.11)"/><path class="cls-2" d="M254.78,55.88a0.9,0.9,0,0,0-.83,1v1.63h-0.61v-4.9h0.61c0,0.76,0,1.56,0,2.29a1.08,1.08,0,0,1,1-.55,1.1,1.1,0,0,1,1.15,1.25v1.91h-0.61v-1.7c0-.54-0.16-0.94-0.69-0.94" transform="translate(-3.11 -2.11)"/><path class="cls-2" d="M257.42,53.94a0.4,0.4,0,0,1,.41.4,0.41,0.41,0,1,1-.41-0.4m0.3,4.57h-0.61V55.45h0.61v3.07Z" transform="translate(-3.11 -2.11)"/><path class="cls-2" d="M260.39,58.09a1.12,1.12,0,0,0,0-2.22,1.11,1.11,0,0,0,0,2.22m0.1,0.51a1.28,1.28,0,0,1-1.08-.54h0v2h-0.61V55.45h0.6v0.48h0a1.23,1.23,0,0,1,1.11-.56A1.62,1.62,0,0,1,260.5,58.6Z" transform="translate(-3.11 -2.11)"/><path class="cls-2" d="M264.5,58.09a1.12,1.12,0,0,0,0-2.22,1.11,1.11,0,0,0,0,2.22m0.1,0.51a1.28,1.28,0,0,1-1.08-.54h0v2H262.9V55.45h0.6v0.48h0a1.23,1.23,0,0,1,1.11-.56A1.62,1.62,0,0,1,264.61,58.6Z" transform="translate(-3.11 -2.11)"/><path class="cls-2" d="M267.31,53.94a0.4,0.4,0,0,1,.41.4,0.41,0.41,0,1,1-.41-0.4m0.3,4.57H267V55.45h0.61v3.07Z" transform="translate(-3.11 -2.11)"/><path class="cls-2" d="M268.68,58.52c0-1,0-2.09,0-3.07h0.58c0,0.13,0,.36,0,0.51h0a1.07,1.07,0,0,1,1-.59,1.09,1.09,0,0,1,1.15,1.25v1.91h-0.61v-1.7c0-.54-0.16-0.94-0.7-0.94a0.89,0.89,0,0,0-.82,1v1.63h-0.61" transform="translate(-3.11 -2.11)"/><path class="cls-2" d="M273.9,55.87a1.08,1.08,0,0,0,0,2.16,1.08,1.08,0,0,0,0-2.16m1.61,2.49a1.53,1.53,0,0,1-1.7,1.71,2.25,2.25,0,0,1-1.5-.56l0.39-.47a1.57,1.57,0,0,0,1.12.5c0.88,0,1.17-.62,1.07-1.53a1.25,1.25,0,0,1-1.08.53,1.59,1.59,0,0,1,0-3.18,1.3,1.3,0,0,1,1.12.58V55.45h0.59v2.92Z" transform="translate(-3.11 -2.11)"/><path class="cls-2" d="M278.48,53.94a0.4,0.4,0,0,1,.41.4,0.41,0.41,0,1,1-.41-0.4m0.3,4.57h-0.61V55.45h0.61v3.07Z" transform="translate(-3.11 -2.11)"/><path class="cls-2" d="M279.85,58.52c0-1,0-2.09,0-3.07h0.58c0,0.13,0,.36,0,0.51h0a1.07,1.07,0,0,1,1-.59,1.09,1.09,0,0,1,1.15,1.25v1.91H282v-1.7c0-.54-0.16-0.94-0.7-0.94a0.89,0.89,0,0,0-.82,1v1.63h-0.61" transform="translate(-3.11 -2.11)"/><path class="cls-2" d="M284.89,54.07c-0.67,0-.53.75-0.54,1.38h0.71v0.5h-0.71v2.57h-0.61V55.95h-0.61v-0.5h0.61V54.81a1.14,1.14,0,0,1,1.53-1.22l-0.07.52a1.07,1.07,0,0,0-.3,0" transform="translate(-3.11 -2.11)"/><path class="cls-2" d="M287.08,58.09a1.12,1.12,0,1,0-1-1.11,1,1,0,0,0,1,1.11m0-2.73A1.62,1.62,0,1,1,285.43,57,1.52,1.52,0,0,1,287.08,55.36Z" transform="translate(-3.11 -2.11)"/><path class="cls-2" d="M289.58,58.52c0-1,0-2.09,0-3.07h0.58c0,0.13,0,.38,0,0.52h0a1,1,0,0,1,1.18-.58l0,0.56a0.88,0.88,0,0,0-1.14,1v1.61h-0.61" transform="translate(-3.11 -2.11)"/><path class="cls-2" d="M292.52,56a1.08,1.08,0,0,1,1-.59,1,1,0,0,1,1,.62,1.13,1.13,0,0,1,1-.62,1.09,1.09,0,0,1,1.15,1.25v1.91H296v-1.7c0-.52-0.16-0.94-0.68-0.94-1.11,0-.7,1.58-0.78,2.64H294V56.69a0.66,0.66,0,0,0-.65-0.82,0.89,0.89,0,0,0-.78,1v1.63h-0.61c0-1,0-2.09,0-3.07h0.58c0,0.13,0,.36,0,0.51h0" transform="translate(-3.11 -2.11)"/><path class="cls-2" d="M298.7,58.12a0.87,0.87,0,0,0,.89-1.06c-0.67,0-1.52,0-1.52.58a0.52,0.52,0,0,0,.63.48m-1.25-.47c0-1,1.12-1,2.14-1a0.66,0.66,0,0,0-.76-0.76,1.28,1.28,0,0,0-.87.36l-0.32-.39a1.81,1.81,0,0,1,1.26-.46,1.14,1.14,0,0,1,1.28,1.21,19.13,19.13,0,0,0,0,2h-0.55a2,2,0,0,1-.05-0.44h0a1.18,1.18,0,0,1-1,.52A1,1,0,0,1,297.45,57.65Z" transform="translate(-3.11 -2.11)"/><path class="cls-2" d="M302.1,58.57a0.83,0.83,0,0,1-.89-1V55.95h-0.59v-0.5h0.59V54.57h0.6v0.88h0.82v0.5h-0.82v1.6c0,0.35.1,0.51,0.43,0.52A0.87,0.87,0,0,0,302.6,58l0,0.5a1.55,1.55,0,0,1-.52.08" transform="translate(-3.11 -2.11)"/><path class="cls-2" d="M303.56,53.94a0.4,0.4,0,0,1,.41.4,0.41,0.41,0,1,1-.41-0.4m0.3,4.57h-0.61V55.45h0.61v3.07Z" transform="translate(-3.11 -2.11)"/><path class="cls-2" d="M306.38,58.09a1.12,1.12,0,1,0-1-1.11,1,1,0,0,0,1,1.11m0-2.73A1.62,1.62,0,1,1,304.73,57,1.52,1.52,0,0,1,306.38,55.36Z" transform="translate(-3.11 -2.11)"/><path class="cls-2" d="M308.88,58.52c0-1,0-2.09,0-3.07h0.58c0,0.13,0,.36,0,0.51h0a1.07,1.07,0,0,1,1-.59,1.09,1.09,0,0,1,1.15,1.25v1.91H311v-1.7c0-.54-0.16-0.94-0.7-0.94a0.89,0.89,0,0,0-.82,1v1.63h-0.61" transform="translate(-3.11 -2.11)"/><path class="cls-1" d="M192.9,138.91V105.07a1.81,1.81,0,0,1,1.8-1.8H313.07" transform="translate(-3.11 -2.11)"/><path class="cls-2" d="M193.26,139.27h-0.72v-0.36h0.72v0.36Zm0,0.72h-0.72v-0.72h0.72V140Z" transform="translate(-3.11 -2.11)"/><polygon class="cls-2" points="309.96 101.16 304.81 102.82 304.81 99.5 309.96 101.16"/><path class="cls-2" d="M308.28,104.45l3.64-1.19-3.64-1.19v2.38Zm4.79-1.58v0.79l-5.51,1.76v-4.32Z" transform="translate(-3.11 -2.11)"/><rect class="cls-3" x="213.16" y="92.3" width="37.76" height="17.68"/><path class="cls-2" d="M219.5,97.82c0,1,0,2.09,0,3.07H219c0-.13,0-0.39,0-0.51a1.13,1.13,0,0,1-1,.59,1.09,1.09,0,0,1-1.15-1.25V97.82h0.61v1.7c0,0.54.16,0.95,0.7,0.95a0.89,0.89,0,0,0,.82-1V97.82h0.61" transform="translate(-3.11 -2.11)"/><path class="cls-2" d="M220.45,99c-0.4-1,.76-1.59,1.71-1.17a1,1,0,0,1,.48.38l-0.42.36a0.82,0.82,0,0,0-.71-0.38,0.46,0.46,0,0,0-.57.4c0,0.47.73,0.41,1.11,0.58a0.87,0.87,0,0,1,.62.78c0,1.25-2,1.21-2.46.44l0.43-.37a1,1,0,0,0,.82.43,0.49,0.49,0,0,0,.61-0.45c0-.58-1-0.41-1.41-0.76a0.67,0.67,0,0,1-.21-0.24" transform="translate(-3.11 -2.11)"/><path class="cls-2" d="M224.82,97.73a1.46,1.46,0,0,1,1.47,1.8h-2.44a1,1,0,0,0,1,.93,1,1,0,0,0,.89-0.47l0.43,0.34a1.54,1.54,0,0,1-1.32.63,1.62,1.62,0,0,1,0-3.24m0.86,1.35a0.85,0.85,0,0,0-1.23-.8,0.89,0.89,0,0,0-.6.8h1.83Z" transform="translate(-3.11 -2.11)"/><path class="cls-2" d="M227.15,100.89c0-1,0-2.09,0-3.07h0.58c0,0.13,0,.38,0,0.52h0a1,1,0,0,1,1.18-.58l0,0.56a0.88,0.88,0,0,0-1.14,1v1.61h-0.61" transform="translate(-3.11 -2.11)"/><path class="cls-2" d="M231.08,100.89c0-1,0-2.09,0-3.07h0.58c0,0.13,0,.36,0,0.51h0a1.07,1.07,0,0,1,1-.59A1.09,1.09,0,0,1,233.82,99v1.91h-0.61v-1.7c0-.54-0.16-0.94-0.7-0.94a0.89,0.89,0,0,0-.82,1v1.63h-0.61" transform="translate(-3.11 -2.11)"/><path class="cls-2" d="M235.87,100.49a0.87,0.87,0,0,0,.89-1.06c-0.67,0-1.52,0-1.52.58a0.52,0.52,0,0,0,.63.48m-1.25-.47c0-1,1.12-1,2.14-1a0.66,0.66,0,0,0-.76-0.76,1.28,1.28,0,0,0-.87.36l-0.32-.39a1.81,1.81,0,0,1,1.26-.46,1.14,1.14,0,0,1,1.28,1.21,19.14,19.14,0,0,0,0,2h-0.55a2,2,0,0,1-.05-0.44h0a1.18,1.18,0,0,1-1,.52A1,1,0,0,1,234.62,100Z" transform="translate(-3.11 -2.11)"/><path class="cls-2" d="M239,98.32a1.08,1.08,0,0,1,1-.59,1,1,0,0,1,1,.62,1.13,1.13,0,0,1,1-.62A1.09,1.09,0,0,1,243.08,99v1.91h-0.61v-1.7c0-.52-0.16-0.94-0.68-0.94-1.11,0-.7,1.58-0.78,2.64H240.4V99.06a0.66,0.66,0,0,0-.65-0.82,0.89,0.89,0,0,0-.78,1v1.63h-0.61c0-1,0-2.09,0-3.07h0.58c0,0.13,0,.36,0,0.51h0" transform="translate(-3.11 -2.11)"/><path class="cls-2" d="M245.5,97.73a1.46,1.46,0,0,1,1.47,1.8h-2.44a1,1,0,0,0,1,.93,1,1,0,0,0,.89-0.47l0.43,0.34a1.54,1.54,0,0,1-1.32.63,1.62,1.62,0,0,1,0-3.24m0.86,1.35a0.85,0.85,0,0,0-1.23-.8,0.89,0.89,0,0,0-.6.8h1.83Z" transform="translate(-3.11 -2.11)"/><polyline class="cls-2" points="244.93 99.65 244.41 99.65 244.86 98.03 245.47 98.03"/><path class="cls-2" d="M219.5,106.64c0,1,0,2.09,0,3.07H219c0-.13,0-0.39,0-0.51a1.13,1.13,0,0,1-1,.59,1.09,1.09,0,0,1-1.15-1.25v-1.91h0.61v1.7c0,0.54.16,0.95,0.7,0.95a0.89,0.89,0,0,0,.82-1v-1.63h0.61" transform="translate(-3.11 -2.11)"/><path class="cls-2" d="M220.45,107.86c-0.4-1,.76-1.59,1.71-1.17a1,1,0,0,1,.48.38l-0.42.36a0.82,0.82,0,0,0-.71-0.38,0.46,0.46,0,0,0-.57.4c0,0.47.73,0.41,1.11,0.58a0.87,0.87,0,0,1,.62.78c0,1.25-2,1.21-2.46.44l0.43-.37a1,1,0,0,0,.82.43,0.49,0.49,0,0,0,.61-0.45c0-.58-1-0.41-1.41-0.76a0.67,0.67,0,0,1-.21-0.24" transform="translate(-3.11 -2.11)"/><path class="cls-2" d="M224.82,106.55a1.46,1.46,0,0,1,1.47,1.8h-2.44a1,1,0,0,0,1,.93,1,1,0,0,0,.89-0.47l0.43,0.34a1.54,1.54,0,0,1-1.32.63,1.62,1.62,0,0,1,0-3.24m0.86,1.35a0.85,0.85,0,0,0-1.23-.8,0.89,0.89,0,0,0-.6.8h1.83Z" transform="translate(-3.11 -2.11)"/><path class="cls-2" d="M227.15,109.71c0-1,0-2.09,0-3.07h0.58c0,0.13,0,.38,0,0.52h0a1,1,0,0,1,1.18-.58l0,0.56a0.88,0.88,0,0,0-1.14,1v1.61h-0.61" transform="translate(-3.11 -2.11)"/><path class="cls-2" d="M232.1,109.31a0.87,0.87,0,0,0,.89-1.06c-0.67,0-1.52,0-1.52.58a0.52,0.52,0,0,0,.63.48m-1.25-.47c0-1,1.12-1,2.14-1a0.66,0.66,0,0,0-.76-0.76,1.28,1.28,0,0,0-.87.36L231,107a1.81,1.81,0,0,1,1.26-.46,1.14,1.14,0,0,1,1.28,1.21,19.14,19.14,0,0,0,0,2h-0.55a2,2,0,0,1-.05-0.44h0a1.18,1.18,0,0,1-1,.52A1,1,0,0,1,230.85,108.84Z" transform="translate(-3.11 -2.11)"/><path class="cls-2" d="M236,107.06a1.12,1.12,0,0,0,0,2.22,1.11,1.11,0,0,0,0-2.22m-0.11-.51a1.36,1.36,0,0,1,1.11.54v-2.29h0.61v4.9h-0.59a3,3,0,0,0,0-.49,1.28,1.28,0,0,1-1.11.57,1.47,1.47,0,0,1-1.55-1.63A1.49,1.49,0,0,1,235.93,106.55Z" transform="translate(-3.11 -2.11)"/><path class="cls-2" d="M240.15,107.06a1.12,1.12,0,0,0,0,2.22,1.11,1.11,0,0,0,0-2.22m-0.11-.51a1.36,1.36,0,0,1,1.11.54v-2.29h0.61v4.9h-0.59a3,3,0,0,0,0-.49,1.28,1.28,0,0,1-1.11.57,1.47,1.47,0,0,1-1.55-1.63A1.49,1.49,0,0,1,240,106.55Z" transform="translate(-3.11 -2.11)"/><path class="cls-2" d="M242.82,109.71c0-1,0-2.09,0-3.07h0.58c0,0.13,0,.38,0,0.52h0a1,1,0,0,1,1.18-.58l0,0.56a0.88,0.88,0,0,0-1.14,1v1.61h-0.61" transform="translate(-3.11 -2.11)"/><path class="cls-2" d="M246.44,106.55a1.46,1.46,0,0,1,1.47,1.8h-2.44a1,1,0,0,0,1,.93,1,1,0,0,0,.89-0.47l0.43,0.34a1.54,1.54,0,0,1-1.32.63,1.62,1.62,0,0,1,0-3.24m0.86,1.35a0.85,0.85,0,0,0-1.23-.8,0.89,0.89,0,0,0-.6.8h1.83Z" transform="translate(-3.11 -2.11)"/><path class="cls-2" d="M248.65,107.86c-0.4-1,.76-1.59,1.71-1.17a1,1,0,0,1,.48.38l-0.42.36a0.82,0.82,0,0,0-.71-0.38,0.46,0.46,0,0,0-.57.4c0,0.47.73,0.41,1.11,0.58a0.87,0.87,0,0,1,.62.78c0,1.25-2,1.21-2.46.44l0.43-.37a1,1,0,0,0,.82.43,0.49,0.49,0,0,0,.61-0.45c0-.58-1-0.41-1.41-0.76a0.67,0.67,0,0,1-.21-0.24" transform="translate(-3.11 -2.11)"/><path class="cls-2" d="M251.53,107.86c-0.4-1,.76-1.59,1.71-1.17a1,1,0,0,1,.48.38l-0.42.36a0.82,0.82,0,0,0-.71-0.38,0.46,0.46,0,0,0-.57.4c0,0.47.73,0.41,1.11,0.58a0.87,0.87,0,0,1,.62.78c0,1.25-2,1.21-2.46.44l0.43-.37a1,1,0,0,0,.82.43,0.49,0.49,0,0,0,.61-0.45c0-.58-1-0.41-1.41-0.76a0.67,0.67,0,0,1-.21-0.24" transform="translate(-3.11 -2.11)"/><line class="cls-1" x1="180.36" y1="158.76" x2="180.36" y2="201.96"/><rect class="cls-2" x="180" y="157.68" width="0.72" height="1.08"/><polygon class="cls-2" points="180.36 201.96 178.7 196.81 182.02 196.81 180.36 201.96"/><path class="cls-2" d="M182.28,199.28l1.19,3.64,1.19-3.64h-2.38Zm1.58,4.79h-0.79l-1.76-5.51h4.32Z" transform="translate(-3.11 -2.11)"/><rect class="cls-3" x="161.46" y="165.28" width="37.76" height="17.71"/><path class="cls-2" d="M167.81,170.79c0,1,0,2.09,0,3.07h-0.58c0-.13,0-0.39,0-0.51a1.13,1.13,0,0,1-1,.59,1.09,1.09,0,0,1-1.15-1.25v-1.91h0.61v1.7c0,0.54.16,0.95,0.7,0.95a0.89,0.89,0,0,0,.82-1v-1.63h0.61" transform="translate(-3.11 -2.11)"/><path class="cls-2" d="M168.75,172c-0.4-1,.76-1.59,1.71-1.17a1,1,0,0,1,.48.38l-0.42.36a0.82,0.82,0,0,0-.71-0.38,0.46,0.46,0,0,0-.57.4c0,0.47.73,0.41,1.11,0.58a0.87,0.87,0,0,1,.62.78c0,1.25-2,1.21-2.46.44l0.43-.37a1,1,0,0,0,.82.43,0.49,0.49,0,0,0,.61-0.45c0-.58-1-0.41-1.41-0.76a0.67,0.67,0,0,1-.21-0.24" transform="translate(-3.11 -2.11)"/><path class="cls-2" d="M173.13,170.71a1.46,1.46,0,0,1,1.47,1.8h-2.44a1,1,0,0,0,1,.93,1,1,0,0,0,.89-0.47l0.43,0.34a1.54,1.54,0,0,1-1.32.63,1.62,1.62,0,0,1,0-3.24m0.86,1.35a0.85,0.85,0,0,0-1.23-.8,0.89,0.89,0,0,0-.6.8H174Z" transform="translate(-3.11 -2.11)"/><path class="cls-2" d="M175.45,173.86c0-1,0-2.09,0-3.07H176c0,0.13,0,.38,0,0.52h0a1,1,0,0,1,1.18-.58l0,0.56a0.88,0.88,0,0,0-1.14,1v1.61h-0.61" transform="translate(-3.11 -2.11)"/><path class="cls-2" d="M179.38,173.86c0-1,0-2.09,0-3.07h0.58c0,0.13,0,.36,0,0.51h0a1.07,1.07,0,0,1,1-.59,1.09,1.09,0,0,1,1.15,1.25v1.91h-0.61v-1.7c0-.54-0.16-0.94-0.7-0.94a0.89,0.89,0,0,0-.82,1v1.63h-0.61" transform="translate(-3.11 -2.11)"/><path class="cls-2" d="M184.18,173.46a0.87,0.87,0,0,0,.89-1.06c-0.67,0-1.52,0-1.52.58a0.52,0.52,0,0,0,.63.48m-1.25-.47c0-1,1.12-1,2.14-1a0.66,0.66,0,0,0-.76-0.76,1.28,1.28,0,0,0-.87.36l-0.32-.39a1.81,1.81,0,0,1,1.26-.46,1.14,1.14,0,0,1,1.28,1.21,19.14,19.14,0,0,0,0,2h-0.55a2,2,0,0,1-.05-0.44h0a1.18,1.18,0,0,1-1,.52A1,1,0,0,1,182.93,173Z" transform="translate(-3.11 -2.11)"/><path class="cls-2" d="M187.26,171.3a1.08,1.08,0,0,1,1-.59,1,1,0,0,1,1,.62,1.13,1.13,0,0,1,1-.62,1.09,1.09,0,0,1,1.15,1.25v1.91h-0.61v-1.7c0-.52-0.16-0.94-0.68-0.94-1.11,0-.7,1.58-0.78,2.64h-0.61V172a0.66,0.66,0,0,0-.65-0.82,0.89,0.89,0,0,0-.78,1v1.63h-0.61c0-1,0-2.09,0-3.07h0.58c0,0.13,0,.36,0,0.51h0" transform="translate(-3.11 -2.11)"/><path class="cls-2" d="M193.8,170.71a1.46,1.46,0,0,1,1.47,1.8h-2.44a1,1,0,0,0,1,.93,1,1,0,0,0,.89-0.47l0.43,0.34a1.54,1.54,0,0,1-1.32.63,1.62,1.62,0,0,1,0-3.24m0.86,1.35a0.85,0.85,0,0,0-1.23-.8,0.89,0.89,0,0,0-.6.8h1.83Z" transform="translate(-3.11 -2.11)"/><polyline class="cls-2" points="193.24 172.62 192.72 172.62 193.16 171 193.77 171"/><path class="cls-2" d="M167.81,179.61c0,1,0,2.09,0,3.07h-0.58c0-.13,0-0.39,0-0.51a1.13,1.13,0,0,1-1,.59,1.09,1.09,0,0,1-1.15-1.25v-1.91h0.61v1.7c0,0.54.16,0.95,0.7,0.95a0.89,0.89,0,0,0,.82-1v-1.63h0.61" transform="translate(-3.11 -2.11)"/><path class="cls-2" d="M168.75,180.83c-0.4-1,.76-1.59,1.71-1.17a1,1,0,0,1,.48.38l-0.42.36a0.82,0.82,0,0,0-.71-0.38,0.46,0.46,0,0,0-.57.4c0,0.47.73,0.41,1.11,0.58a0.87,0.87,0,0,1,.62.78c0,1.25-2,1.21-2.46.44l0.43-.37a1,1,0,0,0,.82.43,0.49,0.49,0,0,0,.61-0.45c0-.58-1-0.41-1.41-0.76a0.67,0.67,0,0,1-.21-0.24" transform="translate(-3.11 -2.11)"/><path class="cls-2" d="M173.13,179.53a1.46,1.46,0,0,1,1.47,1.8h-2.44a1,1,0,0,0,1,.93,1,1,0,0,0,.89-0.47l0.43,0.34a1.54,1.54,0,0,1-1.32.63,1.62,1.62,0,0,1,0-3.24m0.86,1.35a0.85,0.85,0,0,0-1.23-.8,0.89,0.89,0,0,0-.6.8H174Z" transform="translate(-3.11 -2.11)"/><path class="cls-2" d="M175.45,182.68c0-1,0-2.09,0-3.07H176c0,0.13,0,.38,0,0.52h0a1,1,0,0,1,1.18-.58l0,0.56a0.88,0.88,0,0,0-1.14,1v1.61h-0.61" transform="translate(-3.11 -2.11)"/><path class="cls-2" d="M180.41,182.28a0.87,0.87,0,0,0,.89-1.06c-0.67,0-1.52,0-1.52.58a0.52,0.52,0,0,0,.63.48m-1.25-.47c0-1,1.12-1,2.14-1a0.66,0.66,0,0,0-.76-0.76,1.28,1.28,0,0,0-.87.36l-0.32-.39a1.81,1.81,0,0,1,1.26-.46,1.14,1.14,0,0,1,1.28,1.21,19.14,19.14,0,0,0,0,2h-0.55a2,2,0,0,1-.05-0.44h0a1.18,1.18,0,0,1-1,.52A1,1,0,0,1,179.16,181.81Z" transform="translate(-3.11 -2.11)"/><path class="cls-2" d="M184.34,180a1.12,1.12,0,0,0,0,2.22,1.11,1.11,0,0,0,0-2.22m-0.11-.51a1.36,1.36,0,0,1,1.11.54v-2.29h0.61v4.9h-0.59a3,3,0,0,0,0-.49,1.28,1.28,0,0,1-1.11.57,1.47,1.47,0,0,1-1.55-1.63A1.49,1.49,0,0,1,184.23,179.53Z" transform="translate(-3.11 -2.11)"/><path class="cls-2" d="M188.46,180a1.12,1.12,0,0,0,0,2.22,1.11,1.11,0,0,0,0-2.22m-0.11-.51a1.36,1.36,0,0,1,1.11.54v-2.29h0.61v4.9h-0.59a3,3,0,0,0,0-.49,1.28,1.28,0,0,1-1.11.57,1.47,1.47,0,0,1-1.55-1.63A1.49,1.49,0,0,1,188.35,179.53Z" transform="translate(-3.11 -2.11)"/><path class="cls-2" d="M191.13,182.68c0-1,0-2.09,0-3.07h0.58c0,0.13,0,.38,0,0.52h0a1,1,0,0,1,1.18-.58l0,0.56a0.88,0.88,0,0,0-1.14,1v1.61h-0.61" transform="translate(-3.11 -2.11)"/><path class="cls-2" d="M194.74,179.53a1.46,1.46,0,0,1,1.47,1.8h-2.44a1,1,0,0,0,1,.93,1,1,0,0,0,.89-0.47l0.43,0.34a1.54,1.54,0,0,1-1.32.63,1.62,1.62,0,0,1,0-3.24m0.86,1.35a0.85,0.85,0,0,0-1.23-.8,0.89,0.89,0,0,0-.6.8h1.83Z" transform="translate(-3.11 -2.11)"/><path class="cls-2" d="M197,180.83c-0.4-1,.76-1.59,1.71-1.17a1,1,0,0,1,.48.38l-0.42.36A0.82,0.82,0,0,0,198,180a0.46,0.46,0,0,0-.57.4c0,0.47.73,0.41,1.11,0.58a0.87,0.87,0,0,1,.62.78c0,1.25-2,1.21-2.46.44l0.43-.37a1,1,0,0,0,.82.43,0.49,0.49,0,0,0,.61-0.45c0-.58-1-0.41-1.41-0.76a0.67,0.67,0,0,1-.21-0.24" transform="translate(-3.11 -2.11)"/><path class="cls-2" d="M199.83,180.83c-0.4-1,.76-1.59,1.71-1.17a1,1,0,0,1,.48.38l-0.42.36a0.82,0.82,0,0,0-.71-0.38,0.46,0.46,0,0,0-.57.4c0,0.47.73,0.41,1.11,0.58a0.87,0.87,0,0,1,.62.78c0,1.25-2,1.21-2.46.44l0.43-.37a1,1,0,0,0,.82.43,0.49,0.49,0,0,0,.61-0.45c0-.58-1-0.41-1.41-0.76a0.67,0.67,0,0,1-.21-0.24" transform="translate(-3.11 -2.11)"/><path class="cls-1" d="M36.48,190v26.64a1.78,1.78,0,0,0,1.8,1.8H147.47" transform="translate(-3.11 -2.11)"/><path class="cls-2" d="M36.84,189.67H36.12v-0.72h0.72v0.72Zm0,0.36H36.12v-0.36h0.72V190Z" transform="translate(-3.11 -2.11)"/><polygon class="cls-2" points="144.36 216.36 139.21 218.02 139.21 214.7 144.36 216.36"/><path class="cls-2" d="M142.68,219.65l3.64-1.19-3.64-1.19v2.38Zm4.79-1.58v0.79L142,220.63v-4.32Z" transform="translate(-3.11 -2.11)"/><rect class="cls-3" x="66.64" y="211.93" width="54.79" height="8.82"/><path class="cls-2" d="M71.89,220.09a1.12,1.12,0,0,0,0-2.22,1.11,1.11,0,0,0,0,2.22M72,220.6a1.3,1.3,0,0,1-1.11-.57h0v0.49H70.28v-4.9h0.61v2.29h0a1.28,1.28,0,0,1,1.1-.54A1.62,1.62,0,0,1,72,220.6Z" transform="translate(-3.11 -2.11)"/><path class="cls-2" d="M74.7,215.94a0.4,0.4,0,0,1,.41.4,0.41,0.41,0,1,1-.41-0.4m0.3,4.57H74.4v-3.07H75v3.07Z" transform="translate(-3.11 -2.11)"/><polyline class="cls-2" points="73.58 218.41 72.97 218.41 72.97 215.96 72.97 213.51 73.58 213.51 73.58 215.96 73.58 218.41"/><polyline class="cls-2" points="75.27 218.41 74.66 218.41 74.66 215.96 74.66 213.51 75.27 213.51 75.27 215.96 75.27 218.41"/><path class="cls-2" d="M79.75,215.94a0.4,0.4,0,0,1,.41.4,0.41,0.41,0,1,1-.41-0.4m0.3,4.57H79.44v-3.07h0.61v3.07Z" transform="translate(-3.11 -2.11)"/><path class="cls-2" d="M81.12,220.52c0-1,0-2.09,0-3.07h0.58c0,0.13,0,.36,0,0.51h0a1.07,1.07,0,0,1,1-.59,1.09,1.09,0,0,1,1.15,1.25v1.91H83.25v-1.7c0-.54-0.16-0.94-0.7-0.94a0.89,0.89,0,0,0-.82,1v1.63H81.12" transform="translate(-3.11 -2.11)"/><path class="cls-2" d="M86.33,217.87a1.08,1.08,0,0,0,0,2.16,1.08,1.08,0,0,0,0-2.16m1.61,2.49a1.53,1.53,0,0,1-1.7,1.71,2.25,2.25,0,0,1-1.5-.56l0.39-.47a1.57,1.57,0,0,0,1.12.5c0.88,0,1.17-.62,1.07-1.53a1.25,1.25,0,0,1-1.08.53,1.59,1.59,0,0,1,0-3.18,1.3,1.3,0,0,1,1.12.58v-0.49h0.59v2.92Z" transform="translate(-3.11 -2.11)"/><path class="cls-2" d="M90.88,215.94a0.4,0.4,0,0,1,.41.4,0.41,0.41,0,1,1-.41-0.4m0.3,4.57H90.58v-3.07h0.61v3.07Z" transform="translate(-3.11 -2.11)"/><path class="cls-2" d="M92.25,220.52c0-1,0-2.09,0-3.07H92.8c0,0.13,0,.36,0,0.51h0a1.07,1.07,0,0,1,1-.59A1.09,1.09,0,0,1,95,218.61v1.91H94.38v-1.7c0-.54-0.16-0.94-0.7-0.94a0.89,0.89,0,0,0-.82,1v1.63H92.25" transform="translate(-3.11 -2.11)"/><path class="cls-2" d="M97.3,216.07c-0.67,0-.53.75-0.54,1.38h0.71v0.5H96.75v2.57H96.14v-2.57H95.54v-0.5h0.61v-0.64a1.14,1.14,0,0,1,1.53-1.22l-0.07.52a1.07,1.07,0,0,0-.3,0" transform="translate(-3.11 -2.11)"/><path class="cls-2" d="M99.48,220.09a1.12,1.12,0,1,0-1-1.11,1,1,0,0,0,1,1.11m0-2.73A1.62,1.62,0,1,1,97.83,219,1.52,1.52,0,0,1,99.48,217.36Z" transform="translate(-3.11 -2.11)"/><path class="cls-2" d="M102,220.52c0-1,0-2.09,0-3.07h0.58c0,0.13,0,.38,0,0.52h0a1,1,0,0,1,1.18-.58l0,0.56a0.88,0.88,0,0,0-1.14,1v1.61H102" transform="translate(-3.11 -2.11)"/><path class="cls-2" d="M104.92,218a1.08,1.08,0,0,1,1-.59,1,1,0,0,1,1,.62,1.13,1.13,0,0,1,1-.62,1.09,1.09,0,0,1,1.15,1.25v1.91h-0.61v-1.7c0-.52-0.16-0.94-0.68-0.94-1.11,0-.7,1.58-0.78,2.64h-0.61v-1.83a0.66,0.66,0,0,0-.65-0.82,0.89,0.89,0,0,0-.78,1v1.63h-0.61c0-1,0-2.09,0-3.07h0.58c0,0.13,0,.36,0,0.51h0" transform="translate(-3.11 -2.11)"/><path class="cls-2" d="M111.1,220.12a0.87,0.87,0,0,0,.89-1.06c-0.67,0-1.52,0-1.52.58a0.52,0.52,0,0,0,.63.48m-1.25-.47c0-1,1.12-1,2.14-1a0.66,0.66,0,0,0-.76-0.76,1.28,1.28,0,0,0-.87.36l-0.32-.39a1.81,1.81,0,0,1,1.26-.46,1.14,1.14,0,0,1,1.28,1.21,19.14,19.14,0,0,0,0,2h-0.55a2,2,0,0,1-.05-0.44h0a1.18,1.18,0,0,1-1,.52A1,1,0,0,1,109.85,219.65Z" transform="translate(-3.11 -2.11)"/><path class="cls-2" d="M114.5,220.57a0.83,0.83,0,0,1-.89-1v-1.67H113v-0.5h0.59v-0.88h0.6v0.88H115v0.5h-0.82v1.6c0,0.35.1,0.51,0.43,0.52A0.87,0.87,0,0,0,115,220l0,0.5a1.55,1.55,0,0,1-.52.08" transform="translate(-3.11 -2.11)"/><path class="cls-2" d="M116,215.94a0.4,0.4,0,0,1,.41.4,0.41,0.41,0,1,1-.41-0.4m0.3,4.57h-0.61v-3.07h0.61v3.07Z" transform="translate(-3.11 -2.11)"/><path class="cls-2" d="M118.79,220.09a1.12,1.12,0,1,0-1-1.11,1,1,0,0,0,1,1.11m0-2.73a1.62,1.62,0,1,1-1.65,1.61A1.52,1.52,0,0,1,118.79,217.36Z" transform="translate(-3.11 -2.11)"/><path class="cls-2" d="M121.29,220.52c0-1,0-2.09,0-3.07h0.58c0,0.13,0,.36,0,0.51h0a1.07,1.07,0,0,1,1-.59,1.09,1.09,0,0,1,1.15,1.25v1.91h-0.61v-1.7c0-.54-0.16-0.94-0.7-0.94a0.89,0.89,0,0,0-.82,1v1.63h-0.61" transform="translate(-3.11 -2.11)"/><rect class="cls-4" x="0.36" y="0.36" width="61.56" height="27.36" rx="1.8" ry="1.8"/><rect class="cls-1" x="0.36" y="0.36" width="61.56" height="27.36" rx="1.8" ry="1.8"/><rect class="cls-4" x="3.6" y="1.8" width="61.56" height="27.36" rx="1.8" ry="1.8"/><rect class="cls-1" x="3.6" y="1.8" width="61.56" height="27.36" rx="1.8" ry="1.8"/><path class="cls-2" d="M15.48,17.22A1.67,1.67,0,0,1,13.69,19a1.64,1.64,0,0,1-1.78-1.81V14.33h0.64v2.85a1.15,1.15,0,1,0,2.28,0V14.33h0.64v2.89" transform="translate(-3.11 -2.11)"/><path class="cls-2" d="M16.42,17.07c-0.4-1,.76-1.59,1.71-1.17a1,1,0,0,1,.48.38l-0.42.36a0.82,0.82,0,0,0-.71-0.38,0.46,0.46,0,0,0-.57.4c0,0.47.73,0.41,1.11,0.58a0.87,0.87,0,0,1,.62.78c0,1.25-2,1.21-2.46.44l0.43-.37a1,1,0,0,0,.82.43A0.49,0.49,0,0,0,18,18.06c0-.58-1-0.41-1.41-0.76a0.67,0.67,0,0,1-.21-0.24" transform="translate(-3.11 -2.11)"/><path class="cls-2" d="M20.79,15.76a1.46,1.46,0,0,1,1.47,1.8H19.82a1,1,0,0,0,1,.93A1,1,0,0,0,21.72,18l0.43,0.34a1.54,1.54,0,0,1-1.32.63,1.49,1.49,0,0,1-1.62-1.61,1.49,1.49,0,0,1,1.59-1.63m0.86,1.35a0.85,0.85,0,0,0-1.23-.8,0.89,0.89,0,0,0-.6.8h1.83Z" transform="translate(-3.11 -2.11)"/><path class="cls-2" d="M23.12,18.92c0-1,0-2.09,0-3.07h0.58c0,0.13,0,.38,0,0.52h0a1,1,0,0,1,1.18-.58l0,0.56a0.88,0.88,0,0,0-1.14,1v1.61H23.12" transform="translate(-3.11 -2.11)"/><line class="cls-1" x1="22.28" y1="29.52" x2="22.28" y2="86.4"/><rect class="cls-2" x="21.92" y="29.16" width="0.72" height="0.36"/><polygon class="cls-2" points="22.28 86.4 20.63 81.25 23.98 81.25 22.28 86.4"/><path class="cls-2" d="M24.24,83.72l1.15,3.64,1.19-3.64H24.24Zm1.44,5.15H25.14L23.23,83h4.32Z" transform="translate(-3.11 -2.11)"/><rect class="cls-3" x="12.67" y="42.37" width="19.22" height="8.86"/><path class="cls-2" d="M17.76,50.53a1.12,1.12,0,1,0-1-1.11,1,1,0,0,0,1,1.11m0-2.73a1.62,1.62,0,1,1,0,3.24A1.62,1.62,0,1,1,17.76,47.8Z" transform="translate(-3.11 -2.11)"/><path class="cls-2" d="M20.26,51c0-1,0-2.09,0-3.07h0.58c0,0.13,0,.38,0,0.52h0A1,1,0,0,1,22,47.83l0,0.56a0.88,0.88,0,0,0-1.14,1V51H20.26" transform="translate(-3.11 -2.11)"/><path class="cls-2" d="M23.93,48.31a1.12,1.12,0,0,0,0,2.22,1.11,1.11,0,0,0,0-2.22m-0.11-.51a1.36,1.36,0,0,1,1.11.54V46.06h0.61V51H24.95a3,3,0,0,0,0-.49,1.28,1.28,0,0,1-1.11.57,1.47,1.47,0,0,1-1.55-1.63A1.49,1.49,0,0,1,23.82,47.8Z" transform="translate(-3.11 -2.11)"/><path class="cls-2" d="M28,47.8a1.46,1.46,0,0,1,1.47,1.8H27a1,1,0,0,0,1,.93,1,1,0,0,0,.89-0.47l0.43,0.34A1.54,1.54,0,0,1,28,51a1.62,1.62,0,0,1,0-3.24m0.86,1.35a0.85,0.85,0,0,0-1.23-.8,0.89,0.89,0,0,0-.6.8h1.83Z" transform="translate(-3.11 -2.11)"/><path class="cls-2" d="M30.31,51c0-1,0-2.09,0-3.07h0.58c0,0.13,0,.38,0,0.52h0a1,1,0,0,1,1.18-.58l0,0.56a0.88,0.88,0,0,0-1.14,1V51H30.31" transform="translate(-3.11 -2.11)"/><path class="cls-2" d="M32.55,49.11c-0.4-1,.76-1.59,1.71-1.17a1,1,0,0,1,.48.38l-0.42.36a0.82,0.82,0,0,0-.71-0.38,0.46,0.46,0,0,0-.57.4c0,0.47.73,0.41,1.11,0.58a0.87,0.87,0,0,1,.62.78c0,1.25-2,1.21-2.46.44l0.43-.37a1,1,0,0,0,.82.43,0.49,0.49,0,0,0,.61-0.45c0-.58-1-0.41-1.41-0.76a0.67,0.67,0,0,1-.21-0.24" transform="translate(-3.11 -2.11)"/><rect class="cls-4" x="0.36" y="86.76" width="64.8" height="28.8" rx="2.88" ry="2.88"/><rect class="cls-1" x="0.36" y="86.76" width="64.8" height="28.8" rx="2.88" ry="2.88"/><path class="cls-2" d="M13.62,102c0-.82-0.92-0.74-1.75-0.73v1.48c0.84,0,1.75.07,1.75-.75m0.65,0c0,1.21-1.11,1.35-2.4,1.3v2H11.22v-4.59h1.4C13.58,100.74,14.26,101.06,14.26,102Z" transform="translate(-3.11 -2.11)"/><path class="cls-2" d="M14.75,105.32c0-1,0-2.09,0-3.07H15.3c0,0.13,0,.38,0,0.52h0a1,1,0,0,1,1.18-.58l0,0.56a0.88,0.88,0,0,0-1.14,1v1.61H14.75" transform="translate(-3.11 -2.11)"/><path class="cls-2" d="M18.43,104.89a1.12,1.12,0,1,0-1-1.11,1,1,0,0,0,1,1.11m0-2.73a1.62,1.62,0,1,1,0,3.24A1.62,1.62,0,1,1,18.43,102.16Z" transform="translate(-3.11 -2.11)"/><path class="cls-2" d="M20.73,103.78a1.5,1.5,0,0,1,1.64-1.62,1.46,1.46,0,0,1,1.15.51l-0.44.36a0.84,0.84,0,0,0-.71-0.35,1.11,1.11,0,0,0,0,2.22,0.88,0.88,0,0,0,.74-0.34l0.41,0.37a1.42,1.42,0,0,1-1.15.48,1.52,1.52,0,0,1-1.65-1.62" transform="translate(-3.11 -2.11)"/><path class="cls-2" d="M25.52,102.16A1.46,1.46,0,0,1,27,104H24.55a1,1,0,0,0,1,.93,1,1,0,0,0,.89-0.47l0.43,0.34a1.54,1.54,0,0,1-1.32.63,1.62,1.62,0,0,1,0-3.24m0.86,1.35a0.85,0.85,0,0,0-1.23-.8,0.89,0.89,0,0,0-.6.8h1.83Z" transform="translate(-3.11 -2.11)"/><path class="cls-2" d="M27.73,103.47c-0.4-1,.76-1.59,1.71-1.17a1,1,0,0,1,.48.38L29.5,103a0.82,0.82,0,0,0-.71-0.38,0.46,0.46,0,0,0-.57.4c0,0.47.73,0.41,1.11,0.58a0.87,0.87,0,0,1,.62.78c0,1.25-2,1.21-2.46.44l0.43-.37a1,1,0,0,0,.82.43,0.49,0.49,0,0,0,.61-0.45c0-.58-1-0.41-1.41-0.76a0.67,0.67,0,0,1-.21-0.24" transform="translate(-3.11 -2.11)"/><path class="cls-2" d="M30.61,103.47c-0.4-1,.76-1.59,1.71-1.17a1,1,0,0,1,.48.38l-0.42.36a0.82,0.82,0,0,0-.71-0.38,0.46,0.46,0,0,0-.57.4c0,0.47.73,0.41,1.11,0.58a0.87,0.87,0,0,1,.62.78c0,1.25-2,1.21-2.46.44l0.43-.37a1,1,0,0,0,.82.43,0.49,0.49,0,0,0,.61-0.45c0-.58-1-0.41-1.41-0.76a0.67,0.67,0,0,1-.21-0.24" transform="translate(-3.11 -2.11)"/><path class="cls-2" d="M36.66,104.89a1.12,1.12,0,1,0-1-1.11,1,1,0,0,0,1,1.11m0-2.73A1.62,1.62,0,1,1,35,103.78,1.52,1.52,0,0,1,36.66,102.16Z" transform="translate(-3.11 -2.11)"/><path class="cls-2" d="M39.16,105.32c0-1,0-2.09,0-3.07h0.58c0,0.13,0,.38,0,0.52h0a1,1,0,0,1,1.18-.58l0,0.56a0.88,0.88,0,0,0-1.14,1v1.61H39.16" transform="translate(-3.11 -2.11)"/><path class="cls-2" d="M42.83,102.67a1.12,1.12,0,0,0,0,2.22,1.11,1.11,0,0,0,0-2.22m-0.11-.51a1.36,1.36,0,0,1,1.11.54v-2.29h0.61v4.9H43.85a3,3,0,0,0,0-.49,1.28,1.28,0,0,1-1.11.57,1.47,1.47,0,0,1-1.55-1.63A1.49,1.49,0,0,1,42.72,102.16Z" transform="translate(-3.11 -2.11)"/><path class="cls-2" d="M46.89,102.16a1.46,1.46,0,0,1,1.47,1.8H45.92a1,1,0,0,0,1,.93,1,1,0,0,0,.89-0.47l0.43,0.34a1.54,1.54,0,0,1-1.32.63,1.62,1.62,0,0,1,0-3.24m0.86,1.35a0.85,0.85,0,0,0-1.23-.8,0.89,0.89,0,0,0-.6.8h1.83Z" transform="translate(-3.11 -2.11)"/><path class="cls-2" d="M49.21,105.32c0-1,0-2.09,0-3.07h0.58c0,0.13,0,.38,0,0.52h0a1,1,0,0,1,1.18-.58l0,0.56a0.88,0.88,0,0,0-1.14,1v1.61H49.21" transform="translate(-3.11 -2.11)"/><path class="cls-1" d="M42.92,88.51V58.27a1.78,1.78,0,0,1,1.8-1.8h95.54" transform="translate(-3.11 -2.11)"/><rect class="cls-2" x="39.46" y="86.4" width="0.72" height="0.36"/><polygon class="cls-2" points="137.16 54.36 132.01 56.02 132.01 52.7 137.16 54.36"/><path class="cls-2" d="M134.76,54.31l5.51,1.76,1.15,0.4-1.15.4-5.51,1.76V54.31Zm0.72,3.35,3.64-1.19-3.64-1.19v2.38Z" transform="translate(-3.11 -2.11)"/><rect class="cls-3" x="59.72" y="49.93" width="52.49" height="8.82"/><path class="cls-2" d="M64.81,58.09a1.12,1.12,0,1,0-1-1.11,1,1,0,0,0,1,1.11m0-2.73A1.62,1.62,0,1,1,63.15,57,1.52,1.52,0,0,1,64.81,55.36Z" transform="translate(-3.11 -2.11)"/><path class="cls-2" d="M67.31,58.52c0-1,0-2.09,0-3.07h0.58c0,0.13,0,.38,0,0.52h0a1,1,0,0,1,1.18-.58l0,0.56a0.88,0.88,0,0,0-1.14,1v1.61H67.31" transform="translate(-3.11 -2.11)"/><path class="cls-2" d="M71,55.87a1.12,1.12,0,0,0,0,2.22,1.11,1.11,0,0,0,0-2.22m-0.11-.51a1.36,1.36,0,0,1,1.11.54V53.62h0.61v4.9H72A3,3,0,0,0,72,58a1.28,1.28,0,0,1-1.11.57A1.47,1.47,0,0,1,69.33,57,1.49,1.49,0,0,1,70.87,55.36Z" transform="translate(-3.11 -2.11)"/><path class="cls-2" d="M75,55.36a1.46,1.46,0,0,1,1.47,1.8H74.07a1,1,0,0,0,1,.93A1,1,0,0,0,76,57.63L76.39,58a1.54,1.54,0,0,1-1.32.63,1.62,1.62,0,0,1,0-3.24m0.86,1.35a0.85,0.85,0,0,0-1.23-.8,0.89,0.89,0,0,0-.6.8H75.9Z" transform="translate(-3.11 -2.11)"/><path class="cls-2" d="M77.37,58.52c0-1,0-2.09,0-3.07h0.58c0,0.13,0,.38,0,0.52h0a1,1,0,0,1,1.18-.58l0,0.56a0.88,0.88,0,0,0-1.14,1v1.61H77.37" transform="translate(-3.11 -2.11)"/><path class="cls-2" d="M81.63,53.94a0.4,0.4,0,0,1,.41.4,0.41,0.41,0,1,1-.41-0.4m0.3,4.57H81.33V55.45h0.61v3.07Z" transform="translate(-3.11 -2.11)"/><path class="cls-2" d="M83,58.52c0-1,0-2.09,0-3.07h0.58c0,0.13,0,.36,0,0.51h0a1.07,1.07,0,0,1,1-.59,1.09,1.09,0,0,1,1.15,1.25v1.91H85.13v-1.7c0-.54-0.16-0.94-0.7-0.94a0.89,0.89,0,0,0-.82,1v1.63H83" transform="translate(-3.11 -2.11)"/><path class="cls-2" d="M88,54.07c-0.67,0-.53.75-0.54,1.38h0.71v0.5H87.5v2.57H86.89V55.95H86.28v-0.5h0.61V54.81a1.14,1.14,0,0,1,1.53-1.22l-0.07.52a1.07,1.07,0,0,0-.3,0" transform="translate(-3.11 -2.11)"/><path class="cls-2" d="M90.23,58.09a1.12,1.12,0,1,0-1-1.11,1,1,0,0,0,1,1.11m0-2.73A1.62,1.62,0,1,1,88.58,57,1.52,1.52,0,0,1,90.23,55.36Z" transform="translate(-3.11 -2.11)"/><path class="cls-2" d="M92.73,58.52c0-1,0-2.09,0-3.07h0.58c0,0.13,0,.38,0,0.52h0a1,1,0,0,1,1.18-.58l0,0.56a0.88,0.88,0,0,0-1.14,1v1.61H92.73" transform="translate(-3.11 -2.11)"/><path class="cls-2" d="M95.67,56a1.08,1.08,0,0,1,1-.59,1,1,0,0,1,1,.62,1.13,1.13,0,0,1,1-.62,1.09,1.09,0,0,1,1.15,1.25v1.91H99.18v-1.7c0-.52-0.16-0.94-0.68-0.94-1.11,0-.7,1.58-0.78,2.64H97.12V56.69a0.66,0.66,0,0,0-.65-0.82,0.89,0.89,0,0,0-.78,1v1.63H95.08c0-1,0-2.09,0-3.07h0.58c0,0.13,0,.36,0,0.51h0" transform="translate(-3.11 -2.11)"/><path class="cls-2" d="M101.85,58.12a0.87,0.87,0,0,0,.89-1.06c-0.67,0-1.52,0-1.52.58a0.52,0.52,0,0,0,.63.48m-1.25-.47c0-1,1.12-1,2.14-1a0.66,0.66,0,0,0-.76-0.76,1.28,1.28,0,0,0-.87.36l-0.32-.39a1.81,1.81,0,0,1,1.26-.46,1.14,1.14,0,0,1,1.28,1.21,19.14,19.14,0,0,0,0,2h-0.55a2,2,0,0,1-.05-0.44h0a1.18,1.18,0,0,1-1,.52A1,1,0,0,1,100.6,57.65Z" transform="translate(-3.11 -2.11)"/><path class="cls-2" d="M105.25,58.57a0.83,0.83,0,0,1-.89-1V55.95h-0.59v-0.5h0.59V54.57H105v0.88h0.82v0.5H105v1.6c0,0.35.1,0.51,0.43,0.52a0.87,0.87,0,0,0,.36-0.08l0,0.5a1.55,1.55,0,0,1-.52.08" transform="translate(-3.11 -2.11)"/><path class="cls-2" d="M106.71,53.94a0.4,0.4,0,0,1,.41.4,0.41,0.41,0,1,1-.41-0.4m0.3,4.57h-0.61V55.45H107v3.07Z" transform="translate(-3.11 -2.11)"/><path class="cls-2" d="M109.53,58.09a1.12,1.12,0,1,0-1-1.11,1,1,0,0,0,1,1.11m0-2.73A1.62,1.62,0,1,1,107.88,57,1.52,1.52,0,0,1,109.53,55.36Z" transform="translate(-3.11 -2.11)"/><path class="cls-2" d="M112,58.52c0-1,0-2.09,0-3.07h0.58c0,0.13,0,.36,0,0.51h0a1.07,1.07,0,0,1,1-.59,1.09,1.09,0,0,1,1.15,1.25v1.91h-0.61v-1.7c0-.54-0.16-0.94-0.7-0.94a0.89,0.89,0,0,0-.82,1v1.63H112" transform="translate(-3.11 -2.11)"/><path class="cls-4" d="M226.67,45.67h-84.6a1.78,1.78,0,0,0-1.8,1.8v18a1.78,1.78,0,0,0,1.8,1.8h84.6" transform="translate(-3.11 -2.11)"/><path class="cls-1" d="M226.67,45.67h-84.6a1.78,1.78,0,0,0-1.8,1.8v18a1.78,1.78,0,0,0,1.8,1.8h84.6" transform="translate(-3.11 -2.11)"/><line class="cls-1" x1="154.44" y1="43.56" x2="154.44" y2="65.16"/><polyline class="cls-2" points="143.94 56.41 143.31 56.41 143.31 54.5 143.31 52.59 142.44 53.31 142.07 52.88 143.37 51.82 143.94 51.82 143.94 54.12 143.94 56.41"/><path class="cls-2" d="M164.61,58.06a1.84,1.84,0,1,0-1.73-1.84,1.66,1.66,0,0,0,1.73,1.84m2.26-2.82a2.68,2.68,0,0,1,0,2,2.48,2.48,0,0,1-4.5,0,2.75,2.75,0,0,1,0-2A2.49,2.49,0,0,1,166.87,55.24Z" transform="translate(-3.11 -2.11)"/><path class="cls-2" d="M167.89,58.52c0-1,0-2.09,0-3.07h0.58c0,0.13,0,.38,0,0.52h0a1,1,0,0,1,1.18-.58l0,0.56a0.88,0.88,0,0,0-1.14,1v1.61h-0.61" transform="translate(-3.11 -2.11)"/><path class="cls-2" d="M171.57,55.87a1.12,1.12,0,0,0,0,2.22,1.11,1.11,0,0,0,0-2.22m-0.11-.51a1.36,1.36,0,0,1,1.11.54V53.62h0.61v4.9h-0.59a3,3,0,0,0,0-.49,1.28,1.28,0,0,1-1.11.57A1.47,1.47,0,0,1,169.91,57,1.49,1.49,0,0,1,171.46,55.36Z" transform="translate(-3.11 -2.11)"/><path class="cls-2" d="M175.62,55.36a1.46,1.46,0,0,1,1.47,1.8h-2.44a1,1,0,0,0,1,.93,1,1,0,0,0,.89-0.47L177,58a1.54,1.54,0,0,1-1.32.63,1.62,1.62,0,0,1,0-3.24m0.86,1.35a0.85,0.85,0,0,0-1.23-.8,0.89,0.89,0,0,0-.6.8h1.83Z" transform="translate(-3.11 -2.11)"/><path class="cls-2" d="M178,58.52c0-1,0-2.09,0-3.07h0.58c0,0.13,0,.38,0,0.52h0a1,1,0,0,1,1.18-.58l0,0.56a0.88,0.88,0,0,0-1.14,1v1.61H178" transform="translate(-3.11 -2.11)"/><path class="cls-2" d="M180.19,56.67c-0.4-1,.76-1.59,1.71-1.17a1,1,0,0,1,.48.38l-0.42.36a0.82,0.82,0,0,0-.71-0.38,0.46,0.46,0,0,0-.57.4c0,0.47.73,0.41,1.11,0.58a0.87,0.87,0,0,1,.62.78c0,1.25-2,1.21-2.46.44l0.43-.37a1,1,0,0,0,.82.43,0.49,0.49,0,0,0,.61-0.45c0-.58-1-0.41-1.41-0.76a0.67,0.67,0,0,1-.21-0.24" transform="translate(-3.11 -2.11)"/><rect class="cls-4" x="309.96" y="86.76" width="64.8" height="28.8" rx="1.8" ry="1.8"/><rect class="cls-1" x="309.96" y="86.76" width="64.8" height="28.8" rx="1.8" ry="1.8"/><path class="cls-2" d="M320.67,101.92c0-1.14,1.28-1.54,2.33-1.17a1.32,1.32,0,0,1,.56.38l-0.45.44a1.1,1.1,0,0,0-.89-0.43,0.77,0.77,0,0,0-.82,1.06c0.36,0.52,1.29.49,1.77,0.89a1.15,1.15,0,0,1,.44.94c0,1.23-1.33,1.66-2.43,1.22a1.61,1.61,0,0,1-.67-0.5l0.5-.42a1.28,1.28,0,0,0,1,.54,0.79,0.79,0,0,0,.83-1.13c-0.32-.57-1.34-0.49-1.81-0.93a1.15,1.15,0,0,1-.38-0.89" transform="translate(-3.11 -2.11)"/><path class="cls-2" d="M325.93,102.68a0.9,0.9,0,0,0-.83,1v1.63h-0.61v-4.9h0.61c0,0.76,0,1.56,0,2.29a1.08,1.08,0,0,1,1-.55,1.1,1.1,0,0,1,1.15,1.25v1.91h-0.61v-1.7c0-.54-0.16-0.94-0.69-0.94" transform="translate(-3.11 -2.11)"/><path class="cls-2" d="M328.57,100.74a0.4,0.4,0,0,1,.41.4,0.41,0.41,0,1,1-.41-0.4m0.3,4.57h-0.61v-3.07h0.61v3.07Z" transform="translate(-3.11 -2.11)"/><path class="cls-2" d="M331.55,104.89a1.12,1.12,0,0,0,0-2.22,1.11,1.11,0,0,0,0,2.22m0.1,0.51a1.28,1.28,0,0,1-1.08-.54h0v2h-0.61v-4.63h0.6v0.48h0a1.23,1.23,0,0,1,1.11-.56A1.62,1.62,0,0,1,331.65,105.4Z" transform="translate(-3.11 -2.11)"/><path class="cls-2" d="M337.27,104.89a1.12,1.12,0,0,0,0-2.22,1.11,1.11,0,0,0,0,2.22m0.1,0.51a1.28,1.28,0,0,1-1.08-.54h0v2h-0.61v-4.63h0.6v0.48h0a1.23,1.23,0,0,1,1.11-.56A1.62,1.62,0,0,1,337.37,105.4Z" transform="translate(-3.11 -2.11)"/><path class="cls-2" d="M339.77,105.32c0-1,0-2.09,0-3.07h0.58c0,0.13,0,.38,0,0.52h0a1,1,0,0,1,1.18-.58l0,0.56a0.88,0.88,0,0,0-1.14,1v1.61h-0.61" transform="translate(-3.11 -2.11)"/><path class="cls-2" d="M343.45,104.89a1.12,1.12,0,1,0-1-1.11,1,1,0,0,0,1,1.11m0-2.73a1.62,1.62,0,1,1-1.65,1.61A1.52,1.52,0,0,1,343.45,102.16Z" transform="translate(-3.11 -2.11)"/><path class="cls-2" d="M347.39,102.67a1.12,1.12,0,0,0,0,2.22,1.11,1.11,0,0,0,0-2.22m-0.11-.51a1.36,1.36,0,0,1,1.11.54v-2.29H349v4.9h-0.59a3,3,0,0,0,0-.49,1.28,1.28,0,0,1-1.11.57,1.47,1.47,0,0,1-1.55-1.63A1.49,1.49,0,0,1,347.28,102.16Z" transform="translate(-3.11 -2.11)"/><path class="cls-2" d="M352.78,102.25c0,1,0,2.09,0,3.07h-0.58c0-.13,0-0.39,0-0.51a1.13,1.13,0,0,1-1,.59,1.09,1.09,0,0,1-1.15-1.25v-1.91h0.61v1.7c0,0.54.16,0.95,0.7,0.95a0.89,0.89,0,0,0,.82-1v-1.63h0.61" transform="translate(-3.11 -2.11)"/><path class="cls-2" d="M353.64,103.78a1.5,1.5,0,0,1,1.64-1.62,1.46,1.46,0,0,1,1.15.51L356,103a0.84,0.84,0,0,0-.71-0.35,1.11,1.11,0,0,0,0,2.22,0.88,0.88,0,0,0,.74-0.34l0.41,0.37a1.42,1.42,0,0,1-1.15.48,1.52,1.52,0,0,1-1.65-1.62" transform="translate(-3.11 -2.11)"/><path class="cls-2" d="M358,105.37a0.83,0.83,0,0,1-.89-1v-1.67h-0.59v-0.5h0.59v-0.88h0.6v0.88h0.82v0.5h-0.82v1.6c0,0.35.1,0.51,0.43,0.52a0.87,0.87,0,0,0,.36-0.08l0,0.5a1.55,1.55,0,0,1-.52.08" transform="translate(-3.11 -2.11)"/><path class="cls-2" d="M359.06,103.47c-0.4-1,.76-1.59,1.71-1.17a1,1,0,0,1,.48.38l-0.42.36a0.82,0.82,0,0,0-.71-0.38,0.46,0.46,0,0,0-.57.4c0,0.47.73,0.41,1.11,0.58a0.87,0.87,0,0,1,.62.78c0,1.25-2,1.21-2.46.44l0.43-.37a1,1,0,0,0,.82.43,0.49,0.49,0,0,0,.61-0.45c0-.58-1-0.41-1.41-0.76a0.67,0.67,0,0,1-.21-0.24" transform="translate(-3.11 -2.11)"/><rect class="cls-4" x="309.96" y="0.36" width="61.56" height="27.36" rx="1.8" ry="1.8"/><rect class="cls-1" x="309.96" y="0.36" width="61.56" height="27.36" rx="1.8" ry="1.8"/><rect class="cls-4" x="313.2" y="1.8" width="61.56" height="27.36" rx="1.8" ry="1.8"/><rect class="cls-1" x="313.2" y="1.8" width="61.56" height="27.36" rx="1.8" ry="1.8"/><polyline class="cls-2" points="319.08 16.81 318.44 16.81 318.44 14.52 318.44 12.22 321.3 12.22 321.3 12.51 321.3 12.79 319.08 12.79 319.08 13.5 319.08 14.21 321.16 14.21 321.16 14.49 321.16 14.76 319.08 14.76 319.08 15.79 319.08 16.81"/><path class="cls-2" d="M327.91,15.85c0,1,0,2.09,0,3.07h-0.58c0-.13,0-0.39,0-0.51a1.13,1.13,0,0,1-1,.59,1.09,1.09,0,0,1-1.15-1.25V15.85h0.61v1.7c0,0.54.16,0.95,0.7,0.95a0.89,0.89,0,0,0,.82-1V15.85h0.61" transform="translate(-3.11 -2.11)"/><polyline class="cls-2" points="326.48 16.81 325.87 16.81 325.87 14.36 325.87 11.91 326.48 11.91 326.48 14.36 326.48 16.81"/><path class="cls-2" d="M331.92,14.47c-0.67,0-.53.75-0.54,1.38h0.71v0.5h-0.71v2.57h-0.61V16.35h-0.61v-0.5h0.61V15.21A1.14,1.14,0,0,1,332.3,14l-0.07.52a1.07,1.07,0,0,0-.3,0" transform="translate(-3.11 -2.11)"/><path class="cls-2" d="M333,14.34a0.4,0.4,0,0,1,.41.4,0.41,0.41,0,1,1-.41-0.4m0.3,4.57h-0.61V15.85h0.61v3.07Z" transform="translate(-3.11 -2.11)"/><polyline class="cls-2" points="331.85 16.81 331.24 16.81 331.24 14.36 331.24 11.91 331.85 11.91 331.85 14.36 331.85 16.81"/><polyline class="cls-2" points="333.54 16.81 332.93 16.81 332.93 14.36 332.93 11.91 333.54 11.91 333.54 14.36 333.54 16.81"/><path class="cls-2" d="M338.3,16.35a1.08,1.08,0,0,1,1-.59,1,1,0,0,1,1,.62,1.13,1.13,0,0,1,1-.62A1.09,1.09,0,0,1,342.42,17v1.91h-0.61v-1.7c0-.52-0.16-0.94-0.68-0.94-1.11,0-.7,1.58-0.78,2.64h-0.61V17.09a0.66,0.66,0,0,0-.65-0.82,0.89,0.89,0,0,0-.78,1v1.63h-0.61c0-1,0-2.09,0-3.07h0.58c0,0.13,0,.36,0,0.51h0" transform="translate(-3.11 -2.11)"/><path class="cls-2" d="M344.84,15.76a1.46,1.46,0,0,1,1.47,1.8h-2.44a1,1,0,0,0,1,.93,1,1,0,0,0,.89-0.47l0.43,0.34a1.54,1.54,0,0,1-1.32.63,1.49,1.49,0,0,1-1.62-1.61,1.49,1.49,0,0,1,1.59-1.63m0.86,1.35a0.85,0.85,0,0,0-1.23-.8,0.89,0.89,0,0,0-.6.8h1.83Z" transform="translate(-3.11 -2.11)"/><path class="cls-2" d="M347.17,18.92c0-1,0-2.09,0-3.07h0.58c0,0.13,0,.36,0,0.51h0a1.07,1.07,0,0,1,1-.59A1.09,1.09,0,0,1,349.91,17v1.91H349.3v-1.7c0-.54-0.16-0.94-0.7-0.94a0.89,0.89,0,0,0-.82,1v1.63h-0.61" transform="translate(-3.11 -2.11)"/><path class="cls-2" d="M351.92,19a0.83,0.83,0,0,1-.89-1V16.35h-0.59v-0.5H351V15h0.6v0.88h0.82v0.5h-0.82v1.6c0,0.35.1,0.51,0.43,0.52a0.87,0.87,0,0,0,.36-0.08l0,0.5a1.55,1.55,0,0,1-.52.08" transform="translate(-3.11 -2.11)"/><line class="cls-1" x1="342.36" y1="29.16" x2="342.36" y2="86.54"/><polygon class="cls-2" points="342.36 86.54 340.7 81.43 344.02 81.43 342.36 86.54"/><path class="cls-2" d="M344.28,83.9l1.19,3.6,1.19-3.6h-2.38Zm1.51,5h-0.65l-1.84-5.69h4.32Z" transform="translate(-3.11 -2.11)"/><rect class="cls-3" x="330.59" y="53.42" width="23.51" height="8.86"/><path class="cls-2" d="M335.83,61.58a1.12,1.12,0,0,0,0-2.22,1.11,1.11,0,0,0,0,2.22m0.1,0.51a1.28,1.28,0,0,1-1.08-.54h0v2h-0.61V58.94h0.6v0.48h0a1.23,1.23,0,0,1,1.11-.56A1.62,1.62,0,0,1,335.93,62.09Z" transform="translate(-3.11 -2.11)"/><path class="cls-2" d="M338.33,62c0-1,0-2.09,0-3.07h0.58c0,0.13,0,.38,0,0.52h0a1,1,0,0,1,1.18-.58l0,0.56a0.88,0.88,0,0,0-1.14,1V62h-0.61" transform="translate(-3.11 -2.11)"/><path class="cls-2" d="M342,61.58a1.12,1.12,0,1,0-1-1.11,1,1,0,0,0,1,1.11m0-2.73a1.62,1.62,0,1,1-1.65,1.61A1.52,1.52,0,0,1,342,58.85Z" transform="translate(-3.11 -2.11)"/><path class="cls-2" d="M346,59.36a1.12,1.12,0,0,0,0,2.22,1.11,1.11,0,0,0,0-2.22m-0.11-.51a1.36,1.36,0,0,1,1.11.54V57.11h0.61V62H347a3,3,0,0,0,0-.49,1.28,1.28,0,0,1-1.11.57,1.47,1.47,0,0,1-1.55-1.63A1.49,1.49,0,0,1,345.84,58.85Z" transform="translate(-3.11 -2.11)"/><path class="cls-2" d="M351.34,58.94c0,1,0,2.09,0,3.07h-0.58c0-.13,0-0.39,0-0.51a1.13,1.13,0,0,1-1,.59,1.09,1.09,0,0,1-1.15-1.25V58.94h0.61v1.7c0,0.54.16,0.95,0.7,0.95a0.89,0.89,0,0,0,.82-1V58.94h0.61" transform="translate(-3.11 -2.11)"/><path class="cls-2" d="M352.2,60.47a1.5,1.5,0,0,1,1.64-1.62,1.46,1.46,0,0,1,1.15.51l-0.44.36a0.84,0.84,0,0,0-.71-0.35,1.11,1.11,0,0,0,0,2.22,0.88,0.88,0,0,0,.74-0.34L355,61.62a1.42,1.42,0,0,1-1.15.48,1.52,1.52,0,0,1-1.65-1.62" transform="translate(-3.11 -2.11)"/><path class="cls-2" d="M356.58,62.06a0.83,0.83,0,0,1-.89-1V59.44h-0.59v-0.5h0.59V58.06h0.6v0.88h0.82v0.5h-0.82V61c0,0.35.1,0.51,0.43,0.52a0.87,0.87,0,0,0,.36-0.08l0,0.5a1.55,1.55,0,0,1-.52.08" transform="translate(-3.11 -2.11)"/><path class="cls-4" d="M226.67,139.27h-84.6a1.78,1.78,0,0,0-1.8,1.8v18a1.78,1.78,0,0,0,1.8,1.8h84.6" transform="translate(-3.11 -2.11)"/><path class="cls-1" d="M226.67,139.27h-84.6a1.78,1.78,0,0,0-1.8,1.8v18a1.78,1.78,0,0,0,1.8,1.8h84.6" transform="translate(-3.11 -2.11)"/><line class="cls-1" x1="154.44" y1="137.16" x2="154.44" y2="158.76"/><path class="cls-2" d="M147.31,150.83c0-.69-0.62-0.87-1.35-0.85v-0.52c0.68,0,1.22-.12,1.22-0.76a0.73,0.73,0,0,0-.81-0.76,0.82,0.82,0,0,0-.8.56l-0.57-.2a1.45,1.45,0,0,1,1.4-.89,1.22,1.22,0,0,1,1.41,1.24,1.07,1.07,0,0,1-.81,1.06,1.09,1.09,0,0,1,.93,1.12,1.36,1.36,0,0,1-1.54,1.4,1.51,1.51,0,0,1-1.56-1l0.58-.19a1,1,0,0,0,1,.67,0.84,0.84,0,0,0,.92-0.87" transform="translate(-3.11 -2.11)"/><path class="cls-2" d="M166,150.42a1.67,1.67,0,0,1-1.78,1.81,1.64,1.64,0,0,1-1.78-1.81v-2.89H163v2.85a1.15,1.15,0,1,0,2.28,0v-2.85H166v2.89" transform="translate(-3.11 -2.11)"/><path class="cls-2" d="M166.9,150.27c-0.4-1,.76-1.59,1.71-1.17a1,1,0,0,1,.48.38l-0.42.36a0.82,0.82,0,0,0-.71-0.38,0.46,0.46,0,0,0-.57.4c0,0.47.73,0.41,1.11,0.58a0.87,0.87,0,0,1,.62.78c0,1.25-2,1.21-2.46.44l0.43-.37a1,1,0,0,0,.82.43,0.49,0.49,0,0,0,.61-0.45c0-.58-1-0.41-1.41-0.76a0.67,0.67,0,0,1-.21-0.24" transform="translate(-3.11 -2.11)"/><path class="cls-2" d="M171.27,149a1.46,1.46,0,0,1,1.47,1.8H170.3a1,1,0,0,0,1,.93,1,1,0,0,0,.89-0.47l0.43,0.34a1.54,1.54,0,0,1-1.32.63,1.62,1.62,0,0,1,0-3.24m0.86,1.35a0.85,0.85,0,0,0-1.23-.8,0.89,0.89,0,0,0-.6.8h1.83Z" transform="translate(-3.11 -2.11)"/><path class="cls-2" d="M173.6,152.12c0-1,0-2.09,0-3.07h0.58c0,0.13,0,.38,0,0.52h0a1,1,0,0,1,1.18-.58l0,0.56a0.88,0.88,0,0,0-1.14,1v1.61H173.6" transform="translate(-3.11 -2.11)"/><line class="cls-1" x1="342.36" y1="115.56" x2="342.36" y2="201.96"/><polygon class="cls-2" points="342.36 201.96 340.7 196.81 344.02 196.81 342.36 201.96"/><path class="cls-2" d="M344.28,199.28l1.19,3.64,1.19-3.64h-2.38Zm1.58,4.79h-0.79l-1.76-5.51h4.32Z" transform="translate(-3.11 -2.11)"/><rect class="cls-3" x="330.59" y="149.26" width="23.51" height="8.86"/><path class="cls-2" d="M335.83,157.41a1.12,1.12,0,0,0,0-2.22,1.11,1.11,0,0,0,0,2.22m0.1,0.51a1.28,1.28,0,0,1-1.08-.54h0v2h-0.61v-4.63h0.6v0.48h0a1.23,1.23,0,0,1,1.11-.56A1.62,1.62,0,0,1,335.93,157.93Z" transform="translate(-3.11 -2.11)"/><path class="cls-2" d="M338.33,157.84c0-1,0-2.09,0-3.07h0.58c0,0.13,0,.38,0,0.52h0a1,1,0,0,1,1.18-.58l0,0.56a0.88,0.88,0,0,0-1.14,1v1.61h-0.61" transform="translate(-3.11 -2.11)"/><path class="cls-2" d="M342,157.41a1.12,1.12,0,1,0-1-1.11,1,1,0,0,0,1,1.11m0-2.73a1.62,1.62,0,1,1-1.65,1.61A1.52,1.52,0,0,1,342,154.69Z" transform="translate(-3.11 -2.11)"/><path class="cls-2" d="M346,155.19a1.12,1.12,0,0,0,0,2.22,1.11,1.11,0,0,0,0-2.22m-0.11-.51a1.36,1.36,0,0,1,1.11.54v-2.29h0.61v4.9H347a3,3,0,0,0,0-.49,1.28,1.28,0,0,1-1.11.57,1.47,1.47,0,0,1-1.55-1.63A1.49,1.49,0,0,1,345.84,154.69Z" transform="translate(-3.11 -2.11)"/><path class="cls-2" d="M351.34,154.77c0,1,0,2.09,0,3.07h-0.58c0-.13,0-0.39,0-0.51a1.13,1.13,0,0,1-1,.59,1.09,1.09,0,0,1-1.15-1.25v-1.91h0.61v1.7c0,0.54.16,0.95,0.7,0.95a0.89,0.89,0,0,0,.82-1v-1.63h0.61" transform="translate(-3.11 -2.11)"/><path class="cls-2" d="M352.2,156.31a1.5,1.5,0,0,1,1.64-1.62,1.46,1.46,0,0,1,1.15.51l-0.44.36a0.84,0.84,0,0,0-.71-0.35,1.11,1.11,0,0,0,0,2.22,0.88,0.88,0,0,0,.74-0.34l0.41,0.37a1.42,1.42,0,0,1-1.15.48,1.52,1.52,0,0,1-1.65-1.62" transform="translate(-3.11 -2.11)"/><path class="cls-2" d="M356.58,157.89a0.83,0.83,0,0,1-.89-1v-1.67h-0.59v-0.5h0.59v-0.88h0.6v0.88h0.82v0.5h-0.82v1.6c0,0.35.1,0.51,0.43,0.52a0.87,0.87,0,0,0,.36-0.08l0,0.5a1.55,1.55,0,0,1-.52.08" transform="translate(-3.11 -2.11)"/><rect class="cls-4" x="309.96" y="201.96" width="61.56" height="27.36" rx="1.8" ry="1.8"/><rect class="cls-1" x="309.96" y="201.96" width="61.56" height="27.36" rx="1.8" ry="1.8"/><rect class="cls-4" x="313.2" y="203.4" width="61.56" height="27.36" rx="1.8" ry="1.8"/><rect class="cls-1" x="313.2" y="203.4" width="61.56" height="27.36" rx="1.8" ry="1.8"/><path class="cls-2" d="M325.08,218.82a1.67,1.67,0,0,1-1.78,1.81,1.64,1.64,0,0,1-1.78-1.81v-2.89h0.64v2.85a1.15,1.15,0,1,0,2.28,0v-2.85h0.64v2.89" transform="translate(-3.11 -2.11)"/><path class="cls-2" d="M326,218.67c-0.4-1,.76-1.59,1.71-1.17a1,1,0,0,1,.48.38l-0.42.36a0.82,0.82,0,0,0-.71-0.38,0.46,0.46,0,0,0-.57.4c0,0.47.73,0.41,1.11,0.58a0.87,0.87,0,0,1,.62.78c0,1.25-2,1.21-2.46.44l0.43-.37a1,1,0,0,0,.82.43,0.49,0.49,0,0,0,.61-0.45c0-.58-1-0.41-1.41-0.76a0.67,0.67,0,0,1-.21-0.24" transform="translate(-3.11 -2.11)"/><path class="cls-2" d="M330.39,217.36a1.46,1.46,0,0,1,1.47,1.8h-2.44a1,1,0,0,0,1,.93,1,1,0,0,0,.89-0.47l0.43,0.34a1.54,1.54,0,0,1-1.32.63,1.62,1.62,0,0,1,0-3.24m0.86,1.35a0.85,0.85,0,0,0-1.23-.8,0.89,0.89,0,0,0-.6.8h1.83Z" transform="translate(-3.11 -2.11)"/><path class="cls-2" d="M332.72,220.52c0-1,0-2.09,0-3.07h0.58c0,0.13,0,.38,0,0.52h0a1,1,0,0,1,1.18-.58l0,0.56a0.88,0.88,0,0,0-1.14,1v1.61h-0.61" transform="translate(-3.11 -2.11)"/><path class="cls-2" d="M335,218.67c-0.4-1,.76-1.59,1.71-1.17a1,1,0,0,1,.48.38l-0.42.36a0.82,0.82,0,0,0-.71-0.38,0.46,0.46,0,0,0-.57.4c0,0.47.73,0.41,1.11,0.58a0.87,0.87,0,0,1,.62.78c0,1.25-2,1.21-2.46.44l0.43-.37a1,1,0,0,0,.82.43,0.49,0.49,0,0,0,.61-0.45c0-.58-1-0.41-1.41-0.76a0.67,0.67,0,0,1-.21-0.24" transform="translate(-3.11 -2.11)"/><line class="cls-1" x1="309.96" y1="216.36" x2="216.36" y2="216.36"/><polygon class="cls-2" points="309.96 216.36 304.81 218.02 304.81 214.7 309.96 216.36"/><path class="cls-2" d="M308.28,219.65l3.64-1.19-3.64-1.19v2.38Zm4.79-1.58v0.79l-5.51,1.76v-4.32Z" transform="translate(-3.11 -2.11)"/><polygon class="cls-2" points="221.51 218.02 216.36 216.36 221.51 214.7 221.51 218.02"/><path class="cls-2" d="M220.62,218.47l3.64,1.19v-2.38Zm4.36,2.16-5.51-1.76v-0.79l5.51-1.76v4.32Z" transform="translate(-3.11 -2.11)"/><rect class="cls-3" x="232.02" y="207.5" width="62.24" height="17.68"/><path class="cls-2" d="M236,211.52a0.4,0.4,0,0,1,.41.4,0.41,0.41,0,1,1-.41-0.4m0.3,4.57h-0.61V213h0.61v3.07Z" transform="translate(-3.11 -2.11)"/><path class="cls-2" d="M237.33,216.09c0-1,0-2.09,0-3.07h0.58c0,0.13,0,.36,0,0.51h0a1.07,1.07,0,0,1,1-.59,1.09,1.09,0,0,1,1.15,1.25v1.91h-0.61v-1.7c0-.54-0.16-0.94-0.7-0.94a0.89,0.89,0,0,0-.82,1v1.63h-0.61" transform="translate(-3.11 -2.11)"/><path class="cls-2" d="M242.55,216.09h-0.66L240.63,213h0.67c0.3,0.8.59,1.63,0.91,2.42l0.91-2.42h0.65" transform="translate(-3.11 -2.11)"/><path class="cls-2" d="M245.82,215.66a1.12,1.12,0,1,0-1-1.11,1,1,0,0,0,1,1.11m0-2.73a1.62,1.62,0,1,1-1.65,1.61A1.52,1.52,0,0,1,245.82,212.93Z" transform="translate(-3.11 -2.11)"/><path class="cls-2" d="M248.63,211.52a0.4,0.4,0,0,1,.41.4,0.41,0.41,0,1,1-.41-0.4m0.3,4.57h-0.61V213h0.61v3.07Z" transform="translate(-3.11 -2.11)"/><path class="cls-2" d="M249.8,214.55a1.5,1.5,0,0,1,1.64-1.62,1.46,1.46,0,0,1,1.15.51l-0.44.36a0.84,0.84,0,0,0-.71-0.35,1.11,1.11,0,0,0,0,2.22,0.88,0.88,0,0,0,.74-0.34l0.41,0.37a1.42,1.42,0,0,1-1.15.48,1.52,1.52,0,0,1-1.65-1.62" transform="translate(-3.11 -2.11)"/><path class="cls-2" d="M254.59,212.93a1.46,1.46,0,0,1,1.47,1.8h-2.44a1,1,0,0,0,1,.93,1,1,0,0,0,.89-0.47l0.43,0.34a1.54,1.54,0,0,1-1.32.63,1.62,1.62,0,0,1,0-3.24m0.86,1.35a0.85,0.85,0,0,0-1.23-.8,0.89,0.89,0,0,0-.6.8h1.83Z" transform="translate(-3.11 -2.11)"/><path class="cls-2" d="M256.8,214.24c-0.4-1,.76-1.59,1.71-1.17a1,1,0,0,1,.48.38l-0.42.36a0.82,0.82,0,0,0-.71-0.38,0.46,0.46,0,0,0-.57.4c0,0.47.73,0.41,1.11,0.58a0.87,0.87,0,0,1,.62.78c0,1.25-2,1.21-2.46.44l0.43-.37a1,1,0,0,0,.82.43,0.49,0.49,0,0,0,.61-0.45c0-.58-1-0.41-1.41-0.76a0.67,0.67,0,0,1-.21-0.24" transform="translate(-3.11 -2.11)"/><polyline class="cls-2" points="256.9 214.85 256.38 214.85 256.82 213.23 257.44 213.23"/><path class="cls-2" d="M262.76,214.24c-0.4-1,.76-1.59,1.71-1.17a1,1,0,0,1,.48.38l-0.42.36a0.82,0.82,0,0,0-.71-0.38,0.46,0.46,0,0,0-.57.4c0,0.47.73,0.41,1.11,0.58a0.87,0.87,0,0,1,.62.78c0,1.25-2,1.21-2.46.44l0.43-.37a1,1,0,0,0,.82.43,0.49,0.49,0,0,0,.61-0.45c0-.58-1-0.41-1.41-0.76a0.67,0.67,0,0,1-.21-0.24" transform="translate(-3.11 -2.11)"/><path class="cls-2" d="M266.72,216.14a0.83,0.83,0,0,1-.89-1v-1.67h-0.59V213h0.59v-0.88h0.6V213h0.82v0.5h-0.82v1.6c0,0.35.1,0.51,0.43,0.52a0.87,0.87,0,0,0,.36-0.08l0,0.5a1.55,1.55,0,0,1-.52.08" transform="translate(-3.11 -2.11)"/><path class="cls-2" d="M268.9,215.69a0.87,0.87,0,0,0,.89-1.06c-0.67,0-1.52,0-1.52.58a0.52,0.52,0,0,0,.63.48m-1.25-.47c0-1,1.12-1,2.14-1a0.66,0.66,0,0,0-.76-0.76,1.28,1.28,0,0,0-.87.36l-0.32-.39a1.81,1.81,0,0,1,1.26-.46,1.14,1.14,0,0,1,1.28,1.21,19.14,19.14,0,0,0,0,2h-0.55a2,2,0,0,1-.05-0.44h0a1.18,1.18,0,0,1-1,.52A1,1,0,0,1,267.65,215.22Z" transform="translate(-3.11 -2.11)"/><path class="cls-2" d="M272.3,216.14a0.83,0.83,0,0,1-.89-1v-1.67h-0.59V213h0.59v-0.88H272V213h0.82v0.5H272v1.6c0,0.35.1,0.51,0.43,0.52a0.87,0.87,0,0,0,.36-0.08l0,0.5a1.55,1.55,0,0,1-.52.08" transform="translate(-3.11 -2.11)"/><path class="cls-2" d="M274.84,212.93a1.46,1.46,0,0,1,1.47,1.8h-2.44a1,1,0,0,0,1,.93,1,1,0,0,0,.89-0.47l0.43,0.34a1.54,1.54,0,0,1-1.32.63,1.62,1.62,0,0,1,0-3.24m0.86,1.35a0.85,0.85,0,0,0-1.23-.8,0.89,0.89,0,0,0-.6.8h1.83Z" transform="translate(-3.11 -2.11)"/><path class="cls-2" d="M277.77,213.52a1.08,1.08,0,0,1,1-.59,1,1,0,0,1,1,.62,1.13,1.13,0,0,1,1-.62,1.09,1.09,0,0,1,1.15,1.25v1.91h-0.61v-1.7c0-.52-0.16-0.94-0.68-0.94-1.11,0-.7,1.58-0.78,2.64h-0.61v-1.83a0.66,0.66,0,0,0-.65-0.82,0.89,0.89,0,0,0-.78,1v1.63h-0.61c0-1,0-2.09,0-3.07h0.58c0,0.13,0,.36,0,0.51h0" transform="translate(-3.11 -2.11)"/><path class="cls-2" d="M284.3,212.93a1.46,1.46,0,0,1,1.47,1.8h-2.44a1,1,0,0,0,1,.93,1,1,0,0,0,.89-0.47l0.43,0.34a1.54,1.54,0,0,1-1.32.63,1.62,1.62,0,0,1,0-3.24m0.86,1.35a0.85,0.85,0,0,0-1.23-.8,0.89,0.89,0,0,0-.6.8h1.83Z" transform="translate(-3.11 -2.11)"/><path class="cls-2" d="M286.63,216.09c0-1,0-2.09,0-3.07h0.58c0,0.13,0,.36,0,0.51h0a1.07,1.07,0,0,1,1-.59,1.09,1.09,0,0,1,1.15,1.25v1.91h-0.61v-1.7c0-.54-0.16-0.94-0.7-0.94a0.89,0.89,0,0,0-.82,1v1.63h-0.61" transform="translate(-3.11 -2.11)"/><path class="cls-2" d="M291.38,216.14a0.83,0.83,0,0,1-.89-1v-1.67H289.9V213h0.59v-0.88h0.6V213h0.82v0.5h-0.82v1.6c0,0.35.1,0.51,0.43,0.52a0.87,0.87,0,0,0,.36-0.08l0,0.5a1.55,1.55,0,0,1-.52.08" transform="translate(-3.11 -2.11)"/><path class="cls-2" d="M292.42,214.24c-0.4-1,.76-1.59,1.71-1.17a1,1,0,0,1,.48.38l-0.42.36a0.82,0.82,0,0,0-.71-0.38,0.46,0.46,0,0,0-.57.4c0,0.47.73,0.41,1.11,0.58a0.87,0.87,0,0,1,.62.78c0,1.25-2,1.21-2.46.44l0.43-.37a1,1,0,0,0,.82.43,0.49,0.49,0,0,0,.61-0.45c0-.58-1-0.41-1.41-0.76a0.67,0.67,0,0,1-.21-0.24" transform="translate(-3.11 -2.11)"/><polyline class="cls-2" points="292.23 214.2 291.77 214.04 293.75 209.18 294.21 209.34"/><path class="cls-2" d="M237.26,224.48a1.12,1.12,0,0,0,0-2.22,1.11,1.11,0,0,0,0,2.22m0.1,0.51a1.28,1.28,0,0,1-1.08-.54h0v2h-0.61v-4.63h0.6v0.48h0a1.23,1.23,0,0,1,1.11-.56A1.62,1.62,0,0,1,237.36,225Z" transform="translate(-3.11 -2.11)"/><path class="cls-2" d="M240.78,224.51a0.87,0.87,0,0,0,.89-1.06c-0.67,0-1.52,0-1.52.58a0.52,0.52,0,0,0,.63.48m-1.25-.47c0-1,1.12-1,2.14-1a0.66,0.66,0,0,0-.76-0.76,1.28,1.28,0,0,0-.87.36l-0.32-.39a1.81,1.81,0,0,1,1.26-.46,1.14,1.14,0,0,1,1.28,1.21,19.14,19.14,0,0,0,0,2h-0.55a2,2,0,0,1-.05-0.44h0a1.18,1.18,0,0,1-1,.52A1,1,0,0,1,239.53,224Z" transform="translate(-3.11 -2.11)"/><path class="cls-2" d="M243.49,221.84c0.32,0.8.62,1.63,1,2.41l0.85-2.41h0.65l-1.49,3.8a1.12,1.12,0,0,1-1.46.78l0.06-.54a0.64,0.64,0,0,0,.66-0.08,3.79,3.79,0,0,0,.41-0.89l-1.32-3.07h0.68" transform="translate(-3.11 -2.11)"/><path class="cls-2" d="M247.13,222.34a1.08,1.08,0,0,1,1-.59,1,1,0,0,1,1,.62,1.13,1.13,0,0,1,1-.62,1.09,1.09,0,0,1,1.15,1.25v1.91h-0.61v-1.7c0-.52-0.16-0.94-0.68-0.94-1.11,0-.7,1.58-0.78,2.64h-0.61v-1.83a0.66,0.66,0,0,0-.65-0.82,0.89,0.89,0,0,0-.78,1v1.63h-0.61c0-1,0-2.09,0-3.07h0.58c0,0.13,0,.36,0,0.51h0" transform="translate(-3.11 -2.11)"/><path class="cls-2" d="M253.67,221.75a1.46,1.46,0,0,1,1.47,1.8h-2.44a1,1,0,0,0,1,.93,1,1,0,0,0,.89-0.47l0.43,0.34a1.54,1.54,0,0,1-1.32.63,1.62,1.62,0,0,1,0-3.24m0.86,1.35a0.85,0.85,0,0,0-1.23-.8,0.89,0.89,0,0,0-.6.8h1.83Z" transform="translate(-3.11 -2.11)"/><path class="cls-2" d="M256,224.91c0-1,0-2.09,0-3.07h0.58c0,0.13,0,.36,0,0.51h0a1.07,1.07,0,0,1,1-.59,1.09,1.09,0,0,1,1.15,1.25v1.91h-0.61v-1.7c0-.54-0.16-0.94-0.7-0.94a0.89,0.89,0,0,0-.82,1v1.63H256" transform="translate(-3.11 -2.11)"/><path class="cls-2" d="M260.75,225a0.83,0.83,0,0,1-.89-1v-1.67h-0.59v-0.5h0.59V221h0.6v0.88h0.82v0.5h-0.82v1.6c0,0.35.1,0.51,0.43,0.52a0.87,0.87,0,0,0,.36-0.08l0,0.5a1.55,1.55,0,0,1-.52.08" transform="translate(-3.11 -2.11)"/><path class="cls-2" d="M261.79,223.06c-0.4-1,.76-1.59,1.71-1.17a1,1,0,0,1,.48.38l-0.42.36a0.82,0.82,0,0,0-.71-0.38,0.46,0.46,0,0,0-.57.4c0,0.47.73,0.41,1.11,0.58a0.87,0.87,0,0,1,.62.78c0,1.25-2,1.21-2.46.44l0.43-.37a1,1,0,0,0,.82.43,0.49,0.49,0,0,0,.61-0.45c0-.58-1-0.41-1.41-0.76a0.67,0.67,0,0,1-.21-0.24" transform="translate(-3.11 -2.11)"/><polyline class="cls-2" points="261.89 223.67 261.37 223.67 261.81 222.05 262.42 222.05"/><path class="cls-2" d="M268.18,220.34a0.4,0.4,0,0,1,.41.4,0.41,0.41,0,1,1-.41-0.4m0.3,4.57h-0.61v-3.07h0.61v3.07Z" transform="translate(-3.11 -2.11)"/><path class="cls-2" d="M269.55,224.91c0-1,0-2.09,0-3.07h0.58c0,0.13,0,.36,0,0.51h0a1.07,1.07,0,0,1,1-.59,1.09,1.09,0,0,1,1.15,1.25v1.91h-0.61v-1.7c0-.54-0.16-0.94-0.7-0.94a0.89,0.89,0,0,0-.82,1v1.63h-0.61" transform="translate(-3.11 -2.11)"/><path class="cls-2" d="M274.77,222.26a1.12,1.12,0,0,0,0,2.22,1.11,1.11,0,0,0,0-2.22m-0.11-.51a1.26,1.26,0,0,1,1.11.56h0v-0.48h0.59v4.63h-0.61c0-.67,0-1.37,0-2a1.27,1.27,0,0,1-1.09.54A1.62,1.62,0,0,1,274.66,221.75Z" transform="translate(-3.11 -2.11)"/><path class="cls-2" d="M280.14,221.84c0,1,0,2.09,0,3.07h-0.58c0-.13,0-0.39,0-0.51a1.12,1.12,0,0,1-1,.59,1.09,1.09,0,0,1-1.15-1.25v-1.91H278v1.7c0,0.54.16,0.95,0.7,0.95a0.89,0.89,0,0,0,.82-1v-1.63h0.61" transform="translate(-3.11 -2.11)"/><path class="cls-2" d="M281.51,220.34a0.4,0.4,0,0,1,.41.4,0.41,0.41,0,1,1-.41-0.4m0.3,4.57H281.2v-3.07h0.61v3.07Z" transform="translate(-3.11 -2.11)"/><path class="cls-2" d="M282.87,224.91c0-1,0-2.09,0-3.07h0.58c0,0.13,0,.38,0,0.52h0a1,1,0,0,1,1.18-.58l0,0.56a0.88,0.88,0,0,0-1.14,1v1.61h-0.61" transform="translate(-3.11 -2.11)"/><path class="cls-2" d="M285.53,220.34a0.4,0.4,0,0,1,.41.4,0.41,0.41,0,1,1-.41-0.4m0.3,4.57h-0.61v-3.07h0.61v3.07Z" transform="translate(-3.11 -2.11)"/><path class="cls-2" d="M288.28,221.75a1.46,1.46,0,0,1,1.47,1.8h-2.44a1,1,0,0,0,1,.93,1,1,0,0,0,.89-0.47l0.43,0.34a1.54,1.54,0,0,1-1.32.63,1.62,1.62,0,0,1,0-3.24m0.86,1.35a0.85,0.85,0,0,0-1.23-.8,0.89,0.89,0,0,0-.6.8h1.83Z" transform="translate(-3.11 -2.11)"/><path class="cls-2" d="M290.5,223.06c-0.4-1,.76-1.59,1.71-1.17a1,1,0,0,1,.48.38l-0.42.36a0.82,0.82,0,0,0-.71-0.38,0.46,0.46,0,0,0-.57.4c0,0.47.73,0.41,1.11,0.58a0.87,0.87,0,0,1,.62.78c0,1.25-2,1.21-2.46.44l0.43-.37a1,1,0,0,0,.82.43,0.49,0.49,0,0,0,.61-0.45c0-.58-1-0.41-1.41-0.76a0.67,0.67,0,0,1-.21-0.24" transform="translate(-3.11 -2.11)"/><rect class="cls-4" x="144.36" y="201.96" width="72" height="28.8" rx="2.88" ry="2.88"/><rect class="cls-1" x="144.36" y="201.96" width="72" height="28.8" rx="2.88" ry="2.88"/><path class="cls-2" d="M157.41,220.07a1.42,1.42,0,0,0,1.23-.61l0.51,0.35a2.06,2.06,0,0,1-1.75.83,2.29,2.29,0,0,1-2.24-1.44,2.75,2.75,0,0,1,0-2,2.39,2.39,0,0,1,2.73-1.38,1.78,1.78,0,0,1,1.17.67l-0.51.39a1.38,1.38,0,0,0-1.14-.54,1.68,1.68,0,0,0-1.74,1.84,1.65,1.65,0,0,0,1.72,1.85" transform="translate(-3.11 -2.11)"/><path class="cls-2" d="M161.15,220.09a1.12,1.12,0,1,0-1-1.11,1,1,0,0,0,1,1.11m0-2.73A1.62,1.62,0,1,1,159.5,219,1.52,1.52,0,0,1,161.15,217.36Z" transform="translate(-3.11 -2.11)"/><polyline class="cls-2" points="161.17 218.41 160.56 218.41 160.56 215.96 160.56 213.51 161.17 213.51 161.17 215.96 161.17 218.41"/><polyline class="cls-2" points="162.85 218.41 162.25 218.41 162.25 215.96 162.25 213.51 162.85 213.51 162.85 215.96 162.85 218.41"/><path class="cls-2" d="M168.41,217.36a1.46,1.46,0,0,1,1.47,1.8h-2.44a1,1,0,0,0,1,.93,1,1,0,0,0,.89-0.47l0.43,0.34a1.54,1.54,0,0,1-1.32.63,1.62,1.62,0,0,1,0-3.24m0.86,1.35a0.85,0.85,0,0,0-1.23-.8,0.89,0.89,0,0,0-.6.8h1.83Z" transform="translate(-3.11 -2.11)"/><path class="cls-2" d="M170.54,219a1.5,1.5,0,0,1,1.64-1.62,1.46,1.46,0,0,1,1.15.51l-0.44.36a0.84,0.84,0,0,0-.71-0.35,1.11,1.11,0,0,0,0,2.22,0.88,0.88,0,0,0,.74-0.34l0.41,0.37a1.42,1.42,0,0,1-1.15.48,1.52,1.52,0,0,1-1.65-1.62" transform="translate(-3.11 -2.11)"/><path class="cls-2" d="M174.92,220.57a0.83,0.83,0,0,1-.89-1v-1.67h-0.59v-0.5H174v-0.88h0.6v0.88h0.82v0.5h-0.82v1.6c0,0.35.1,0.51,0.43,0.52a0.87,0.87,0,0,0,.36-0.08l0,0.5a1.55,1.55,0,0,1-.52.08" transform="translate(-3.11 -2.11)"/><path class="cls-2" d="M179.26,220.09a1.12,1.12,0,0,0,0-2.22,1.11,1.11,0,0,0,0,2.22m0.1,0.51a1.28,1.28,0,0,1-1.08-.54h0v2h-0.61v-4.63h0.6v0.48h0a1.23,1.23,0,0,1,1.11-.56A1.62,1.62,0,0,1,179.37,220.6Z" transform="translate(-3.11 -2.11)"/><path class="cls-2" d="M182.79,220.12a0.87,0.87,0,0,0,.89-1.06c-0.67,0-1.52,0-1.52.58a0.52,0.52,0,0,0,.63.48m-1.25-.47c0-1,1.12-1,2.14-1a0.66,0.66,0,0,0-.76-0.76,1.28,1.28,0,0,0-.87.36l-0.32-.39a1.81,1.81,0,0,1,1.26-.46,1.14,1.14,0,0,1,1.28,1.21,19.14,19.14,0,0,0,0,2h-0.55a2,2,0,0,1-.05-0.44h0a1.18,1.18,0,0,1-1,.52A1,1,0,0,1,181.54,219.65Z" transform="translate(-3.11 -2.11)"/><path class="cls-2" d="M185.49,217.45c0.32,0.8.62,1.63,1,2.41l0.85-2.41H188l-1.49,3.8A1.12,1.12,0,0,1,185,222l0.06-.54a0.64,0.64,0,0,0,.66-0.08,3.79,3.79,0,0,0,.41-0.89l-1.32-3.07h0.68" transform="translate(-3.11 -2.11)"/><path class="cls-2" d="M189.14,218a1.08,1.08,0,0,1,1-.59,1,1,0,0,1,1,.62,1.13,1.13,0,0,1,1-.62,1.09,1.09,0,0,1,1.15,1.25v1.91h-0.61v-1.7c0-.52-0.16-0.94-0.68-0.94-1.11,0-.7,1.58-0.78,2.64h-0.61v-1.83a0.66,0.66,0,0,0-.65-0.82,0.89,0.89,0,0,0-.78,1v1.63h-0.61c0-1,0-2.09,0-3.07h0.58c0,0.13,0,.36,0,0.51h0" transform="translate(-3.11 -2.11)"/><path class="cls-2" d="M195.68,217.36a1.46,1.46,0,0,1,1.47,1.8h-2.44a1,1,0,0,0,1,.93,1,1,0,0,0,.89-0.47L197,220a1.54,1.54,0,0,1-1.32.63,1.62,1.62,0,0,1,0-3.24m0.86,1.35a0.85,0.85,0,0,0-1.23-.8,0.89,0.89,0,0,0-.6.8h1.83Z" transform="translate(-3.11 -2.11)"/><path class="cls-2" d="M198,220.52c0-1,0-2.09,0-3.07h0.58c0,0.13,0,.36,0,0.51h0a1.07,1.07,0,0,1,1-.59,1.09,1.09,0,0,1,1.15,1.25v1.91h-0.61v-1.7c0-.54-0.16-0.94-0.7-0.94a0.89,0.89,0,0,0-.82,1v1.63H198" transform="translate(-3.11 -2.11)"/><path class="cls-2" d="M202.75,220.57a0.83,0.83,0,0,1-.89-1v-1.67h-0.59v-0.5h0.59v-0.88h0.6v0.88h0.82v0.5h-0.82v1.6c0,0.35.1,0.51,0.43,0.52a0.87,0.87,0,0,0,.36-0.08l0,0.5a1.55,1.55,0,0,1-.52.08" transform="translate(-3.11 -2.11)"/><path class="cls-1" d="M174,138.91V105.07a1.78,1.78,0,0,0-1.8-1.8H68.27" transform="translate(-3.11 -2.11)"/><path class="cls-2" d="M174.36,139.27h-0.72v-0.36h0.72v0.36Zm0,0.72h-0.72v-0.72h0.72V140Z" transform="translate(-3.11 -2.11)"/><polygon class="cls-2" points="70.31 102.82 65.16 101.16 70.31 99.5 70.31 102.82"/><path class="cls-2" d="M69.42,103.27l3.64,1.19v-2.38Zm4.36,2.16-5.51-1.76v-0.79l5.51-1.76v4.32Z" transform="translate(-3.11 -2.11)"/><rect class="cls-3" x="91.37" y="92.3" width="37.76" height="17.68"/><path class="cls-2" d="M97.71,97.82c0,1,0,2.09,0,3.07H97.16c0-.13,0-0.39,0-0.51a1.13,1.13,0,0,1-1,.59A1.09,1.09,0,0,1,95,99.72V97.82h0.61v1.7c0,0.54.16,0.95,0.7,0.95a0.89,0.89,0,0,0,.82-1V97.82h0.61" transform="translate(-3.11 -2.11)"/><path class="cls-2" d="M98.66,99c-0.4-1,.76-1.59,1.71-1.17a1,1,0,0,1,.48.38l-0.42.36a0.82,0.82,0,0,0-.71-0.38,0.46,0.46,0,0,0-.57.4c0,0.47.73,0.41,1.11,0.58a0.87,0.87,0,0,1,.62.78c0,1.25-2,1.21-2.46.44l0.43-.37a1,1,0,0,0,.82.43,0.49,0.49,0,0,0,.61-0.45c0-.58-1-0.41-1.41-0.76A0.67,0.67,0,0,1,98.66,99" transform="translate(-3.11 -2.11)"/><path class="cls-2" d="M103,97.73a1.46,1.46,0,0,1,1.47,1.8h-2.44a1,1,0,0,0,1,.93A1,1,0,0,0,104,100l0.43,0.34a1.54,1.54,0,0,1-1.32.63,1.62,1.62,0,0,1,0-3.24m0.86,1.35a0.85,0.85,0,0,0-1.23-.8,0.89,0.89,0,0,0-.6.8h1.83Z" transform="translate(-3.11 -2.11)"/><path class="cls-2" d="M105.36,100.89c0-1,0-2.09,0-3.07h0.58c0,0.13,0,.38,0,0.52h0a1,1,0,0,1,1.18-.58l0,0.56a0.88,0.88,0,0,0-1.14,1v1.61h-0.61" transform="translate(-3.11 -2.11)"/><path class="cls-2" d="M109.29,100.89c0-1,0-2.09,0-3.07h0.58c0,0.13,0,.36,0,0.51h0a1.07,1.07,0,0,1,1-.59A1.09,1.09,0,0,1,112,99v1.91h-0.61v-1.7c0-.54-0.16-0.94-0.7-0.94a0.89,0.89,0,0,0-.82,1v1.63h-0.61" transform="translate(-3.11 -2.11)"/><path class="cls-2" d="M114.09,100.49a0.87,0.87,0,0,0,.89-1.06c-0.67,0-1.52,0-1.52.58a0.52,0.52,0,0,0,.63.48m-1.25-.47c0-1,1.12-1,2.14-1a0.66,0.66,0,0,0-.76-0.76,1.28,1.28,0,0,0-.87.36L113,98.19a1.81,1.81,0,0,1,1.26-.46,1.14,1.14,0,0,1,1.28,1.21,19.14,19.14,0,0,0,0,2h-0.55a2,2,0,0,1-.05-0.44h0a1.18,1.18,0,0,1-1,.52A1,1,0,0,1,112.84,100Z" transform="translate(-3.11 -2.11)"/><path class="cls-2" d="M117.17,98.32a1.08,1.08,0,0,1,1-.59,1,1,0,0,1,1,.62,1.13,1.13,0,0,1,1-.62A1.09,1.09,0,0,1,121.29,99v1.91h-0.61v-1.7c0-.52-0.16-0.94-0.68-0.94-1.11,0-.7,1.58-0.78,2.64h-0.61V99.06a0.66,0.66,0,0,0-.65-0.82,0.89,0.89,0,0,0-.78,1v1.63h-0.61c0-1,0-2.09,0-3.07h0.58c0,0.13,0,.36,0,0.51h0" transform="translate(-3.11 -2.11)"/><path class="cls-2" d="M123.71,97.73a1.46,1.46,0,0,1,1.47,1.8h-2.44a1,1,0,0,0,1,.93,1,1,0,0,0,.89-0.47l0.43,0.34a1.54,1.54,0,0,1-1.32.63,1.62,1.62,0,0,1,0-3.24m0.86,1.35a0.85,0.85,0,0,0-1.23-.8,0.89,0.89,0,0,0-.6.8h1.83Z" transform="translate(-3.11 -2.11)"/><polyline class="cls-2" points="123.14 99.65 122.63 99.65 123.07 98.03 123.68 98.03"/><path class="cls-2" d="M97.71,106.64c0,1,0,2.09,0,3.07H97.16c0-.13,0-0.39,0-0.51a1.13,1.13,0,0,1-1,.59A1.09,1.09,0,0,1,95,108.54v-1.91h0.61v1.7c0,0.54.16,0.95,0.7,0.95a0.89,0.89,0,0,0,.82-1v-1.63h0.61" transform="translate(-3.11 -2.11)"/><path class="cls-2" d="M98.66,107.86c-0.4-1,.76-1.59,1.71-1.17a1,1,0,0,1,.48.38l-0.42.36a0.82,0.82,0,0,0-.71-0.38,0.46,0.46,0,0,0-.57.4c0,0.47.73,0.41,1.11,0.58a0.87,0.87,0,0,1,.62.78c0,1.25-2,1.21-2.46.44l0.43-.37a1,1,0,0,0,.82.43,0.49,0.49,0,0,0,.61-0.45c0-.58-1-0.41-1.41-0.76a0.67,0.67,0,0,1-.21-0.24" transform="translate(-3.11 -2.11)"/><path class="cls-2" d="M103,106.55a1.46,1.46,0,0,1,1.47,1.8h-2.44a1,1,0,0,0,1,.93,1,1,0,0,0,.89-0.47l0.43,0.34a1.54,1.54,0,0,1-1.32.63,1.62,1.62,0,0,1,0-3.24m0.86,1.35a0.85,0.85,0,0,0-1.23-.8,0.89,0.89,0,0,0-.6.8h1.83Z" transform="translate(-3.11 -2.11)"/><path class="cls-2" d="M105.36,109.71c0-1,0-2.09,0-3.07h0.58c0,0.13,0,.38,0,0.52h0a1,1,0,0,1,1.18-.58l0,0.56a0.88,0.88,0,0,0-1.14,1v1.61h-0.61" transform="translate(-3.11 -2.11)"/><path class="cls-2" d="M110.32,109.31a0.87,0.87,0,0,0,.89-1.06c-0.67,0-1.52,0-1.52.58a0.52,0.52,0,0,0,.63.48m-1.25-.47c0-1,1.12-1,2.14-1a0.66,0.66,0,0,0-.76-0.76,1.28,1.28,0,0,0-.87.36l-0.32-.39a1.81,1.81,0,0,1,1.26-.46,1.14,1.14,0,0,1,1.28,1.21,19.14,19.14,0,0,0,0,2h-0.55a2,2,0,0,1-.05-0.44h0a1.18,1.18,0,0,1-1,.52A1,1,0,0,1,109.06,108.84Z" transform="translate(-3.11 -2.11)"/><path class="cls-2" d="M114.25,107.06a1.12,1.12,0,0,0,0,2.22,1.11,1.11,0,0,0,0-2.22m-0.11-.51a1.36,1.36,0,0,1,1.11.54v-2.29h0.61v4.9h-0.59a3,3,0,0,0,0-.49,1.28,1.28,0,0,1-1.11.57,1.47,1.47,0,0,1-1.55-1.63A1.49,1.49,0,0,1,114.14,106.55Z" transform="translate(-3.11 -2.11)"/><path class="cls-2" d="M118.36,107.06a1.12,1.12,0,0,0,0,2.22,1.11,1.11,0,0,0,0-2.22m-0.11-.51a1.36,1.36,0,0,1,1.11.54v-2.29H120v4.9h-0.59a3,3,0,0,0,0-.49,1.28,1.28,0,0,1-1.11.57,1.47,1.47,0,0,1-1.55-1.63A1.49,1.49,0,0,1,118.25,106.55Z" transform="translate(-3.11 -2.11)"/><path class="cls-2" d="M121,109.71c0-1,0-2.09,0-3.07h0.58c0,0.13,0,.38,0,0.52h0a1,1,0,0,1,1.18-.58l0,0.56a0.88,0.88,0,0,0-1.14,1v1.61H121" transform="translate(-3.11 -2.11)"/><path class="cls-2" d="M124.65,106.55a1.46,1.46,0,0,1,1.47,1.8h-2.44a1,1,0,0,0,1,.93,1,1,0,0,0,.89-0.47l0.43,0.34a1.54,1.54,0,0,1-1.32.63,1.62,1.62,0,0,1,0-3.24m0.86,1.35a0.85,0.85,0,0,0-1.23-.8,0.89,0.89,0,0,0-.6.8h1.83Z" transform="translate(-3.11 -2.11)"/><path class="cls-2" d="M126.87,107.86c-0.4-1,.76-1.59,1.71-1.17a1,1,0,0,1,.48.38l-0.42.36a0.82,0.82,0,0,0-.71-0.38,0.46,0.46,0,0,0-.57.4c0,0.47.73,0.41,1.11,0.58a0.87,0.87,0,0,1,.62.78c0,1.25-2,1.21-2.46.44l0.43-.37a1,1,0,0,0,.82.43,0.49,0.49,0,0,0,.61-0.45c0-.58-1-0.41-1.41-0.76a0.67,0.67,0,0,1-.21-0.24" transform="translate(-3.11 -2.11)"/><path class="cls-2" d="M129.74,107.86c-0.4-1,.76-1.59,1.71-1.17a1,1,0,0,1,.48.38l-0.42.36a0.82,0.82,0,0,0-.71-0.38,0.46,0.46,0,0,0-.57.4c0,0.47.73,0.41,1.11,0.58a0.87,0.87,0,0,1,.62.78c0,1.25-2,1.21-2.46.44l0.43-.37a1,1,0,0,0,.82.43,0.49,0.49,0,0,0,.61-0.45c0-.58-1-0.41-1.41-0.76a0.67,0.67,0,0,1-.21-0.24" transform="translate(-3.11 -2.11)"/><path class="cls-1" d="M35.87,117.67v25l0,0a0.13,0.13,0,0,0-.07,0v25" transform="translate(-3.11 -2.11)"/><polygon class="cls-2" points="32.65 165.6 31 160.45 34.34 160.45 32.65 165.6"/><path class="cls-2" d="M34.61,162.92l1.15,3.64,1.19-3.64H34.61Zm1.4,5.15h-0.5L33.6,162.2h4.32Zm-0.25.79-0.25-.79H36Z" transform="translate(-3.11 -2.11)"/><rect class="cls-3" x="5.29" y="136.15" width="54.83" height="8.82"/><path class="cls-2" d="M10.54,144.31a1.12,1.12,0,0,0,0-2.22,1.11,1.11,0,0,0,0,2.22m0.1,0.51a1.3,1.3,0,0,1-1.11-.57h0v0.49H8.94v-4.9H9.55v2.29h0a1.28,1.28,0,0,1,1.1-.54A1.62,1.62,0,0,1,10.65,144.82Z" transform="translate(-3.11 -2.11)"/><path class="cls-2" d="M13.36,140.16a0.4,0.4,0,0,1,.41.4,0.41,0.41,0,1,1-.41-0.4m0.3,4.57H13.05v-3.07h0.61v3.07Z" transform="translate(-3.11 -2.11)"/><polyline class="cls-2" points="12.24 142.63 11.63 142.63 11.63 140.18 11.63 137.73 12.24 137.73 12.24 140.18 12.24 142.63"/><polyline class="cls-2" points="13.92 142.63 13.31 142.63 13.31 140.18 13.31 137.73 13.92 137.73 13.92 140.18 13.92 142.63"/><path class="cls-2" d="M18.4,140.16a0.4,0.4,0,0,1,.41.4,0.41,0.41,0,1,1-.41-0.4m0.3,4.57H18.1v-3.07h0.61v3.07Z" transform="translate(-3.11 -2.11)"/><path class="cls-2" d="M19.77,144.74c0-1,0-2.09,0-3.07h0.58c0,0.13,0,.36,0,0.51h0a1.07,1.07,0,0,1,1-.59,1.09,1.09,0,0,1,1.15,1.25v1.91H21.9V143c0-.54-0.16-0.94-0.7-0.94a0.89,0.89,0,0,0-.82,1v1.63H19.77" transform="translate(-3.11 -2.11)"/><path class="cls-2" d="M25,142.09a1.08,1.08,0,0,0,0,2.16,1.08,1.08,0,0,0,0-2.16m1.61,2.49a1.53,1.53,0,0,1-1.7,1.71,2.25,2.25,0,0,1-1.5-.56l0.39-.47a1.57,1.57,0,0,0,1.12.5c0.88,0,1.17-.62,1.07-1.53a1.25,1.25,0,0,1-1.08.53,1.59,1.59,0,0,1,0-3.18,1.3,1.3,0,0,1,1.12.58v-0.49h0.59v2.92Z" transform="translate(-3.11 -2.11)"/><path class="cls-2" d="M29.54,140.16a0.4,0.4,0,0,1,.41.4,0.41,0.41,0,1,1-.41-0.4m0.3,4.57H29.23v-3.07h0.61v3.07Z" transform="translate(-3.11 -2.11)"/><path class="cls-2" d="M30.91,144.74c0-1,0-2.09,0-3.07h0.58c0,0.13,0,.36,0,0.51h0a1.07,1.07,0,0,1,1-.59,1.09,1.09,0,0,1,1.15,1.25v1.91H33V143c0-.54-0.16-0.94-0.7-0.94a0.89,0.89,0,0,0-.82,1v1.63H30.91" transform="translate(-3.11 -2.11)"/><path class="cls-2" d="M36,140.29c-0.67,0-.53.75-0.54,1.38h0.71v0.5H35.41v2.57H34.8v-2.57H34.19v-0.5H34.8V141a1.14,1.14,0,0,1,1.53-1.22l-0.07.52a1.07,1.07,0,0,0-.3,0" transform="translate(-3.11 -2.11)"/><path class="cls-2" d="M38.14,144.31a1.12,1.12,0,1,0-1-1.11,1,1,0,0,0,1,1.11m0-2.73a1.62,1.62,0,1,1-1.65,1.61A1.52,1.52,0,0,1,38.14,141.58Z" transform="translate(-3.11 -2.11)"/><path class="cls-2" d="M40.64,144.74c0-1,0-2.09,0-3.07h0.58c0,0.13,0,.38,0,0.52h0a1,1,0,0,1,1.18-.58l0,0.56a0.88,0.88,0,0,0-1.14,1v1.61H40.64" transform="translate(-3.11 -2.11)"/><path class="cls-2" d="M43.58,142.17a1.08,1.08,0,0,1,1-.59,1,1,0,0,1,1,.62,1.13,1.13,0,0,1,1-.62,1.09,1.09,0,0,1,1.15,1.25v1.91H47.09V143c0-.52-0.16-0.94-0.68-0.94-1.11,0-.7,1.58-0.78,2.64H45v-1.83a0.66,0.66,0,0,0-.65-0.82,0.89,0.89,0,0,0-.78,1v1.63H43c0-1,0-2.09,0-3.07h0.58c0,0.13,0,.36,0,0.51h0" transform="translate(-3.11 -2.11)"/><path class="cls-2" d="M49.76,144.34a0.87,0.87,0,0,0,.89-1.06c-0.67,0-1.52,0-1.52.58a0.52,0.52,0,0,0,.63.48m-1.25-.47c0-1,1.12-1,2.14-1a0.66,0.66,0,0,0-.76-0.76,1.28,1.28,0,0,0-.87.36L48.69,142a1.81,1.81,0,0,1,1.26-.46,1.14,1.14,0,0,1,1.28,1.21,19.14,19.14,0,0,0,0,2H50.72a2,2,0,0,1-.05-0.44h0a1.18,1.18,0,0,1-1,.52A1,1,0,0,1,48.51,143.87Z" transform="translate(-3.11 -2.11)"/><path class="cls-2" d="M53.16,144.79a0.83,0.83,0,0,1-.89-1v-1.67H51.67v-0.5h0.59v-0.88h0.6v0.88h0.82v0.5H52.87v1.6c0,0.35.1,0.51,0.43,0.52a0.87,0.87,0,0,0,.36-0.08l0,0.5a1.55,1.55,0,0,1-.52.08" transform="translate(-3.11 -2.11)"/><path class="cls-2" d="M54.62,140.16a0.4,0.4,0,0,1,.41.4,0.41,0.41,0,1,1-.41-0.4m0.3,4.57H54.32v-3.07h0.61v3.07Z" transform="translate(-3.11 -2.11)"/><path class="cls-2" d="M57.44,144.31a1.12,1.12,0,1,0-1-1.11,1,1,0,0,0,1,1.11m0-2.73a1.62,1.62,0,1,1-1.65,1.61A1.52,1.52,0,0,1,57.44,141.58Z" transform="translate(-3.11 -2.11)"/><path class="cls-2" d="M59.94,144.74c0-1,0-2.09,0-3.07h0.58c0,0.13,0,.36,0,0.51h0a1.07,1.07,0,0,1,1-.59,1.09,1.09,0,0,1,1.15,1.25v1.91H62.07V143c0-.54-0.16-0.94-0.7-0.94a0.89,0.89,0,0,0-.82,1v1.63H59.94" transform="translate(-3.11 -2.11)"/><path class="cls-4" d="M89.87,168.07H5.27a1.78,1.78,0,0,0-1.8,1.8v18a1.78,1.78,0,0,0,1.8,1.8h84.6" transform="translate(-3.11 -2.11)"/><path class="cls-1" d="M89.87,168.07H5.27a1.78,1.78,0,0,0-1.8,1.8v18a1.78,1.78,0,0,0,1.8,1.8h84.6" transform="translate(-3.11 -2.11)"/><line class="cls-1" x1="17.64" y1="165.96" x2="17.64" y2="187.56"/><path class="cls-2" d="M9.7,176.21a1.31,1.31,0,0,1,1.39,1.71,2.11,2.11,0,0,1-.68,1l-1.49,1.45h2.25v0.56h-3v-0.6L10,178.5a1.4,1.4,0,0,0,.51-1,0.75,0.75,0,0,0-.82-0.79,0.87,0.87,0,0,0-.86.8l-0.62-.1a1.41,1.41,0,0,1,1.48-1.22" transform="translate(-3.11 -2.11)"/><polyline class="cls-2" points="23.16 178.81 22.52 178.81 22.52 176.52 22.52 174.22 23.16 174.22 23.16 176.52 23.16 178.81"/><path class="cls-2" d="M27.35,180.92c0-1,0-2.09,0-3.07H27.9c0,0.13,0,.36,0,0.51h0a1.07,1.07,0,0,1,1-.59A1.09,1.09,0,0,1,30.09,179v1.91H29.48v-1.7c0-.54-0.16-0.94-0.7-0.94a0.89,0.89,0,0,0-.82,1v1.63H27.35" transform="translate(-3.11 -2.11)"/><path class="cls-2" d="M32.56,180.92H31.9l-1.25-3.07h0.67c0.3,0.8.59,1.63,0.91,2.42l0.91-2.42H33.8" transform="translate(-3.11 -2.11)"/><path class="cls-2" d="M35.84,180.49a1.12,1.12,0,1,0-1-1.11,1,1,0,0,0,1,1.11m0-2.73a1.62,1.62,0,1,1-1.65,1.61A1.52,1.52,0,0,1,35.84,177.76Z" transform="translate(-3.11 -2.11)"/><path class="cls-2" d="M38.65,176.34a0.4,0.4,0,0,1,.41.4,0.41,0.41,0,1,1-.41-0.4m0.3,4.57H38.34v-3.07H39v3.07Z" transform="translate(-3.11 -2.11)"/><path class="cls-2" d="M39.82,179.38a1.5,1.5,0,0,1,1.64-1.62,1.46,1.46,0,0,1,1.15.51l-0.44.36a0.84,0.84,0,0,0-.71-0.35,1.11,1.11,0,0,0,0,2.22,0.88,0.88,0,0,0,.74-0.34l0.41,0.37a1.42,1.42,0,0,1-1.15.48,1.52,1.52,0,0,1-1.65-1.62" transform="translate(-3.11 -2.11)"/><path class="cls-2" d="M44.6,177.76a1.46,1.46,0,0,1,1.47,1.8H43.64a1,1,0,0,0,1,.93,1,1,0,0,0,.89-0.47L46,180.37a1.54,1.54,0,0,1-1.32.63,1.62,1.62,0,0,1,0-3.24m0.86,1.35a0.85,0.85,0,0,0-1.23-.8,0.89,0.89,0,0,0-.6.8h1.83Z" transform="translate(-3.11 -2.11)"/><path class="cls-2" d="M46.82,179.07c-0.4-1,.76-1.59,1.71-1.17a1,1,0,0,1,.48.38l-0.42.36a0.82,0.82,0,0,0-.71-0.38,0.46,0.46,0,0,0-.57.4c0,0.47.73,0.41,1.11,0.58A0.87,0.87,0,0,1,49,180c0,1.25-2,1.21-2.46.44l0.43-.37a1,1,0,0,0,.82.43,0.49,0.49,0,0,0,.61-0.45c0-.58-1-0.41-1.41-0.76a0.67,0.67,0,0,1-.21-0.24" transform="translate(-3.11 -2.11)"/></svg>