<svg id="Layer_1" data-name="Layer 1" xmlns="http://www.w3.org/2000/svg" viewBox="0 0 405.04 91.98"><defs><style>.cls-1{fill:#abddf3;}.cls-2{fill:none;stroke:#3d4752;stroke-miterlimit:10;stroke-width:0.9px;}.cls-3{fill:#3d4752;}.cls-4{fill:#fff;}</style></defs><title>data-flow-diagram-3</title><path class="cls-1" d="M3.79,7.52A2.29,2.29,0,0,1,6,5.27H59.41a2.26,2.26,0,0,1,2.25,2.25V89.33a2.23,2.23,0,0,1-2.25,2.25H6a2.26,2.26,0,0,1-2.25-2.25V7.52Z" transform="translate(-3.34 -1.63)"/><path class="cls-2" d="M3.79,7.52A2.29,2.29,0,0,1,6,5.27H59.41a2.26,2.26,0,0,1,2.25,2.25V89.33a2.23,2.23,0,0,1-2.25,2.25H6a2.26,2.26,0,0,1-2.25-2.25V7.52Z" transform="translate(-3.34 -1.63)"/><path class="cls-3" d="M27.46,50.68a4.37,4.37,0,0,1-3.39.28,3,3,0,0,1,1.22-5.8,2.91,2.91,0,0,1,2.12.75l-0.56.58a2,2,0,0,0-1.56-.62,2.3,2.3,0,0,0,0,4.6,2.66,2.66,0,0,0,1.34-.28v-1.6H25.39V47.9h2.07v2.78" transform="translate(-3.34 -1.63)"/><path class="cls-3" d="M32.19,47.2c0,1.28,0,2.61,0,3.84H31.5c0-.16,0-0.49,0-0.63a1.41,1.41,0,0,1-1.26.74,1.36,1.36,0,0,1-1.43-1.56V47.2h0.76v2.12c0,0.68.19,1.18,0.87,1.18a1.11,1.11,0,0,0,1-1.26v-2h0.76" transform="translate(-3.34 -1.63)"/><path class="cls-3" d="M35.24,47.09c1.3,0,1.9.87,1.84,2.25H34a1.2,1.2,0,0,0,1.25,1.17,1.28,1.28,0,0,0,1.12-.58l0.53,0.43a1.92,1.92,0,0,1-1.65.79,2,2,0,0,1,0-4m1.08,1.68a1.07,1.07,0,0,0-1.54-1,1.12,1.12,0,0,0-.75,1h2.28Z" transform="translate(-3.34 -1.63)"/><path class="cls-3" d="M38,48.72c-0.5-1.26.95-2,2.14-1.47a1.3,1.3,0,0,1,.6.47l-0.53.45a1,1,0,0,0-.89-0.48,0.58,0.58,0,0,0-.71.5c0,0.59.92,0.51,1.39,0.73a1.08,1.08,0,0,1,.78,1c0.06,1.56-2.45,1.51-3.08.55L38.25,50a1.24,1.24,0,0,0,1,.53A0.62,0.62,0,0,0,40,50c0-.73-1.27-0.51-1.76-0.95a0.84,0.84,0,0,1-.26-0.3" transform="translate(-3.34 -1.63)"/><path class="cls-3" d="M43,51.1a1,1,0,0,1-1.12-1.2V47.82H41.12V47.2h0.74V46.1h0.75v1.1h1v0.62h-1v2c0,0.44.13,0.64,0.54,0.65a1.09,1.09,0,0,0,.45-0.1l0,0.62a1.94,1.94,0,0,1-.65.11" transform="translate(-3.34 -1.63)"/><path class="cls-1" d="M355.42,6.58a2.23,2.23,0,0,1,2.25-2.25h48a2.23,2.23,0,0,1,2.25,2.25V88.39a2.26,2.26,0,0,1-2.25,2.25h-48a2.26,2.26,0,0,1-2.25-2.25V6.58Z" transform="translate(-3.34 -1.63)"/><path class="cls-2" d="M355.42,6.58a2.23,2.23,0,0,1,2.25-2.25h48a2.23,2.23,0,0,1,2.25,2.25V88.39a2.26,2.26,0,0,1-2.25,2.25h-48a2.26,2.26,0,0,1-2.25-2.25V6.58Z" transform="translate(-3.34 -1.63)"/><path class="cls-3" d="M371,47.93h2.15l-1.07-2.69M370.17,50h-0.89l2.49-5.73h0.73L375,50H374l-0.58-1.41h-2.72Z" transform="translate(-3.34 -1.63)"/><path class="cls-3" d="M377.46,46.74a1.39,1.39,0,0,0,0,2.78,1.39,1.39,0,0,0,0-2.78m-0.14-.63a1.7,1.7,0,0,1,1.39.68V43.92h0.76V50h-0.74a3.73,3.73,0,0,0,0-.61,1.6,1.6,0,0,1-1.39.71,1.84,1.84,0,0,1-1.94-2A1.86,1.86,0,0,1,377.32,46.1Z" transform="translate(-3.34 -1.63)"/><path class="cls-3" d="M381.54,46.84a1.34,1.34,0,0,1,1.22-.74,1.2,1.2,0,0,1,1.19.77,1.41,1.41,0,0,1,1.3-.77,1.36,1.36,0,0,1,1.43,1.56V50h-0.76V47.92c0-.66-0.19-1.17-0.85-1.17-1.39,0-.87,2-1,3.3h-0.76V47.76a0.83,0.83,0,0,0-.81-1,1.11,1.11,0,0,0-1,1.26v2H380.8c0-1.28,0-2.61,0-3.84h0.72c0,0.16,0,.45,0,0.63h0" transform="translate(-3.34 -1.63)"/><path class="cls-3" d="M388.37,44.33a0.5,0.5,0,0,1,.51.49,0.51,0.51,0,1,1-.51-0.49M388.75,50H388V46.21h0.76V50Z" transform="translate(-3.34 -1.63)"/><path class="cls-3" d="M390.08,50c0-1.28,0-2.61,0-3.84h0.72c0,0.16,0,.45,0,0.63h0a1.34,1.34,0,0,1,1.25-.74,1.36,1.36,0,0,1,1.43,1.56V50h-0.76V47.92c0-.68-0.19-1.17-0.87-1.17a1.11,1.11,0,0,0-1,1.26v2h-0.76" transform="translate(-3.34 -1.63)"/><circle class="cls-1" cx="201.42" cy="45.99" r="45.54"/><circle class="cls-2" cx="201.42" cy="45.99" r="45.54"/><polyline class="cls-3" points="170.64 48.65 170.64 47.45 170.64 46.25 168.4 46.25 168.4 47.45 168.4 48.65 167.02 48.65 167.02 45.78 167.02 42.91 168.4 42.91 168.4 44 168.4 45.08 170.64 45.08 170.64 44 170.64 42.91 172.03 42.91 172.03 45.78 172.03 48.65 170.64 48.65"/><path class="cls-3" d="M178.52,49.29a1,1,0,0,0,0-2.07,0.92,0.92,0,0,0-.95,1,0.93,0.93,0,0,0,1,1m0-3.18a2.15,2.15,0,1,1-2.24,2.13A2,2,0,0,1,178.51,46.11Z" transform="translate(-3.34 -1.63)"/><path class="cls-3" d="M183.18,50.37a1.26,1.26,0,0,1-1.43-1.43v-1.7H181.1v-1h0.64V45.18H183v1.06H184v1H183v1.54c0,0.38.11,0.57,0.5,0.57a1.12,1.12,0,0,0,.39-0.06l0,1a2.69,2.69,0,0,1-.77.12" transform="translate(-3.34 -1.63)"/><path class="cls-3" d="M186.59,46.11c1.43,0,2.09,1,2,2.51h-2.92a0.91,0.91,0,0,0,1,.76,1,1,0,0,0,.89-0.42l0.92,0.58a2.09,2.09,0,0,1-1.83.86,2.15,2.15,0,1,1,0-4.29m0.8,1.68a0.84,0.84,0,0,0-1.43-.54,0.77,0.77,0,0,0-.28.54h1.71Z" transform="translate(-3.34 -1.63)"/><polyline class="cls-3" points="186.11 48.65 186.11 45.58 186.11 42.52 187.46 42.52 187.46 45.58 187.46 48.65 186.11 48.65"/><path class="cls-3" d="M195.28,47c0.79,0,1.66.08,1.66-.7s-0.91-.63-1.66-0.64V47m3-.72a1.54,1.54,0,0,1-1.19,1.55l1.5,2.45H197L195.76,48h-0.47v2.28h-1.36V44.54h2.19C197.37,44.56,198.31,45,198.31,46.27Z" transform="translate(-3.34 -1.63)"/><path class="cls-3" d="M201.1,46.11c1.43,0,2.09,1,2,2.51h-2.92a0.91,0.91,0,0,0,1,.76A1,1,0,0,0,202,49L203,49.54a2.09,2.09,0,0,1-1.83.86,2.15,2.15,0,1,1,0-4.29m0.8,1.68a0.84,0.84,0,0,0-1.43-.54,0.77,0.77,0,0,0-.28.54h1.71Z" transform="translate(-3.34 -1.63)"/><path class="cls-3" d="M203.76,47.46c0-1.59,2.44-1.65,3.3-.79l-0.73.75a1.27,1.27,0,0,0-.84-0.36c-0.23,0-.53.08-0.5,0.32,0.06,0.43.78,0.34,1.19,0.54A1.19,1.19,0,0,1,207,49c0,1.7-2.63,1.65-3.48.75l0.75-.79a1.39,1.39,0,0,0,1,.45c0.22,0,.51-0.1.48-0.35-0.06-.46-0.79-0.39-1.22-0.59a1.11,1.11,0,0,1-.75-1" transform="translate(-3.34 -1.63)"/><path class="cls-3" d="M209.75,46.11c1.43,0,2.09,1,2,2.51h-2.92a0.91,0.91,0,0,0,1,.76A1,1,0,0,0,210.7,49l0.92,0.58a2.09,2.09,0,0,1-1.83.86,2.15,2.15,0,1,1,0-4.29m0.8,1.68a0.84,0.84,0,0,0-1.43-.54,0.77,0.77,0,0,0-.28.54h1.71Z" transform="translate(-3.34 -1.63)"/><path class="cls-3" d="M213.9,46.82a1.21,1.21,0,0,1,1.38-.66l-0.06,1.17a0.94,0.94,0,0,0-1.29.87v2.07H212.6v-4h1.28a3.43,3.43,0,0,0,0,.58" transform="translate(-3.34 -1.63)"/><polyline class="cls-3" points="214.96 48.65 213.53 48.65 211.94 44.61 213.41 44.61 214.26 47.23 214.28 47.23 215.13 44.61 216.55 44.61"/><path class="cls-3" d="M222,47.1a1.54,1.54,0,0,0-1,.41l-0.67-.72a2.59,2.59,0,0,1,1.8-.68c1.38,0,1.85.76,1.85,2.13v2h-1.21V49.84h0a1.49,1.49,0,0,1-2.61-.74c0-1.21,1.34-1.33,2.59-1.36A0.62,0.62,0,0,0,222,47.1M222,49.48a0.79,0.79,0,0,0,.83-1c-0.62,0-1.41,0-1.41.55A0.47,0.47,0,0,0,222,49.48Z" transform="translate(-3.34 -1.63)"/><path class="cls-3" d="M226.49,50.37a1.26,1.26,0,0,1-1.43-1.43v-1.7h-0.65v-1H225V45.18h1.3v1.06h0.95v1h-0.95v1.54c0,0.38.11,0.57,0.5,0.57a1.12,1.12,0,0,0,.39-0.06l0,1a2.69,2.69,0,0,1-.77.12" transform="translate(-3.34 -1.63)"/><path class="cls-3" d="M227.94,50.27v-4h1.33v4h-1.33m0.66-6.05a0.7,0.7,0,0,1,.76.73,0.71,0.71,0,0,1-.76.73,0.73,0.73,0,0,1-.76-0.73A0.71,0.71,0,0,1,228.6,44.22Z" transform="translate(-3.34 -1.63)"/><path class="cls-3" d="M232.36,49.29a1,1,0,0,0,0-2.07,0.92,0.92,0,0,0-.95,1,0.93,0.93,0,0,0,1,1m0-3.18a2.15,2.15,0,1,1-2.24,2.13A2,2,0,0,1,232.35,46.11Z" transform="translate(-3.34 -1.63)"/><path class="cls-3" d="M237.95,46.13a1.42,1.42,0,0,1,1.47,1.65v2.49h-1.34v-2.2c0-.47-0.12-0.85-0.6-0.85a0.73,0.73,0,0,0-.71.87v2.19h-1.34v-4h1.29a3.15,3.15,0,0,0,0,.56,1.34,1.34,0,0,1,1.21-.67" transform="translate(-3.34 -1.63)"/><line class="cls-2" x1="246.96" y1="45.99" x2="351.76" y2="45.86"/><polygon class="cls-3" points="246.96 46.44 246.96 46.44 246.96 45.99 246.96 45.54 246.96 46.44"/><polygon class="cls-3" points="351.76 45.85 345.38 47.92 345.38 43.74 351.76 45.85"/><path class="cls-3" d="M349.17,48.92l4.5-1.44L349.17,46v2.93Zm6.26-1.85v0.77l-7.15,2.34v-5.4Z" transform="translate(-3.34 -1.63)"/><path class="cls-3" d="M264.65,38.61c0-1-1.21-.91-2.27-0.91v1.83c1.06,0,2.27.11,2.27-.92m0.81,0a1.53,1.53,0,0,1-1.39,1.51l1.6,2.63h-1l-1.46-2.55h-0.86v2.55h-0.8V37C263.4,37,265.46,36.77,265.46,38.61Z" transform="translate(-3.34 -1.63)"/><path class="cls-3" d="M268.14,38.81c1.3,0,1.9.87,1.84,2.25h-3a1.2,1.2,0,0,0,1.25,1.17,1.28,1.28,0,0,0,1.12-.58l0.53,0.43a1.92,1.92,0,0,1-1.65.79,2,2,0,0,1,0-4m1.08,1.68a1.07,1.07,0,0,0-1.54-1,1.12,1.12,0,0,0-.75,1h2.28Z" transform="translate(-3.34 -1.63)"/><path class="cls-3" d="M270.91,40.44c-0.5-1.26.95-2,2.14-1.47a1.3,1.3,0,0,1,.6.47l-0.53.45a1,1,0,0,0-.89-0.48,0.58,0.58,0,0,0-.71.5c0,0.59.92,0.51,1.39,0.73a1.08,1.08,0,0,1,.78,1c0.06,1.56-2.45,1.51-3.08.55l0.54-.46a1.24,1.24,0,0,0,1,.53,0.62,0.62,0,0,0,.76-0.56c0-.73-1.27-0.51-1.76-0.95a0.84,0.84,0,0,1-.26-0.3" transform="translate(-3.34 -1.63)"/><path class="cls-3" d="M276.45,42.76h-0.83l-1.56-3.84h0.84c0.38,1,.74,2,1.14,3l1.13-3H278" transform="translate(-3.34 -1.63)"/><path class="cls-3" d="M280,42.26a1.09,1.09,0,0,0,1.11-1.33c-0.83,0-1.9,0-1.9.73a0.65,0.65,0,0,0,.79.6m-1.56-.58c0-1.24,1.4-1.26,2.67-1.3a0.83,0.83,0,0,0-.95-0.95,1.6,1.6,0,0,0-1.09.45l-0.4-.49a2.26,2.26,0,0,1,1.57-.58,1.42,1.42,0,0,1,1.6,1.51,23.92,23.92,0,0,0,.06,2.44h-0.69a2.56,2.56,0,0,1-.06-0.55h0a1.47,1.47,0,0,1-1.29.65A1.19,1.19,0,0,1,278.45,41.67Z" transform="translate(-3.34 -1.63)"/><polyline class="cls-3" points="279.68 41.4 279.11 41.2 281.59 35.12 282.17 35.33"/><path class="cls-3" d="M285.95,40.84a1.88,1.88,0,0,1,2-2,1.82,1.82,0,0,1,1.44.63l-0.55.45a1.05,1.05,0,0,0-.88-0.44,1.39,1.39,0,0,0,0,2.77,1.1,1.1,0,0,0,.92-0.42l0.51,0.46a1.77,1.77,0,0,1-1.43.6,1.9,1.9,0,0,1-2.07-2" transform="translate(-3.34 -1.63)"/><path class="cls-3" d="M291.48,42.26a1.09,1.09,0,0,0,1.11-1.33c-0.83,0-1.9,0-1.9.73a0.65,0.65,0,0,0,.79.6m-1.56-.58c0-1.24,1.4-1.26,2.67-1.3a0.83,0.83,0,0,0-.95-0.95,1.6,1.6,0,0,0-1.09.45l-0.4-.49a2.26,2.26,0,0,1,1.57-.58,1.42,1.42,0,0,1,1.6,1.51,23.92,23.92,0,0,0,.06,2.44h-0.69a2.56,2.56,0,0,1-.06-0.55h0a1.47,1.47,0,0,1-1.29.65A1.19,1.19,0,0,1,289.92,41.67Z" transform="translate(-3.34 -1.63)"/><path class="cls-3" d="M294.59,42.76c0-1.28,0-2.61,0-3.84h0.72c0,0.16,0,.45,0,0.63h0a1.34,1.34,0,0,1,1.25-.74A1.36,1.36,0,0,1,298,40.38v2.38h-0.76V40.63c0-.68-0.19-1.17-0.87-1.17a1.11,1.11,0,0,0-1,1.26v2h-0.76" transform="translate(-3.34 -1.63)"/><path class="cls-3" d="M299.05,40.84a1.88,1.88,0,0,1,2-2,1.82,1.82,0,0,1,1.44.63l-0.55.45a1.05,1.05,0,0,0-.88-0.44,1.39,1.39,0,0,0,0,2.77A1.1,1.1,0,0,0,302,41.8l0.51,0.46a1.77,1.77,0,0,1-1.43.6,1.9,1.9,0,0,1-2.07-2" transform="translate(-3.34 -1.63)"/><path class="cls-3" d="M305,38.81c1.3,0,1.9.87,1.84,2.25h-3a1.2,1.2,0,0,0,1.25,1.17,1.28,1.28,0,0,0,1.12-.58l0.53,0.43a1.92,1.92,0,0,1-1.65.79,2,2,0,0,1,0-4m1.08,1.68a1.07,1.07,0,0,0-1.54-1,1.12,1.12,0,0,0-.75,1h2.28Z" transform="translate(-3.34 -1.63)"/><polyline class="cls-3" points="305.38 41.13 304.62 41.13 304.62 38.07 304.62 35.01 305.38 35.01 305.38 38.07 305.38 41.13"/><path class="cls-3" d="M312.46,37a0.5,0.5,0,0,1,.51.49,0.51,0.51,0,1,1-.51-0.49m0.38,5.72h-0.76V38.92h0.76v3.84Z" transform="translate(-3.34 -1.63)"/><path class="cls-3" d="M314.17,42.76c0-1.28,0-2.61,0-3.84h0.72c0,0.16,0,.45,0,0.63h0a1.34,1.34,0,0,1,1.25-.74,1.36,1.36,0,0,1,1.43,1.56v2.38h-0.76V40.63c0-.68-0.19-1.17-0.87-1.17a1.11,1.11,0,0,0-1,1.26v2h-0.76" transform="translate(-3.34 -1.63)"/><path class="cls-3" d="M320.48,37.19c-0.83,0-.66.93-0.68,1.73h0.89v0.62H319.8v3.22H319V39.54h-0.76V38.92H319v-0.8a1.42,1.42,0,0,1,1.91-1.52l-0.09.66a1.35,1.35,0,0,0-.38-0.06" transform="translate(-3.34 -1.63)"/><path class="cls-3" d="M323.21,42.22a1.39,1.39,0,1,0-1.28-1.39,1.24,1.24,0,0,0,1.28,1.39m0-3.41a2,2,0,1,1-2.07,2A1.9,1.9,0,0,1,323.21,38.81Z" transform="translate(-3.34 -1.63)"/><line class="cls-2" x1="237.2" y1="74.84" x2="351.63" y2="73.89"/><polygon class="cls-3" points="237.19 75.28 236.25 75.33 236.52 75.02 236.97 74.39 237.19 74.39 237.19 75.28"/><polygon class="cls-3" points="351.63 73.89 345.19 76 345.19 71.86 351.63 73.89"/><path class="cls-3" d="M349,77l4.5-1.48L349,74.08V77Zm6.43-1.84v0.67l-7.29,2.43,0-5.4Z" transform="translate(-3.34 -1.63)"/><rect class="cls-4" x="249.57" y="63.49" width="43.65" height="22.1"/><path class="cls-3" d="M258.54,72.87a4.37,4.37,0,0,1-3.39.28,3,3,0,0,1,1.22-5.8,2.91,2.91,0,0,1,2.12.75l-0.56.58a2,2,0,0,0-1.56-.62,2.3,2.3,0,0,0,0,4.6,2.66,2.66,0,0,0,1.34-.28v-1.6h-1.27V70.09h2.07v2.78" transform="translate(-3.34 -1.63)"/><path class="cls-3" d="M263.27,69.38c0,1.28,0,2.61,0,3.84h-0.72c0-.16,0-0.49,0-0.63a1.41,1.41,0,0,1-1.26.74,1.36,1.36,0,0,1-1.43-1.56V69.38h0.76v2.12c0,0.68.19,1.18,0.87,1.18a1.11,1.11,0,0,0,1-1.26v-2h0.76" transform="translate(-3.34 -1.63)"/><path class="cls-3" d="M266.32,69.28c1.3,0,1.9.87,1.84,2.25h-3a1.2,1.2,0,0,0,1.25,1.17,1.28,1.28,0,0,0,1.12-.58L268,72.54a1.92,1.92,0,0,1-1.65.79,2,2,0,0,1,0-4M267.4,71a1.07,1.07,0,0,0-1.54-1,1.12,1.12,0,0,0-.75,1h2.28Z" transform="translate(-3.34 -1.63)"/><path class="cls-3" d="M269.09,70.91c-0.5-1.26.95-2,2.14-1.47a1.3,1.3,0,0,1,.6.47l-0.53.45a1,1,0,0,0-.89-0.48,0.58,0.58,0,0,0-.71.5c0,0.59.92,0.51,1.39,0.73a1.08,1.08,0,0,1,.78,1c0.06,1.56-2.45,1.51-3.08.55l0.54-.46a1.24,1.24,0,0,0,1,.53,0.62,0.62,0,0,0,.76-0.56c0-.73-1.27-0.51-1.76-0.95a0.84,0.84,0,0,1-.26-0.3" transform="translate(-3.34 -1.63)"/><path class="cls-3" d="M274,73.29a1,1,0,0,1-1.12-1.2V70h-0.74V69.38h0.74v-1.1h0.75v1.1h1V70h-1v2c0,0.44.13,0.64,0.54,0.65a1.09,1.09,0,0,0,.45-0.1l0,0.62a1.94,1.94,0,0,1-.65.11" transform="translate(-3.34 -1.63)"/><path class="cls-3" d="M277.9,67.5a0.5,0.5,0,0,1,.51.49,0.51,0.51,0,1,1-.51-0.49m0.38,5.72h-0.76V69.38h0.76v3.84Z" transform="translate(-3.34 -1.63)"/><path class="cls-3" d="M279.61,73.22c0-1.28,0-2.61,0-3.84h0.72c0,0.16,0,.45,0,0.63h0a1.34,1.34,0,0,1,1.25-.74A1.36,1.36,0,0,1,283,70.84v2.38h-0.76V71.09c0-.68-0.19-1.17-0.87-1.17a1.11,1.11,0,0,0-1,1.26v2h-0.76" transform="translate(-3.34 -1.63)"/><path class="cls-3" d="M285.92,67.66c-0.83,0-.66.93-0.68,1.73h0.89V70h-0.89v3.22h-0.76V70h-0.76V69.38h0.76v-0.8a1.42,1.42,0,0,1,1.91-1.52l-0.09.66a1.35,1.35,0,0,0-.38-0.06" transform="translate(-3.34 -1.63)"/><path class="cls-3" d="M288.65,72.69a1.39,1.39,0,1,0-1.28-1.39,1.24,1.24,0,0,0,1.28,1.39m0-3.41a2,2,0,1,1-2.07,2A1.9,1.9,0,0,1,288.65,69.28Z" transform="translate(-3.34 -1.63)"/><path class="cls-3" d="M253.85,80.41c0.3,1,.57,2,0.88,2.93l0.92-2.93h0.8c0.32,1,.61,2,0.95,2.93l0.87-2.93h0.8l-1.27,3.84H257c-0.32-1-.62-1.94-1-2.88l-0.94,2.88h-0.79L253,80.41h0.83" transform="translate(-3.34 -1.63)"/><path class="cls-3" d="M261.11,83.75a1.09,1.09,0,0,0,1.11-1.33c-0.83,0-1.9,0-1.9.73a0.65,0.65,0,0,0,.79.6m-1.56-.58c0-1.24,1.4-1.26,2.67-1.3a0.83,0.83,0,0,0-.95-0.95,1.6,1.6,0,0,0-1.09.45l-0.4-.49a2.26,2.26,0,0,1,1.57-.58,1.42,1.42,0,0,1,1.6,1.51,23.92,23.92,0,0,0,.06,2.44h-0.69a2.56,2.56,0,0,1-.06-0.55h0a1.47,1.47,0,0,1-1.29.65A1.19,1.19,0,0,1,259.55,83.16Z" transform="translate(-3.34 -1.63)"/><path class="cls-3" d="M264.61,78.53a0.5,0.5,0,0,1,.51.49,0.51,0.51,0,1,1-.51-0.49M265,84.25h-0.76V80.41H265v3.84Z" transform="translate(-3.34 -1.63)"/><path class="cls-3" d="M267.54,84.31a1,1,0,0,1-1.12-1.2V81h-0.74V80.41h0.74v-1.1h0.75v1.1h1V81h-1v2c0,0.44.13,0.64,0.54,0.65a1.09,1.09,0,0,0,.45-0.1l0,0.62a1.94,1.94,0,0,1-.65.11" transform="translate(-3.34 -1.63)"/><path class="cls-3" d="M269.37,78.53a0.5,0.5,0,0,1,.51.49,0.51,0.51,0,1,1-.51-0.49m0.38,5.72H269V80.41h0.76v3.84Z" transform="translate(-3.34 -1.63)"/><path class="cls-3" d="M271.08,84.25c0-1.28,0-2.61,0-3.84h0.72c0,0.16,0,.45,0,0.63h0a1.34,1.34,0,0,1,1.25-.74,1.36,1.36,0,0,1,1.43,1.56v2.38h-0.76V82.12c0-.68-0.19-1.17-0.87-1.17a1.11,1.11,0,0,0-1,1.26v2h-0.76" transform="translate(-3.34 -1.63)"/><path class="cls-3" d="M277.6,80.94a1.36,1.36,0,0,0,0,2.71,1.35,1.35,0,0,0,0-2.71m2,3.12a1.92,1.92,0,0,1-2.12,2.14,2.81,2.81,0,0,1-1.88-.7l0.49-.59a2,2,0,0,0,1.4.62c1.1,0,1.47-.77,1.34-1.91a1.56,1.56,0,0,1-1.35.66,2,2,0,0,1,0-4,1.63,1.63,0,0,1,1.4.72V80.41h0.74v3.64Z" transform="translate(-3.34 -1.63)"/><path class="cls-3" d="M283.3,78.53a0.5,0.5,0,0,1,.51.49,0.51,0.51,0,1,1-.51-0.49m0.38,5.72h-0.76V80.41h0.76v3.84Z" transform="translate(-3.34 -1.63)"/><path class="cls-3" d="M285,84.25c0-1.28,0-2.61,0-3.84h0.72c0,0.16,0,.45,0,0.63h0A1.34,1.34,0,0,1,287,80.3a1.36,1.36,0,0,1,1.43,1.56v2.38h-0.76V82.12c0-.68-0.19-1.17-0.87-1.17a1.11,1.11,0,0,0-1,1.26v2H285" transform="translate(-3.34 -1.63)"/><path class="cls-3" d="M291.32,78.68c-0.83,0-.66.93-0.68,1.73h0.89V81h-0.89v3.22h-0.76V81h-0.76V80.41h0.76v-0.8a1.42,1.42,0,0,1,1.91-1.52l-0.09.66a1.35,1.35,0,0,0-.38-0.06" transform="translate(-3.34 -1.63)"/><path class="cls-3" d="M294,83.71a1.39,1.39,0,1,0-1.28-1.39A1.24,1.24,0,0,0,294,83.71m0-3.41a2,2,0,1,1-2.07,2A1.9,1.9,0,0,1,294,80.3Z" transform="translate(-3.34 -1.63)"/><line class="cls-2" x1="351.63" y1="18.49" x2="238.27" y2="18.49"/><rect class="cls-3" x="351.63" y="18.05" width="0.45" height="0.9"/><polygon class="cls-3" points="244.71 20.57 238.28 18.5 244.71 16.43 244.71 20.57"/><path class="cls-3" d="M243.1,20.12l4.5,1.49v-3Zm5.4,2.7-7.15-2.29-0.45-.63,7.6-2.47v5.4Z" transform="translate(-3.34 -1.63)"/><path class="cls-3" d="M282.19,13.23A2.08,2.08,0,0,1,280,15.5a2.06,2.06,0,0,1-2.23-2.27V9.62h0.8v3.56a1.43,1.43,0,1,0,2.85,0V9.62h0.8v3.61" transform="translate(-3.34 -1.63)"/><path class="cls-3" d="M285.52,14.82a1.24,1.24,0,0,0,1.28-1.39A1.23,1.23,0,0,0,285.52,12a1.26,1.26,0,0,0-1.3,1.39,1.25,1.25,0,0,0,1.3,1.39m0.13,0.64a1.59,1.59,0,0,1-1.35-.68h0V17.3h-0.76V11.51h0.75v0.6h0a1.54,1.54,0,0,1,1.39-.7,1.85,1.85,0,0,1,1.92,2A1.84,1.84,0,0,1,285.64,15.46Z" transform="translate(-3.34 -1.63)"/><polyline class="cls-3" points="285.2 13.99 284.63 13.8 287.11 7.71 287.69 7.92"/><path class="cls-3" d="M293.53,12a1.23,1.23,0,0,0-1.27,1.39,1.23,1.23,0,0,0,1.27,1.39,1.25,1.25,0,0,0,1.3-1.39,1.26,1.26,0,0,0-1.3-1.39m-0.14-.63a1.7,1.7,0,0,1,1.39.68V9.23h0.76v6.12H294.8a3.73,3.73,0,0,0,0-.61,1.6,1.6,0,0,1-1.39.71,1.84,1.84,0,0,1-1.94-2A1.86,1.86,0,0,1,293.39,11.41Z" transform="translate(-3.34 -1.63)"/><path class="cls-3" d="M298.68,14.82A1.24,1.24,0,0,0,300,13.43a1.28,1.28,0,1,0-2.56,0,1.24,1.24,0,0,0,1.28,1.39m0-3.41a1.9,1.9,0,0,1,2.07,2,2.07,2.07,0,0,1-4.14,0A1.89,1.89,0,0,1,298.68,11.41Z" transform="translate(-3.34 -1.63)"/><path class="cls-3" d="M302.09,11.51c0.3,1,.57,2,0.88,2.93l0.92-2.93h0.8c0.32,1,.61,2,0.95,2.93l0.87-2.93h0.8L306,15.35h-0.79c-0.32-1-.62-1.94-1-2.88l-0.94,2.88h-0.79l-1.28-3.84h0.83" transform="translate(-3.34 -1.63)"/><path class="cls-3" d="M308.07,15.35c0-1.28,0-2.61,0-3.84h0.72c0,0.16,0,.45,0,0.63h0a1.34,1.34,0,0,1,1.25-.74A1.36,1.36,0,0,1,311.49,13v2.38h-0.76V13.22c0-.68-0.19-1.17-0.87-1.17a1.11,1.11,0,0,0-1,1.26v2h-0.76" transform="translate(-3.34 -1.63)"/><path class="cls-3" d="M316.58,12.06a1.12,1.12,0,0,0-1,1.26v2h-0.76V9.23h0.76c0,0.95,0,1.94,0,2.87a1.35,1.35,0,0,1,1.21-.69A1.37,1.37,0,0,1,318.21,13v2.38h-0.76V13.23c0-.67-0.19-1.17-0.87-1.17" transform="translate(-3.34 -1.63)"/><path class="cls-3" d="M321.31,14.82a1.24,1.24,0,0,0,1.28-1.39,1.28,1.28,0,1,0-2.56,0,1.24,1.24,0,0,0,1.28,1.39m0-3.41a1.9,1.9,0,0,1,2.07,2,2.07,2.07,0,0,1-4.14,0A1.89,1.89,0,0,1,321.31,11.41Z" transform="translate(-3.34 -1.63)"/><path class="cls-3" d="M325.66,15.42a1,1,0,0,1-1.12-1.2V12.14h-0.74V11.51h0.74v-1.1h0.75v1.1h1v0.62h-1v2c0,0.44.13,0.64,0.54,0.65a1.09,1.09,0,0,0,.45-0.1l0,0.62a1.94,1.94,0,0,1-.65.11" transform="translate(-3.34 -1.63)"/><path class="cls-3" d="M328.84,11.41c1.3,0,1.9.87,1.84,2.25h-3a1.2,1.2,0,0,0,1.25,1.17,1.28,1.28,0,0,0,1.12-.58l0.53,0.43a1.92,1.92,0,0,1-1.65.79,1.86,1.86,0,0,1-2-2,1.86,1.86,0,0,1,2-2m1.08,1.68a1.07,1.07,0,0,0-1.54-1,1.12,1.12,0,0,0-.75,1h2.28Z" transform="translate(-3.34 -1.63)"/><polyline class="cls-3" points="329.18 13.72 328.42 13.72 328.42 10.66 328.42 7.6 329.18 7.6 329.18 10.66 329.18 13.72"/><path class="cls-3" d="M336.26,9.63a0.5,0.5,0,0,1,.51.49,0.51,0.51,0,1,1-.51-0.49m0.38,5.72h-0.76V11.51h0.76v3.84Z" transform="translate(-3.34 -1.63)"/><path class="cls-3" d="M338,15.35c0-1.28,0-2.61,0-3.84h0.72c0,0.16,0,.45,0,0.63h0a1.34,1.34,0,0,1,1.25-.74A1.36,1.36,0,0,1,341.4,13v2.38h-0.76V13.22c0-.68-0.19-1.17-0.87-1.17a1.11,1.11,0,0,0-1,1.26v2H338" transform="translate(-3.34 -1.63)"/><path class="cls-3" d="M344.28,9.79c-0.83,0-.66.93-0.68,1.73h0.89v0.62H343.6v3.22h-0.76V12.14h-0.76V11.51h0.76v-0.8a1.42,1.42,0,0,1,1.91-1.52l-0.09.66a1.35,1.35,0,0,0-.38-0.06" transform="translate(-3.34 -1.63)"/><path class="cls-3" d="M347,14.82a1.24,1.24,0,0,0,1.28-1.39,1.28,1.28,0,1,0-2.56,0A1.24,1.24,0,0,0,347,14.82m0-3.41a1.9,1.9,0,0,1,2.07,2,2.07,2.07,0,0,1-4.14,0A1.89,1.89,0,0,1,347,11.41Z" transform="translate(-3.34 -1.63)"/><line class="cls-2" x1="58.63" y1="19.08" x2="164.11" y2="19.08"/><rect class="cls-3" x="58.32" y="18.63" width="0.32" height="0.9"/><polygon class="cls-3" points="164.12 19.08 157.72 21.15 157.72 16.96 164.12 19.08"/><path class="cls-3" d="M161.52,22.15l4.5-1.44-4.5-1.48v2.92Zm6.66-1.71-0.45.63-7.11,2.34V18Z" transform="translate(-3.34 -1.63)"/><polyline class="cls-3" points="66.57 14.27 65.77 14.27 65.77 11.4 65.77 8.53 69.35 8.53 69.35 8.88 69.35 9.23 66.57 9.23 66.57 10.13 66.57 11.02 69.17 11.02 69.17 11.36 69.17 11.71 66.57 11.71 66.57 12.98 66.57 14.27"/><path class="cls-3" d="M74.06,10.17a0.5,0.5,0,0,1,.51.49,0.51,0.51,0,1,1-.51-0.49m0.38,5.72H73.68V12.05h0.76v3.84Z" transform="translate(-3.34 -1.63)"/><polyline class="cls-3" points="73.2 14.27 72.44 14.27 72.44 11.2 72.44 8.14 73.2 8.14 73.2 11.2 73.2 14.27"/><polyline class="cls-3" points="75.31 14.27 74.55 14.27 74.55 11.2 74.55 8.14 75.31 8.14 75.31 11.2 75.31 14.27"/><path class="cls-3" d="M81.73,14a1.88,1.88,0,0,1,2-2,1.82,1.82,0,0,1,1.44.63L84.67,13a1.05,1.05,0,0,0-.88-0.44A1.24,1.24,0,0,0,82.54,14a1.24,1.24,0,0,0,1.26,1.39,1.1,1.1,0,0,0,.92-0.42l0.51,0.46a1.77,1.77,0,0,1-1.43.6,1.9,1.9,0,0,1-2.07-2" transform="translate(-3.34 -1.63)"/><path class="cls-3" d="M87.27,15.39a1.09,1.09,0,0,0,1.11-1.33c-0.83,0-1.9,0-1.9.73a0.65,0.65,0,0,0,.79.6m-1.56-.58c0-1.24,1.4-1.26,2.67-1.3a0.83,0.83,0,0,0-.95-0.95,1.6,1.6,0,0,0-1.09.45l-0.4-.49a2.26,2.26,0,0,1,1.57-.58,1.42,1.42,0,0,1,1.6,1.51,23.92,23.92,0,0,0,.06,2.44H88.47a2.56,2.56,0,0,1-.06-0.55h0A1.47,1.47,0,0,1,87.1,16,1.19,1.19,0,0,1,85.7,14.81Z" transform="translate(-3.34 -1.63)"/><path class="cls-3" d="M90.38,15.89c0-1.28,0-2.61,0-3.84h0.72c0,0.16,0,.45,0,0.63h0a1.34,1.34,0,0,1,1.25-.74,1.36,1.36,0,0,1,1.43,1.56v2.38H93V13.76c0-.68-0.19-1.17-0.87-1.17a1.11,1.11,0,0,0-1,1.26v2H90.38" transform="translate(-3.34 -1.63)"/><path class="cls-3" d="M94.84,14a1.88,1.88,0,0,1,2-2,1.82,1.82,0,0,1,1.44.63L97.78,13a1.05,1.05,0,0,0-.88-0.44A1.24,1.24,0,0,0,95.64,14a1.24,1.24,0,0,0,1.26,1.39,1.1,1.1,0,0,0,.92-0.42l0.51,0.46a1.77,1.77,0,0,1-1.43.6,1.9,1.9,0,0,1-2.07-2" transform="translate(-3.34 -1.63)"/><path class="cls-3" d="M100.83,11.95c1.3,0,1.9.87,1.84,2.25h-3a1.2,1.2,0,0,0,1.25,1.17,1.28,1.28,0,0,0,1.12-.58l0.53,0.43a1.92,1.92,0,0,1-1.65.79,1.86,1.86,0,0,1-2-2,1.86,1.86,0,0,1,2-2m1.08,1.68a1.07,1.07,0,0,0-1.54-1,1.12,1.12,0,0,0-.75,1h2.28Z" transform="translate(-3.34 -1.63)"/><polyline class="cls-3" points="101.17 14.27 100.41 14.27 100.41 11.2 100.41 8.14 101.17 8.14 101.17 11.2 101.17 14.27"/><polyline class="cls-3" points="103.27 14.27 102.51 14.27 102.51 11.2 102.51 8.14 103.27 8.14 103.27 11.2 103.27 14.27"/><path class="cls-3" d="M109.22,15.39a1.09,1.09,0,0,0,1.11-1.33c-0.83,0-1.9,0-1.9.73a0.65,0.65,0,0,0,.79.6m-1.56-.58c0-1.24,1.4-1.26,2.67-1.3a0.83,0.83,0,0,0-.95-0.95,1.6,1.6,0,0,0-1.09.45l-0.4-.49a2.26,2.26,0,0,1,1.57-.58,1.42,1.42,0,0,1,1.6,1.51,23.92,23.92,0,0,0,.06,2.44h-0.69a2.56,2.56,0,0,1-.06-0.55h0a1.47,1.47,0,0,1-1.29.65A1.19,1.19,0,0,1,107.66,14.81Z" transform="translate(-3.34 -1.63)"/><path class="cls-3" d="M113.48,16a1,1,0,0,1-1.12-1.2V12.68h-0.74V12.05h0.74V11h0.75v1.1h1v0.62h-1v2c0,0.44.13,0.64,0.54,0.65a1.09,1.09,0,0,0,.45-0.1l0,0.62a1.94,1.94,0,0,1-.65.11" transform="translate(-3.34 -1.63)"/><path class="cls-3" d="M115.31,10.17a0.5,0.5,0,0,1,.51.49,0.51,0.51,0,1,1-.51-0.49m0.38,5.72h-0.76V12.05h0.76v3.84Z" transform="translate(-3.34 -1.63)"/><path class="cls-3" d="M118.83,15.36A1.24,1.24,0,0,0,120.11,14a1.28,1.28,0,1,0-2.56,0,1.24,1.24,0,0,0,1.28,1.39m0-3.41a1.9,1.9,0,0,1,2.07,2,2.07,2.07,0,0,1-4.14,0A1.89,1.89,0,0,1,118.83,11.95Z" transform="translate(-3.34 -1.63)"/><path class="cls-3" d="M122,15.89c0-1.28,0-2.61,0-3.84h0.72c0,0.16,0,.45,0,0.63h0a1.34,1.34,0,0,1,1.25-.74,1.36,1.36,0,0,1,1.43,1.56v2.38h-0.76V13.76c0-.68-0.19-1.17-0.87-1.17a1.11,1.11,0,0,0-1,1.26v2H122" transform="translate(-3.34 -1.63)"/><path class="cls-3" d="M130.29,10.33c-0.83,0-.66.93-0.68,1.73h0.89v0.62h-0.89v3.22h-0.76V12.68h-0.76V12.05h0.76v-0.8a1.42,1.42,0,0,1,1.91-1.52l-0.09.66a1.35,1.35,0,0,0-.38-0.06" transform="translate(-3.34 -1.63)"/><path class="cls-3" d="M133,15.36A1.24,1.24,0,0,0,134.3,14a1.28,1.28,0,1,0-2.56,0A1.24,1.24,0,0,0,133,15.36m0-3.41a1.9,1.9,0,0,1,2.07,2A2.07,2.07,0,0,1,131,14,1.89,1.89,0,0,1,133,11.95Z" transform="translate(-3.34 -1.63)"/><path class="cls-3" d="M136.15,15.89c0-1.28,0-2.61,0-3.84h0.72c0,0.16,0,.48,0,0.65h0a1.3,1.3,0,0,1,1.47-.72l0,0.7a1.1,1.1,0,0,0-1.43,1.19v2h-0.76" transform="translate(-3.34 -1.63)"/><path class="cls-3" d="M139.82,12.69a1.34,1.34,0,0,1,1.22-.74,1.2,1.2,0,0,1,1.19.77,1.41,1.41,0,0,1,1.3-.77A1.36,1.36,0,0,1,145,13.51v2.38h-0.76V13.76c0-.66-0.19-1.17-0.85-1.17-1.39,0-.87,2-1,3.3h-0.76V13.61a0.83,0.83,0,0,0-.81-1,1.11,1.11,0,0,0-1,1.26v2h-0.76c0-1.28,0-2.61,0-3.84h0.72c0,0.16,0,.45,0,0.63h0" transform="translate(-3.34 -1.63)"/><line class="cls-2" x1="58.32" y1="46.67" x2="155.88" y2="46.22"/><polygon class="cls-3" points="58.32 47.12 58.32 47.12 58.32 46.66 58.32 47.12"/><polygon class="cls-3" points="155.88 46.22 149.44 48.33 149.44 44.15 155.88 46.22"/><path class="cls-3" d="M153.24,49.33l4.5-1.48-4.5-1.44v2.92Zm6-2v0.95l-6.88,2.29V45.14Z" transform="translate(-3.34 -1.63)"/><polyline class="cls-3" points="65.13 41.67 64.33 41.67 64.33 38.8 64.33 35.94 67.91 35.94 67.91 36.29 67.91 36.64 65.13 36.64 65.13 37.53 65.13 38.42 67.73 38.42 67.73 38.77 67.73 39.11 65.13 39.11 65.13 40.39 65.13 41.67"/><path class="cls-3" d="M72.62,37.58a0.5,0.5,0,0,1,.51.49,0.51,0.51,0,1,1-.51-0.49M73,43.3H72.24V39.46H73V43.3Z" transform="translate(-3.34 -1.63)"/><polyline class="cls-3" points="71.76 41.67 71 41.67 71 38.61 71 35.55 71.76 35.55 71.76 38.61 71.76 41.67"/><polyline class="cls-3" points="73.87 41.67 73.11 41.67 73.11 38.61 73.11 35.55 73.87 35.55 73.87 38.61 73.87 41.67"/><path class="cls-3" d="M80.54,43.3c0-1.28,0-2.61,0-3.84h0.72c0,0.16,0,.48,0,0.65h0a1.3,1.3,0,0,1,1.47-.72l0,0.7a1.1,1.1,0,0,0-1.43,1.19v2H80.54" transform="translate(-3.34 -1.63)"/><path class="cls-3" d="M85.06,39.35c1.3,0,1.9.87,1.84,2.25h-3a1.2,1.2,0,0,0,1.25,1.17,1.28,1.28,0,0,0,1.12-.58l0.53,0.43a1.92,1.92,0,0,1-1.65.79,2,2,0,0,1,0-4M86.14,41a1.07,1.07,0,0,0-1.54-1,1.12,1.12,0,0,0-.75,1h2.28Z" transform="translate(-3.34 -1.63)"/><path class="cls-3" d="M87.83,41c-0.5-1.26.95-2,2.14-1.47a1.3,1.3,0,0,1,.6.47L90,40.43A1,1,0,0,0,89.16,40a0.58,0.58,0,0,0-.71.5c0,0.59.92,0.51,1.39,0.73a1.08,1.08,0,0,1,.78,1c0.06,1.56-2.45,1.51-3.08.55l0.54-.46a1.24,1.24,0,0,0,1,.53,0.62,0.62,0,0,0,.76-0.56c0-.73-1.27-0.51-1.76-0.95a0.84,0.84,0,0,1-.26-0.3" transform="translate(-3.34 -1.63)"/><path class="cls-3" d="M93.3,39.35c1.3,0,1.9.87,1.84,2.25h-3a1.2,1.2,0,0,0,1.25,1.17,1.28,1.28,0,0,0,1.12-.58L95,42.62a1.92,1.92,0,0,1-1.65.79,2,2,0,0,1,0-4M94.38,41a1.07,1.07,0,0,0-1.54-1,1.12,1.12,0,0,0-.75,1h2.28Z" transform="translate(-3.34 -1.63)"/><path class="cls-3" d="M96.21,43.3c0-1.28,0-2.61,0-3.84H96.9c0,0.16,0,.48,0,0.65h0a1.3,1.3,0,0,1,1.47-.72l0,0.7A1.1,1.1,0,0,0,97,41.28v2H96.21" transform="translate(-3.34 -1.63)"/><path class="cls-3" d="M100.95,43.3h-0.83l-1.56-3.84H99.4c0.38,1,.74,2,1.14,3l1.13-3h0.81" transform="translate(-3.34 -1.63)"/><path class="cls-3" d="M104.5,42.8a1.09,1.09,0,0,0,1.11-1.33c-0.83,0-1.9,0-1.9.73a0.65,0.65,0,0,0,.79.6m-1.56-.58c0-1.24,1.4-1.26,2.67-1.3a0.83,0.83,0,0,0-.95-0.95,1.6,1.6,0,0,0-1.09.45l-0.4-.49a2.26,2.26,0,0,1,1.57-.58,1.42,1.42,0,0,1,1.6,1.51,23.92,23.92,0,0,0,.06,2.44h-0.69a2.56,2.56,0,0,1-.06-0.55h0a1.47,1.47,0,0,1-1.29.65A1.19,1.19,0,0,1,102.94,42.21Z" transform="translate(-3.34 -1.63)"/><path class="cls-3" d="M108.76,43.36a1,1,0,0,1-1.12-1.2V40.08H106.9V39.46h0.74v-1.1h0.75v1.1h1v0.62h-1v2c0,0.44.13,0.64,0.54,0.65a1.09,1.09,0,0,0,.45-0.1l0,0.62a1.94,1.94,0,0,1-.65.11" transform="translate(-3.34 -1.63)"/><path class="cls-3" d="M110.59,37.58a0.5,0.5,0,0,1,.51.49,0.51,0.51,0,1,1-.51-0.49M111,43.3h-0.76V39.46H111V43.3Z" transform="translate(-3.34 -1.63)"/><path class="cls-3" d="M114.11,42.76a1.39,1.39,0,1,0-1.28-1.39,1.24,1.24,0,0,0,1.28,1.39m0-3.41a2,2,0,1,1-2.07,2A1.9,1.9,0,0,1,114.11,39.35Z" transform="translate(-3.34 -1.63)"/><path class="cls-3" d="M117.24,43.3c0-1.28,0-2.61,0-3.84h0.72c0,0.16,0,.45,0,0.63h0a1.34,1.34,0,0,1,1.25-.74,1.36,1.36,0,0,1,1.43,1.56V43.3H119.9V41.17c0-.68-0.19-1.17-0.87-1.17a1.11,1.11,0,0,0-1,1.26v2h-0.76" transform="translate(-3.34 -1.63)"/><path class="cls-3" d="M125.57,37.73c-0.83,0-.66.93-0.68,1.73h0.89v0.62h-0.89V43.3h-0.76V40.08h-0.76V39.46h0.76v-0.8A1.42,1.42,0,0,1,126,37.13l-0.09.66a1.35,1.35,0,0,0-.38-0.06" transform="translate(-3.34 -1.63)"/><path class="cls-3" d="M128.3,42.76A1.39,1.39,0,1,0,127,41.37a1.24,1.24,0,0,0,1.28,1.39m0-3.41a2,2,0,1,1-2.07,2A1.9,1.9,0,0,1,128.3,39.35Z" transform="translate(-3.34 -1.63)"/><path class="cls-3" d="M131.42,43.3c0-1.28,0-2.61,0-3.84h0.72c0,0.16,0,.48,0,0.65h0a1.3,1.3,0,0,1,1.47-.72l0,0.7a1.1,1.1,0,0,0-1.43,1.19v2h-0.76" transform="translate(-3.34 -1.63)"/><path class="cls-3" d="M135.1,40.09a1.34,1.34,0,0,1,1.22-.74,1.2,1.2,0,0,1,1.19.77,1.41,1.41,0,0,1,1.3-.77,1.36,1.36,0,0,1,1.43,1.56V43.3h-0.76V41.17c0-.66-0.19-1.17-0.85-1.17-1.39,0-.87,2-1,3.3h-0.76V41a0.83,0.83,0,0,0-.81-1,1.11,1.11,0,0,0-1,1.26v2h-0.76c0-1.28,0-2.61,0-3.84H135c0,0.16,0,.45,0,0.63h0" transform="translate(-3.34 -1.63)"/><line class="cls-2" x1="165.73" y1="75.02" x2="58.77" y2="75.02"/><polygon class="cls-3" points="166 74.66 166.68 75.47 165.74 75.47 165.74 74.56 165.91 74.56 166 74.66"/><polygon class="cls-3" points="65.2 77.08 58.77 75.02 65.2 72.9 65.2 77.08"/><path class="cls-3" d="M63.55,76.64l4.54,1.44V75.16ZM69,79.34L61.66,77V76.28L69,73.94v5.4Z" transform="translate(-3.34 -1.63)"/><path class="cls-3" d="M122.45,67.68c0-1-1.21-.91-2.27-0.91V68.6c1.06,0,2.27.11,2.27-.92m0.81,0a1.53,1.53,0,0,1-1.39,1.51l1.6,2.63h-1L121,69.28h-0.86v2.55h-0.8V66.09C121.2,66.09,123.26,65.84,123.26,67.68Z" transform="translate(-3.34 -1.63)"/><path class="cls-3" d="M126,71.29a1.39,1.39,0,1,0-1.28-1.39A1.24,1.24,0,0,0,126,71.29m0-3.41a2,2,0,1,1-2.07,2A1.9,1.9,0,0,1,126,67.88Z" transform="translate(-3.34 -1.63)"/><path class="cls-3" d="M131,71.29a1.39,1.39,0,1,0-1.28-1.39A1.24,1.24,0,0,0,131,71.29m0-3.41a2,2,0,1,1-2.07,2A1.9,1.9,0,0,1,131,67.88Z" transform="translate(-3.34 -1.63)"/><path class="cls-3" d="M134.84,68.62a1.34,1.34,0,0,1,1.22-.74,1.2,1.2,0,0,1,1.19.77,1.41,1.41,0,0,1,1.3-.77A1.36,1.36,0,0,1,140,69.45v2.38h-0.76V69.7c0-.66-0.19-1.17-0.85-1.17-1.39,0-.87,2-1,3.3h-0.76V69.54a0.83,0.83,0,0,0-.81-1,1.11,1.11,0,0,0-1,1.26v2H134.1c0-1.28,0-2.61,0-3.84h0.72c0,0.16,0,.45,0,0.63h0" transform="translate(-3.34 -1.63)"/><path class="cls-3" d="M143.66,66.11a0.5,0.5,0,0,1,.51.49,0.51,0.51,0,1,1-.51-0.49M144,71.83h-0.76V68H144v3.84Z" transform="translate(-3.34 -1.63)"/><path class="cls-3" d="M145.37,71.83c0-1.28,0-2.61,0-3.84h0.72c0,0.16,0,.45,0,0.63h0a1.34,1.34,0,0,1,1.25-.74,1.36,1.36,0,0,1,1.43,1.56v2.38H148V69.7c0-.68-0.19-1.17-0.87-1.17a1.11,1.11,0,0,0-1,1.26v2h-0.76" transform="translate(-3.34 -1.63)"/><path class="cls-3" d="M151.68,66.26c-0.83,0-.66.93-0.68,1.73h0.89v0.62H151v3.22h-0.76V68.61h-0.76V68h0.76v-0.8a1.42,1.42,0,0,1,1.91-1.52l-0.09.66a1.35,1.35,0,0,0-.38-0.06" transform="translate(-3.34 -1.63)"/><path class="cls-3" d="M154.41,71.29a1.39,1.39,0,1,0-1.28-1.39,1.24,1.24,0,0,0,1.28,1.39m0-3.41a2,2,0,1,1-2.07,2A1.9,1.9,0,0,1,154.41,67.88Z" transform="translate(-3.34 -1.63)"/></svg>