<svg id="Layer_1" data-name="Layer 1" xmlns="http://www.w3.org/2000/svg" viewBox="0 0 407.66 408.64"><defs><style>.cls-1{fill:none;stroke:#3d4752;stroke-miterlimit:10;stroke-width:0.72px;}.cls-2{fill:#3d4752;}.cls-3{fill:#f7bcae;}</style></defs><title>data-flow-diagram-5</title><line class="cls-1" x1="230.54" y1="90.97" x2="235.69" y2="117.36"/><path class="cls-2" d="M232.42,93.09l-0.32.07h-0.4l-0.18-1,0.72-.14Zm-0.68.14,0-.07h0.4Z" transform="translate(-1.55 -2.19)"/><polygon class="cls-2" points="235.69 117.36 233.06 112.64 236.34 112 235.69 117.36"/><path class="cls-2" d="M235.19,115.09L237,118.4l0.47-3.78Zm2.45,4.39h0l-0.72.14-2.81-5,4.25-.83Z" transform="translate(-1.55 -2.19)"/><circle class="cls-3" cx="116.6" cy="120.85" r="32.4"/><circle class="cls-1" cx="116.6" cy="120.85" r="32.4"/><path class="cls-2" d="M99.27,120.92a1.79,1.79,0,1,0,1.68,1.79,1.62,1.62,0,0,0-1.68-1.79m2.37,1.79a2.08,2.08,0,0,1-.95,1.81H102v0.54h-2.7a2.36,2.36,0,0,1-.95-4.53,2.66,2.66,0,0,1,1.9,0A2.23,2.23,0,0,1,101.64,122.71Z" transform="translate(-1.55 -2.19)"/><path class="cls-2" d="M105.28,122c0,1,0,2.09,0,3.07h-0.58c0-.13,0-0.39,0-0.51a1.13,1.13,0,0,1-1,.59,1.09,1.09,0,0,1-1.15-1.25V122h0.61v1.7c0,0.54.16,0.95,0.7,0.95a0.89,0.89,0,0,0,.82-1V122h0.61" transform="translate(-1.55 -2.19)"/><path class="cls-2" d="M107.72,121.91a1.46,1.46,0,0,1,1.47,1.8h-2.44a1,1,0,0,0,1,.93,1,1,0,0,0,.89-0.47l0.43,0.34a1.54,1.54,0,0,1-1.32.63,1.62,1.62,0,0,1,0-3.24m0.86,1.35a0.85,0.85,0,0,0-1.23-.8,0.89,0.89,0,0,0-.6.8h1.83Z" transform="translate(-1.55 -2.19)"/><path class="cls-2" d="M110,125.06c0-1,0-2.09,0-3.07h0.58c0,0.13,0,.38,0,0.52h0a1,1,0,0,1,1.18-.58l0,0.56a0.88,0.88,0,0,0-1.14,1v1.61H110" transform="translate(-1.55 -2.19)"/><path class="cls-2" d="M112.6,122c0.32,0.8.62,1.63,1,2.41l0.85-2.41h0.65l-1.49,3.8a1.12,1.12,0,0,1-1.46.78l0.06-.54a0.64,0.64,0,0,0,.66-0.08,3.79,3.79,0,0,0,.41-0.89L111.92,122h0.68" transform="translate(-1.55 -2.19)"/><path class="cls-2" d="M118.88,124.63a1.12,1.12,0,0,0,0-2.22,1.11,1.11,0,0,0,0,2.22m0.1,0.51a1.28,1.28,0,0,1-1.08-.54h0v2h-0.61V122h0.6v0.48h0a1.23,1.23,0,0,1,1.11-.56A1.62,1.62,0,0,1,119,125.15Z" transform="translate(-1.55 -2.19)"/><path class="cls-2" d="M121.38,125.06c0-1,0-2.09,0-3.07h0.58c0,0.13,0,.38,0,0.52h0a1,1,0,0,1,1.18-.58l0,0.56a0.88,0.88,0,0,0-1.14,1v1.61h-0.61" transform="translate(-1.55 -2.19)"/><path class="cls-2" d="M125.06,124.63a1.12,1.12,0,1,0-1-1.11,1,1,0,0,0,1,1.11m0-2.73a1.62,1.62,0,1,1-1.65,1.61A1.52,1.52,0,0,1,125.06,121.91Z" transform="translate(-1.55 -2.19)"/><path class="cls-2" d="M127.36,123.53a1.5,1.5,0,0,1,1.64-1.62,1.46,1.46,0,0,1,1.15.51l-0.44.36a0.84,0.84,0,0,0-.71-0.35,1.11,1.11,0,0,0,0,2.22,0.88,0.88,0,0,0,.74-0.34l0.41,0.37a1.42,1.42,0,0,1-1.15.48,1.52,1.52,0,0,1-1.65-1.62" transform="translate(-1.55 -2.19)"/><path class="cls-2" d="M132.15,121.91a1.46,1.46,0,0,1,1.47,1.8h-2.44a1,1,0,0,0,1,.93,1,1,0,0,0,.89-0.47l0.43,0.34a1.54,1.54,0,0,1-1.32.63,1.62,1.62,0,0,1,0-3.24m0.86,1.35a0.85,0.85,0,0,0-1.23-.8,0.89,0.89,0,0,0-.6.8H133Z" transform="translate(-1.55 -2.19)"/><path class="cls-2" d="M134.37,123.21c-0.4-1,.76-1.59,1.71-1.17a1,1,0,0,1,.48.38l-0.42.36a0.82,0.82,0,0,0-.71-0.38,0.46,0.46,0,0,0-.57.4c0,0.47.73,0.41,1.11,0.58a0.87,0.87,0,0,1,.62.78c0,1.25-2,1.21-2.46.44l0.43-.37a1,1,0,0,0,.82.43,0.49,0.49,0,0,0,.61-0.45c0-.58-1-0.41-1.41-0.76a0.67,0.67,0,0,1-.21-0.24" transform="translate(-1.55 -2.19)"/><path class="cls-2" d="M137.25,123.21c-0.4-1,.76-1.59,1.71-1.17a1,1,0,0,1,.48.38l-0.42.36a0.82,0.82,0,0,0-.71-0.38,0.46,0.46,0,0,0-.57.4c0,0.47.73,0.41,1.11,0.58a0.87,0.87,0,0,1,.62.78c0,1.25-2,1.21-2.46.44l0.43-.37a1,1,0,0,0,.82.43,0.49,0.49,0,0,0,.61-0.45c0-.58-1-0.41-1.41-0.76a0.67,0.67,0,0,1-.21-0.24" transform="translate(-1.55 -2.19)"/><path class="cls-3" d="M203,217.73a32.4,32.4,0,1,1-32.4-32.4A32.4,32.4,0,0,1,203,217.73Z" transform="translate(-1.55 -2.19)"/><path class="cls-1" d="M203,217.73a32.4,32.4,0,1,1-32.4-32.4A32.4,32.4,0,0,1,203,217.73Z" transform="translate(-1.55 -2.19)"/><path class="cls-2" d="M156.16,212c0-.84-1-0.73-1.81-0.73v1.46c0.85,0,1.81.09,1.81-.74m0.65,0a1.22,1.22,0,0,1-1.11,1.21l1.28,2.11H156.2l-1.17-2h-0.69v2H153.7v-4.59C155.16,210.72,156.81,210.52,156.81,212Z" transform="translate(-1.55 -2.19)"/><path class="cls-2" d="M159,212.16a1.46,1.46,0,0,1,1.47,1.8H158a1,1,0,0,0,1,.93,1,1,0,0,0,.89-0.47l0.43,0.34a1.54,1.54,0,0,1-1.32.63,1.62,1.62,0,0,1,0-3.24m0.86,1.35a0.85,0.85,0,0,0-1.23-.8,0.89,0.89,0,0,0-.6.8h1.83Z" transform="translate(-1.55 -2.19)"/><path class="cls-2" d="M161.17,213.46c-0.4-1,.76-1.59,1.71-1.17a1,1,0,0,1,.48.38l-0.42.36a0.82,0.82,0,0,0-.71-0.38,0.46,0.46,0,0,0-.57.4c0,0.47.73,0.41,1.11,0.58a0.87,0.87,0,0,1,.62.78c0,1.25-2,1.21-2.46.44l0.43-.37a1,1,0,0,0,.82.43,0.49,0.49,0,0,0,.61-0.45c0-.58-1-0.41-1.41-0.76a0.67,0.67,0,0,1-.21-0.24" transform="translate(-1.55 -2.19)"/><path class="cls-2" d="M165.55,212.16A1.46,1.46,0,0,1,167,214h-2.44a1,1,0,0,0,1,.93,1,1,0,0,0,.89-0.47l0.43,0.34a1.54,1.54,0,0,1-1.32.63,1.62,1.62,0,0,1,0-3.24m0.86,1.35a0.85,0.85,0,0,0-1.23-.8,0.89,0.89,0,0,0-.6.8h1.83Z" transform="translate(-1.55 -2.19)"/><path class="cls-2" d="M167.87,215.31c0-1,0-2.09,0-3.07h0.58c0,0.13,0,.38,0,0.52h0a1,1,0,0,1,1.18-.58l0,0.56a0.88,0.88,0,0,0-1.14,1v1.61h-0.61" transform="translate(-1.55 -2.19)"/><path class="cls-2" d="M171.67,215.31H171l-1.25-3.07h0.67c0.3,0.8.59,1.63,0.91,2.42l0.91-2.42h0.65" transform="translate(-1.55 -2.19)"/><path class="cls-2" d="M174.51,214.91a0.87,0.87,0,0,0,.89-1.06c-0.67,0-1.52,0-1.52.58a0.52,0.52,0,0,0,.63.48m-1.25-.47c0-1,1.12-1,2.14-1a0.66,0.66,0,0,0-.76-0.76,1.28,1.28,0,0,0-.87.36l-0.32-.39a1.81,1.81,0,0,1,1.26-.46,1.14,1.14,0,0,1,1.28,1.21,19.14,19.14,0,0,0,0,2h-0.55a2,2,0,0,1-.05-0.44h0a1.18,1.18,0,0,1-1,.52A1,1,0,0,1,173.26,214.44Z" transform="translate(-1.55 -2.19)"/><path class="cls-2" d="M177.91,215.37a0.83,0.83,0,0,1-.89-1v-1.67h-0.59v-0.5H177v-0.88h0.6v0.88h0.82v0.5h-0.82v1.6c0,0.35.1,0.51,0.43,0.52a0.87,0.87,0,0,0,.36-0.08l0,0.5a1.55,1.55,0,0,1-.52.08" transform="translate(-1.55 -2.19)"/><path class="cls-2" d="M179.38,210.74a0.4,0.4,0,0,1,.41.4,0.41,0.41,0,1,1-.41-0.4m0.3,4.57h-0.61v-3.07h0.61v3.07Z" transform="translate(-1.55 -2.19)"/><path class="cls-2" d="M182.2,214.89a1.12,1.12,0,1,0-1-1.11,1,1,0,0,0,1,1.11m0-2.73a1.62,1.62,0,1,1-1.65,1.61A1.52,1.52,0,0,1,182.2,212.16Z" transform="translate(-1.55 -2.19)"/><path class="cls-2" d="M184.7,215.31c0-1,0-2.09,0-3.07h0.58c0,0.13,0,.36,0,0.51h0a1.07,1.07,0,0,1,1-.59,1.09,1.09,0,0,1,1.15,1.25v1.91h-0.61v-1.7c0-.54-0.16-0.94-0.7-0.94a0.89,0.89,0,0,0-.82,1v1.63H184.7" transform="translate(-1.55 -2.19)"/><path class="cls-2" d="M161.22,223.74a1.12,1.12,0,0,0,0-2.22,1.11,1.11,0,0,0,0,2.22m0.1,0.51a1.28,1.28,0,0,1-1.08-.54h0v2h-0.61V221.1h0.6v0.48h0a1.23,1.23,0,0,1,1.11-.56A1.62,1.62,0,0,1,161.32,224.25Z" transform="translate(-1.55 -2.19)"/><path class="cls-2" d="M163.72,224.17c0-1,0-2.09,0-3.07h0.58c0,0.13,0,.38,0,0.52h0a1,1,0,0,1,1.18-.58l0,0.56a0.88,0.88,0,0,0-1.14,1v1.61h-0.61" transform="translate(-1.55 -2.19)"/><path class="cls-2" d="M167.4,223.74a1.12,1.12,0,1,0-1-1.11,1,1,0,0,0,1,1.11m0-2.73a1.62,1.62,0,1,1-1.65,1.61A1.52,1.52,0,0,1,167.4,221Z" transform="translate(-1.55 -2.19)"/><path class="cls-2" d="M169.7,222.63a1.5,1.5,0,0,1,1.64-1.62,1.46,1.46,0,0,1,1.15.51l-0.44.36a0.84,0.84,0,0,0-.71-0.35,1.11,1.11,0,0,0,0,2.22,0.88,0.88,0,0,0,.74-0.34l0.41,0.37a1.42,1.42,0,0,1-1.15.48,1.52,1.52,0,0,1-1.65-1.62" transform="translate(-1.55 -2.19)"/><path class="cls-2" d="M174.49,221a1.46,1.46,0,0,1,1.47,1.8h-2.44a1,1,0,0,0,1,.93,1,1,0,0,0,.89-0.47l0.43,0.34a1.54,1.54,0,0,1-1.32.63,1.62,1.62,0,0,1,0-3.24m0.86,1.35a0.85,0.85,0,0,0-1.23-.8,0.89,0.89,0,0,0-.6.8h1.83Z" transform="translate(-1.55 -2.19)"/><path class="cls-2" d="M176.7,222.32c-0.4-1,.76-1.59,1.71-1.17a1,1,0,0,1,.48.38l-0.42.36a0.82,0.82,0,0,0-.71-0.38,0.46,0.46,0,0,0-.57.4c0,0.47.73,0.41,1.11,0.58a0.87,0.87,0,0,1,.62.78c0,1.25-2,1.21-2.46.44l0.43-.37a1,1,0,0,0,.82.43,0.49,0.49,0,0,0,.61-0.45c0-.58-1-0.41-1.41-0.76a0.67,0.67,0,0,1-.21-0.24" transform="translate(-1.55 -2.19)"/><path class="cls-2" d="M179.58,222.32c-0.4-1,.76-1.59,1.71-1.17a1,1,0,0,1,.48.38l-0.42.36a0.82,0.82,0,0,0-.71-0.38,0.46,0.46,0,0,0-.57.4c0,0.47.73,0.41,1.11,0.58a0.87,0.87,0,0,1,.62.78c0,1.25-2,1.21-2.46.44l0.43-.37a1,1,0,0,0,.82.43,0.49,0.49,0,0,0,.61-0.45c0-.58-1-0.41-1.41-0.76a0.67,0.67,0,0,1-.21-0.24" transform="translate(-1.55 -2.19)"/><path class="cls-3" d="M275.91,151.34a32.4,32.4,0,1,1-32.4-32.4A32.4,32.4,0,0,1,275.91,151.34Z" transform="translate(-1.55 -2.19)"/><path class="cls-1" d="M275.91,151.34a32.4,32.4,0,1,1-32.4-32.4A32.4,32.4,0,0,1,275.91,151.34Z" transform="translate(-1.55 -2.19)"/><path class="cls-2" d="M229,150c0-1.14,1.28-1.54,2.33-1.17a1.32,1.32,0,0,1,.56.38l-0.45.44a1.1,1.1,0,0,0-.89-0.43,0.77,0.77,0,0,0-.82,1.06c0.36,0.52,1.29.49,1.77,0.89a1.15,1.15,0,0,1,.44.94c0,1.23-1.33,1.66-2.43,1.22a1.61,1.61,0,0,1-.67-0.5l0.5-.42a1.28,1.28,0,0,0,1,.54,0.79,0.79,0,0,0,.83-1.13c-0.32-.57-1.34-0.49-1.81-0.93A1.15,1.15,0,0,1,229,150" transform="translate(-1.55 -2.19)"/><path class="cls-2" d="M234.24,150.24a1.46,1.46,0,0,1,1.47,1.8h-2.44a1,1,0,0,0,1,.93,1,1,0,0,0,.89-0.47l0.43,0.34a1.54,1.54,0,0,1-1.32.63,1.62,1.62,0,0,1,0-3.24m0.86,1.35a0.85,0.85,0,0,0-1.23-.8,0.89,0.89,0,0,0-.6.8h1.83Z" transform="translate(-1.55 -2.19)"/><path class="cls-2" d="M237.55,153a0.87,0.87,0,0,0,.89-1.06c-0.67,0-1.52,0-1.52.58a0.52,0.52,0,0,0,.63.48m-1.25-.47c0-1,1.12-1,2.14-1a0.66,0.66,0,0,0-.76-0.76,1.28,1.28,0,0,0-.87.36l-0.32-.39a1.81,1.81,0,0,1,1.26-.46,1.14,1.14,0,0,1,1.28,1.21,19.13,19.13,0,0,0,0,2h-0.55a2,2,0,0,1-.05-0.44h0a1.18,1.18,0,0,1-1,.52A1,1,0,0,1,236.3,152.52Z" transform="translate(-1.55 -2.19)"/><path class="cls-2" d="M240,153.39c0-1,0-2.09,0-3.07h0.58c0,0.13,0,.38,0,0.52h0a1,1,0,0,1,1.18-.58l0,0.56a0.88,0.88,0,0,0-1.14,1v1.61H240" transform="translate(-1.55 -2.19)"/><path class="cls-2" d="M242.06,151.86a1.5,1.5,0,0,1,1.64-1.62,1.46,1.46,0,0,1,1.15.51l-0.44.36a0.84,0.84,0,0,0-.71-0.35,1.11,1.11,0,0,0,0,2.22,0.88,0.88,0,0,0,.74-0.34l0.41,0.37a1.42,1.42,0,0,1-1.15.48,1.52,1.52,0,0,1-1.65-1.62" transform="translate(-1.55 -2.19)"/><path class="cls-2" d="M246.92,150.76a0.9,0.9,0,0,0-.83,1v1.63h-0.61v-4.9h0.61c0,0.76,0,1.56,0,2.29a1.08,1.08,0,0,1,1-.55,1.1,1.1,0,0,1,1.15,1.25v1.91h-0.61v-1.7c0-.54-0.16-0.94-0.69-0.94" transform="translate(-1.55 -2.19)"/><path class="cls-2" d="M249.56,148.82a0.4,0.4,0,0,1,.41.4,0.41,0.41,0,1,1-.41-0.4m0.3,4.57h-0.61v-3.07h0.61v3.07Z" transform="translate(-1.55 -2.19)"/><path class="cls-2" d="M250.93,153.39c0-1,0-2.09,0-3.07h0.58c0,0.13,0,.36,0,0.51h0a1.07,1.07,0,0,1,1-.59,1.09,1.09,0,0,1,1.15,1.25v1.91h-0.61v-1.7c0-.54-0.16-0.94-0.7-0.94a0.89,0.89,0,0,0-.82,1v1.63h-0.61" transform="translate(-1.55 -2.19)"/><path class="cls-2" d="M256.14,150.74a1.08,1.08,0,0,0,0,2.16,1.08,1.08,0,0,0,0-2.16m1.61,2.49a1.53,1.53,0,0,1-1.7,1.71,2.25,2.25,0,0,1-1.5-.56l0.39-.47a1.57,1.57,0,0,0,1.12.5c0.88,0,1.17-.62,1.07-1.53a1.25,1.25,0,0,1-1.08.53,1.59,1.59,0,0,1,0-3.18,1.3,1.3,0,0,1,1.12.58v-0.49h0.59v2.92Z" transform="translate(-1.55 -2.19)"/><circle class="cls-3" cx="351.4" cy="81.43" r="32.4"/><circle class="cls-1" cx="351.4" cy="81.43" r="32.4"/><path class="cls-2" d="M336.18,80.8a1.42,1.42,0,0,0,1.23-.61l0.51,0.35a2.06,2.06,0,0,1-1.75.83,2.29,2.29,0,0,1-2.24-1.44,2.75,2.75,0,0,1,0-2,2.39,2.39,0,0,1,2.73-1.38,1.78,1.78,0,0,1,1.17.67l-0.51.39a1.38,1.38,0,0,0-1.14-.54,1.68,1.68,0,0,0-1.74,1.84,1.65,1.65,0,0,0,1.72,1.85" transform="translate(-1.55 -2.19)"/><path class="cls-2" d="M339.92,80.82a1.12,1.12,0,1,0-1-1.11,1,1,0,0,0,1,1.11m0-2.73a1.62,1.62,0,1,1-1.65,1.61A1.52,1.52,0,0,1,339.92,78.09Z" transform="translate(-1.55 -2.19)"/><path class="cls-2" d="M342.42,81.25c0-1,0-2.09,0-3.07H343c0,0.13,0,.36,0,0.51h0a1.07,1.07,0,0,1,1-.59,1.09,1.09,0,0,1,1.15,1.25v1.91h-0.61v-1.7c0-.54-0.16-0.94-0.7-0.94a0.89,0.89,0,0,0-.82,1v1.63h-0.61" transform="translate(-1.55 -2.19)"/><path class="cls-2" d="M347.47,76.8c-0.67,0-.53.75-0.54,1.38h0.71v0.5h-0.71v2.57h-0.61V78.68h-0.61v-0.5h0.61V77.54a1.14,1.14,0,0,1,1.53-1.22l-0.07.52a1.07,1.07,0,0,0-.3,0" transform="translate(-1.55 -2.19)"/><path class="cls-2" d="M348.51,76.67a0.4,0.4,0,0,1,.41.4,0.41,0.41,0,1,1-.41-0.4m0.3,4.57h-0.61V78.18h0.61v3.07Z" transform="translate(-1.55 -2.19)"/><path class="cls-2" d="M349.88,81.25c0-1,0-2.09,0-3.07h0.58c0,0.13,0,.38,0,0.52h0a1,1,0,0,1,1.18-.58l0,0.56a0.88,0.88,0,0,0-1.14,1v1.61h-0.61" transform="translate(-1.55 -2.19)"/><path class="cls-2" d="M352.82,78.68a1.08,1.08,0,0,1,1-.59,1,1,0,0,1,1,.62,1.13,1.13,0,0,1,1-.62,1.09,1.09,0,0,1,1.15,1.25v1.91h-0.61v-1.7c0-.52-0.16-0.94-0.68-0.94-1.11,0-.7,1.58-0.78,2.64h-0.61V79.42a0.66,0.66,0,0,0-.65-0.82,0.89,0.89,0,0,0-.78,1v1.63h-0.61c0-1,0-2.09,0-3.07h0.58c0,0.13,0,.36,0,0.51h0" transform="translate(-1.55 -2.19)"/><path class="cls-2" d="M359,80.85a0.87,0.87,0,0,0,.89-1.06c-0.67,0-1.52,0-1.52.58a0.52,0.52,0,0,0,.63.48m-1.25-.47c0-1,1.12-1,2.14-1a0.66,0.66,0,0,0-.76-0.76,1.28,1.28,0,0,0-.87.36l-0.32-.39a1.81,1.81,0,0,1,1.26-.46,1.14,1.14,0,0,1,1.28,1.21,19.14,19.14,0,0,0,0,2H360a2,2,0,0,1-.05-0.44h0a1.18,1.18,0,0,1-1,.52A1,1,0,0,1,357.75,80.38Z" transform="translate(-1.55 -2.19)"/><path class="cls-2" d="M362.4,81.3a0.83,0.83,0,0,1-.89-1V78.68h-0.59v-0.5h0.59V77.3h0.6v0.88h0.82v0.5h-0.82v1.6c0,0.35.1,0.51,0.43,0.52a0.87,0.87,0,0,0,.36-0.08l0,0.5a1.55,1.55,0,0,1-.52.08" transform="translate(-1.55 -2.19)"/><path class="cls-2" d="M363.86,76.67a0.4,0.4,0,0,1,.41.4,0.41,0.41,0,1,1-.41-0.4m0.3,4.57h-0.61V78.18h0.61v3.07Z" transform="translate(-1.55 -2.19)"/><path class="cls-2" d="M366.68,80.82a1.12,1.12,0,1,0-1-1.11,1,1,0,0,0,1,1.11m0-2.73A1.62,1.62,0,1,1,365,79.71,1.52,1.52,0,0,1,366.68,78.09Z" transform="translate(-1.55 -2.19)"/><path class="cls-2" d="M369.18,81.25c0-1,0-2.09,0-3.07h0.58c0,0.13,0,.36,0,0.51h0a1.07,1.07,0,0,1,1-.59,1.09,1.09,0,0,1,1.15,1.25v1.91h-0.61v-1.7c0-.54-0.16-0.94-0.7-0.94a0.89,0.89,0,0,0-.82,1v1.63h-0.61" transform="translate(-1.55 -2.19)"/><path class="cls-2" d="M343.59,89.68a1.12,1.12,0,0,0,0-2.22,1.11,1.11,0,0,0,0,2.22m0.1,0.51a1.28,1.28,0,0,1-1.08-.54h0v2H342V87h0.6v0.48h0a1.23,1.23,0,0,1,1.11-.56A1.62,1.62,0,0,1,343.7,90.19Z" transform="translate(-1.55 -2.19)"/><path class="cls-2" d="M346.09,90.11c0-1,0-2.09,0-3.07h0.58c0,0.13,0,.38,0,0.52h0a1,1,0,0,1,1.18-.58l0,0.56a0.88,0.88,0,0,0-1.14,1v1.61h-0.61" transform="translate(-1.55 -2.19)"/><path class="cls-2" d="M349.78,89.68a1.12,1.12,0,1,0-1-1.11,1,1,0,0,0,1,1.11m0-2.73a1.62,1.62,0,1,1-1.65,1.61A1.52,1.52,0,0,1,349.78,86.95Z" transform="translate(-1.55 -2.19)"/><path class="cls-2" d="M352.08,88.57a1.5,1.5,0,0,1,1.64-1.62,1.46,1.46,0,0,1,1.15.51l-0.44.36a0.84,0.84,0,0,0-.71-0.35,1.11,1.11,0,0,0,0,2.22,0.88,0.88,0,0,0,.74-0.34l0.41,0.37a1.42,1.42,0,0,1-1.15.48,1.52,1.52,0,0,1-1.65-1.62" transform="translate(-1.55 -2.19)"/><path class="cls-2" d="M356.86,86.95a1.46,1.46,0,0,1,1.47,1.8H355.9a1,1,0,0,0,1,.93,1,1,0,0,0,.89-0.47l0.43,0.34a1.54,1.54,0,0,1-1.32.63,1.62,1.62,0,0,1,0-3.24m0.86,1.35a0.85,0.85,0,0,0-1.23-.8,0.89,0.89,0,0,0-.6.8h1.83Z" transform="translate(-1.55 -2.19)"/><path class="cls-2" d="M359.08,88.25c-0.4-1,.76-1.59,1.71-1.17a1,1,0,0,1,.48.38l-0.42.36a0.82,0.82,0,0,0-.71-0.38,0.46,0.46,0,0,0-.57.4c0,0.47.73,0.41,1.11,0.58a0.87,0.87,0,0,1,.62.78c0,1.25-2,1.21-2.46.44l0.43-.37a1,1,0,0,0,.82.43,0.49,0.49,0,0,0,.61-0.45c0-.58-1-0.41-1.41-0.76a0.67,0.67,0,0,1-.21-0.24" transform="translate(-1.55 -2.19)"/><path class="cls-2" d="M362,88.25c-0.4-1,.76-1.59,1.71-1.17a1,1,0,0,1,.48.38l-0.42.36a0.82,0.82,0,0,0-.71-0.38,0.46,0.46,0,0,0-.57.4c0,0.47.73,0.41,1.11,0.58a0.87,0.87,0,0,1,.62.78c0,1.25-2,1.21-2.46.44l0.43-.37a1,1,0,0,0,.82.43,0.49,0.49,0,0,0,.61-0.45c0-.58-1-0.41-1.41-0.76a0.67,0.67,0,0,1-.21-0.24" transform="translate(-1.55 -2.19)"/><circle class="cls-3" cx="322.85" cy="199.08" r="32.4"/><circle class="cls-1" cx="322.85" cy="199.08" r="32.4"/><path class="cls-2" d="M301.31,198.7c0.34,1.21.66,2.46,1,3.65l1.08-3.65h0.71c0.36,1.21.7,2.46,1.08,3.65l1-3.65h0.68l-1.35,4.59h-0.67c-0.38-1.22-.73-2.48-1.13-3.69l-1.11,3.69H302l-1.35-4.59h0.69" transform="translate(-1.55 -2.19)"/><path class="cls-2" d="M308.27,202.89a0.87,0.87,0,0,0,.89-1.06c-0.67,0-1.52,0-1.52.58a0.52,0.52,0,0,0,.63.48m-1.25-.47c0-1,1.12-1,2.14-1a0.66,0.66,0,0,0-.76-0.76,1.28,1.28,0,0,0-.87.36l-0.32-.39a1.81,1.81,0,0,1,1.26-.46,1.14,1.14,0,0,1,1.28,1.21,19.14,19.14,0,0,0,0,2h-0.55a2,2,0,0,1-.05-0.44h0a1.18,1.18,0,0,1-1,.52A1,1,0,0,1,307,202.42Z" transform="translate(-1.55 -2.19)"/><path class="cls-2" d="M311.07,198.71a0.4,0.4,0,0,1,.41.4,0.41,0.41,0,1,1-.41-0.4m0.3,4.57h-0.61v-3.07h0.61v3.07Z" transform="translate(-1.55 -2.19)"/><path class="cls-2" d="M313.41,203.34a0.83,0.83,0,0,1-.89-1v-1.67h-0.59v-0.5h0.59v-0.88h0.6v0.88h0.82v0.5h-0.82v1.6c0,0.35.1,0.51,0.43,0.52a0.87,0.87,0,0,0,.36-0.08l0,0.5a1.55,1.55,0,0,1-.52.08" transform="translate(-1.55 -2.19)"/><path class="cls-2" d="M314.88,198.71a0.4,0.4,0,0,1,.41.4,0.41,0.41,0,1,1-.41-0.4m0.3,4.57h-0.61v-3.07h0.61v3.07Z" transform="translate(-1.55 -2.19)"/><path class="cls-2" d="M316.25,203.29c0-1,0-2.09,0-3.07h0.58c0,0.13,0,.36,0,0.51h0a1.07,1.07,0,0,1,1-.59,1.09,1.09,0,0,1,1.15,1.25v1.91h-0.61v-1.7c0-.54-0.16-0.94-0.7-0.94a0.89,0.89,0,0,0-.82,1v1.63h-0.61" transform="translate(-1.55 -2.19)"/><path class="cls-2" d="M321.46,200.64a1.08,1.08,0,0,0,0,2.16,1.08,1.08,0,0,0,0-2.16m1.61,2.49a1.53,1.53,0,0,1-1.7,1.71,2.25,2.25,0,0,1-1.5-.56l0.39-.47a1.57,1.57,0,0,0,1.12.5c0.88,0,1.17-.62,1.07-1.53a1.25,1.25,0,0,1-1.08.53,1.59,1.59,0,0,1,0-3.18,1.3,1.3,0,0,1,1.12.58v-0.49h0.59v2.92Z" transform="translate(-1.55 -2.19)"/><path class="cls-2" d="M327.32,202.86a1.12,1.12,0,0,0,0-2.22,1.11,1.11,0,0,0,0,2.22m0.1,0.51a1.28,1.28,0,0,1-1.08-.54h0v2h-0.61v-4.63h0.6v0.48h0a1.23,1.23,0,0,1,1.11-.56A1.62,1.62,0,0,1,327.42,203.37Z" transform="translate(-1.55 -2.19)"/><path class="cls-2" d="M329.82,203.29c0-1,0-2.09,0-3.07h0.58c0,0.13,0,.38,0,0.52h0a1,1,0,0,1,1.18-.58l0,0.56a0.88,0.88,0,0,0-1.14,1v1.61h-0.61" transform="translate(-1.55 -2.19)"/><path class="cls-2" d="M333.5,202.86a1.12,1.12,0,1,0-1-1.11,1,1,0,0,0,1,1.11m0-2.73a1.62,1.62,0,1,1-1.65,1.61A1.52,1.52,0,0,1,333.5,200.13Z" transform="translate(-1.55 -2.19)"/><path class="cls-2" d="M335.8,201.75a1.5,1.5,0,0,1,1.64-1.62,1.46,1.46,0,0,1,1.15.51l-0.44.36a0.84,0.84,0,0,0-.71-0.35,1.11,1.11,0,0,0,0,2.22,0.88,0.88,0,0,0,.74-0.34l0.41,0.37a1.42,1.42,0,0,1-1.15.48,1.52,1.52,0,0,1-1.65-1.62" transform="translate(-1.55 -2.19)"/><path class="cls-2" d="M340.59,200.13a1.46,1.46,0,0,1,1.47,1.8h-2.44a1,1,0,0,0,1,.93,1,1,0,0,0,.89-0.47l0.43,0.34a1.54,1.54,0,0,1-1.32.63,1.62,1.62,0,0,1,0-3.24m0.86,1.35a0.85,0.85,0,0,0-1.23-.8,0.89,0.89,0,0,0-.6.8h1.83Z" transform="translate(-1.55 -2.19)"/><path class="cls-2" d="M342.81,201.44c-0.4-1,.76-1.59,1.71-1.17a1,1,0,0,1,.48.38l-0.42.36a0.82,0.82,0,0,0-.71-0.38,0.46,0.46,0,0,0-.57.4c0,0.47.73,0.41,1.11,0.58a0.87,0.87,0,0,1,.62.78c0,1.25-2,1.21-2.46.44l0.43-.37a1,1,0,0,0,.82.43,0.49,0.49,0,0,0,.61-0.45c0-.58-1-0.41-1.41-0.76a0.67,0.67,0,0,1-.21-0.24" transform="translate(-1.55 -2.19)"/><path class="cls-2" d="M345.69,201.44c-0.4-1,.76-1.59,1.71-1.17a1,1,0,0,1,.48.38l-0.42.36a0.82,0.82,0,0,0-.71-0.38,0.46,0.46,0,0,0-.57.4c0,0.47.73,0.41,1.11,0.58a0.87,0.87,0,0,1,.62.78c0,1.25-2,1.21-2.46.44l0.43-.37a1,1,0,0,0,.82.43,0.49,0.49,0,0,0,.61-0.45c0-.58-1-0.41-1.41-0.76a0.67,0.67,0,0,1-.21-0.24" transform="translate(-1.55 -2.19)"/><circle class="cls-3" cx="353.59" cy="305.39" r="32.4"/><circle class="cls-1" cx="353.59" cy="305.39" r="32.4"/><path class="cls-2" d="M335.2,301.89c0-.84-1-0.73-1.81-0.73v1.46c0.85,0,1.81.09,1.81-.74m0.65,0a1.22,1.22,0,0,1-1.11,1.21l1.28,2.11h-0.78l-1.17-2h-0.69v2h-0.64v-4.59C334.21,300.61,335.85,300.42,335.85,301.89Z" transform="translate(-1.55 -2.19)"/><path class="cls-2" d="M338.07,304.78a1.12,1.12,0,1,0-1-1.11,1,1,0,0,0,1,1.11m0-2.73a1.62,1.62,0,1,1-1.65,1.61A1.52,1.52,0,0,1,338.07,302Z" transform="translate(-1.55 -2.19)"/><path class="cls-2" d="M342,304.78a1.12,1.12,0,1,0-1-1.11,1,1,0,0,0,1,1.11m0-2.73a1.62,1.62,0,1,1-1.65,1.61A1.52,1.52,0,0,1,342,302Z" transform="translate(-1.55 -2.19)"/><path class="cls-2" d="M345.12,302.64a1.08,1.08,0,0,1,1-.59,1,1,0,0,1,1,.62,1.13,1.13,0,0,1,1-.62,1.09,1.09,0,0,1,1.15,1.25v1.91h-0.61v-1.7c0-.52-0.16-0.94-0.68-0.94-1.11,0-.7,1.58-0.78,2.64h-0.61v-1.83a0.66,0.66,0,0,0-.65-0.82,0.89,0.89,0,0,0-.78,1v1.63h-0.61c0-1,0-2.09,0-3.07h0.58c0,0.13,0,.36,0,0.51h0" transform="translate(-1.55 -2.19)"/><path class="cls-2" d="M351.78,303.35c-0.4-1,.76-1.59,1.71-1.17a1,1,0,0,1,.48.38l-0.42.36a0.82,0.82,0,0,0-.71-0.38,0.46,0.46,0,0,0-.57.4c0,0.47.73,0.41,1.11,0.58a0.87,0.87,0,0,1,.62.78c0,1.25-2,1.21-2.46.44l0.43-.37a1,1,0,0,0,.82.43,0.49,0.49,0,0,0,.61-0.45c0-.58-1-0.41-1.41-0.76a0.67,0.67,0,0,1-.21-0.24" transform="translate(-1.55 -2.19)"/><path class="cls-2" d="M356.15,302a1.46,1.46,0,0,1,1.47,1.8h-2.44a1,1,0,0,0,1,.93,1,1,0,0,0,.89-0.47l0.43,0.34a1.54,1.54,0,0,1-1.32.63,1.62,1.62,0,0,1,0-3.24M357,303.4a0.85,0.85,0,0,0-1.23-.8,0.89,0.89,0,0,0-.6.8H357Z" transform="translate(-1.55 -2.19)"/><polyline class="cls-2" points="357.55 303.01 356.94 303.01 356.94 300.56 356.94 298.11 357.55 298.11 357.55 300.56 357.55 303.01"/><path class="cls-2" d="M361.55,302a1.46,1.46,0,0,1,1.47,1.8h-2.44a1,1,0,0,0,1,.93,1,1,0,0,0,.89-0.47l0.43,0.34a1.54,1.54,0,0,1-1.32.63,1.62,1.62,0,0,1,0-3.24m0.86,1.35a0.85,0.85,0,0,0-1.23-.8,0.89,0.89,0,0,0-.6.8h1.83Z" transform="translate(-1.55 -2.19)"/><path class="cls-2" d="M363.67,303.67a1.5,1.5,0,0,1,1.64-1.62,1.46,1.46,0,0,1,1.15.51l-0.44.36a0.84,0.84,0,0,0-.71-0.35,1.11,1.11,0,0,0,0,2.22,0.88,0.88,0,0,0,.74-0.34l0.41,0.37a1.42,1.42,0,0,1-1.15.48,1.52,1.52,0,0,1-1.65-1.62" transform="translate(-1.55 -2.19)"/><path class="cls-2" d="M368.05,305.26a0.83,0.83,0,0,1-.89-1v-1.67h-0.59v-0.5h0.59v-0.88h0.6v0.88h0.82v0.5h-0.82v1.6c0,0.35.1,0.51,0.43,0.52a0.87,0.87,0,0,0,.36-0.08l0,0.5a1.55,1.55,0,0,1-.52.08" transform="translate(-1.55 -2.19)"/><path class="cls-2" d="M369.52,300.63a0.4,0.4,0,0,1,.41.4,0.41,0.41,0,1,1-.41-0.4m0.3,4.57h-0.61v-3.07h0.61v3.07Z" transform="translate(-1.55 -2.19)"/><path class="cls-2" d="M372.34,304.78a1.12,1.12,0,1,0-1-1.11,1,1,0,0,0,1,1.11m0-2.73a1.62,1.62,0,1,1-1.65,1.61A1.52,1.52,0,0,1,372.34,302Z" transform="translate(-1.55 -2.19)"/><path class="cls-2" d="M374.84,305.21c0-1,0-2.09,0-3.07h0.58c0,0.13,0,.36,0,0.51h0a1.07,1.07,0,0,1,1-.59,1.09,1.09,0,0,1,1.15,1.25v1.91H377v-1.7c0-.54-0.16-0.94-0.7-0.94a0.89,0.89,0,0,0-.82,1v1.63h-0.61" transform="translate(-1.55 -2.19)"/><path class="cls-2" d="M345.79,313.63a1.12,1.12,0,0,0,0-2.22,1.11,1.11,0,0,0,0,2.22m0.1,0.51a1.28,1.28,0,0,1-1.08-.54h0v2h-0.61V311h0.6v0.48h0a1.23,1.23,0,0,1,1.11-.56A1.62,1.62,0,0,1,345.89,314.15Z" transform="translate(-1.55 -2.19)"/><path class="cls-2" d="M348.29,314.06c0-1,0-2.09,0-3.07h0.58c0,0.13,0,.38,0,0.52h0a1,1,0,0,1,1.18-.58l0,0.56a0.88,0.88,0,0,0-1.14,1v1.61h-0.61" transform="translate(-1.55 -2.19)"/><path class="cls-2" d="M352,313.63a1.12,1.12,0,1,0-1-1.11,1,1,0,0,0,1,1.11m0-2.73a1.62,1.62,0,1,1-1.65,1.61A1.52,1.52,0,0,1,352,310.91Z" transform="translate(-1.55 -2.19)"/><path class="cls-2" d="M354.27,312.53a1.5,1.5,0,0,1,1.64-1.62,1.46,1.46,0,0,1,1.15.51l-0.44.36a0.84,0.84,0,0,0-.71-0.35,1.11,1.11,0,0,0,0,2.22,0.88,0.88,0,0,0,.74-0.34l0.41,0.37a1.42,1.42,0,0,1-1.15.48,1.52,1.52,0,0,1-1.65-1.62" transform="translate(-1.55 -2.19)"/><path class="cls-2" d="M359.06,310.91a1.46,1.46,0,0,1,1.47,1.8h-2.44a1,1,0,0,0,1,.93,1,1,0,0,0,.89-0.47l0.43,0.34a1.54,1.54,0,0,1-1.32.63,1.62,1.62,0,0,1,0-3.24m0.86,1.35a0.85,0.85,0,0,0-1.23-.8,0.89,0.89,0,0,0-.6.8h1.83Z" transform="translate(-1.55 -2.19)"/><path class="cls-2" d="M361.28,312.21c-0.4-1,.76-1.59,1.71-1.17a1,1,0,0,1,.48.38l-0.42.36a0.82,0.82,0,0,0-.71-0.38,0.46,0.46,0,0,0-.57.4c0,0.47.73,0.41,1.11,0.58a0.87,0.87,0,0,1,.62.78c0,1.25-2,1.21-2.46.44l0.43-.37a1,1,0,0,0,.82.43,0.49,0.49,0,0,0,.61-0.45c0-.58-1-0.41-1.41-0.76a0.67,0.67,0,0,1-.21-0.24" transform="translate(-1.55 -2.19)"/><path class="cls-2" d="M364.15,312.21c-0.4-1,.76-1.59,1.71-1.17a1,1,0,0,1,.48.38l-0.42.36a0.82,0.82,0,0,0-.71-0.38,0.46,0.46,0,0,0-.57.4c0,0.47.73,0.41,1.11,0.58a0.87,0.87,0,0,1,.62.78c0,1.25-2,1.21-2.46.44l0.43-.37a1,1,0,0,0,.82.43,0.49,0.49,0,0,0,.61-0.45c0-.58-1-0.41-1.41-0.76a0.67,0.67,0,0,1-.21-0.24" transform="translate(-1.55 -2.19)"/><circle class="cls-3" cx="225.22" cy="314.32" r="32.4"/><circle class="cls-1" cx="225.22" cy="314.32" r="32.4"/><path class="cls-2" d="M211,313.64a1.42,1.42,0,0,0,1.23-.61l0.51,0.35a2.06,2.06,0,0,1-1.75.83,2.29,2.29,0,0,1-2.24-1.44,2.75,2.75,0,0,1,0-2,2.39,2.39,0,0,1,2.73-1.38,1.78,1.78,0,0,1,1.17.67l-0.51.39A1.38,1.38,0,0,0,211,310a1.68,1.68,0,0,0-1.74,1.84,1.65,1.65,0,0,0,1.72,1.85" transform="translate(-1.55 -2.19)"/><path class="cls-2" d="M214.25,313.7a0.87,0.87,0,0,0,.89-1.06c-0.67,0-1.52,0-1.52.58a0.52,0.52,0,0,0,.63.48m-1.25-.47c0-1,1.12-1,2.14-1a0.66,0.66,0,0,0-.76-0.76,1.28,1.28,0,0,0-.87.36l-0.32-.39a1.81,1.81,0,0,1,1.26-.46,1.14,1.14,0,0,1,1.28,1.21,19.14,19.14,0,0,0,0,2h-0.55a2,2,0,0,1-.05-0.44h0a1.18,1.18,0,0,1-1,.52A1,1,0,0,1,213,313.23Z" transform="translate(-1.55 -2.19)"/><path class="cls-2" d="M216.73,314.1c0-1,0-2.09,0-3.07h0.58c0,0.13,0,.36,0,0.51h0a1.07,1.07,0,0,1,1-.59,1.09,1.09,0,0,1,1.15,1.25v1.91h-0.61v-1.7c0-.54-0.16-0.94-0.7-0.94a0.89,0.89,0,0,0-.82,1v1.63h-0.61" transform="translate(-1.55 -2.19)"/><path class="cls-2" d="M220.3,312.56a1.5,1.5,0,0,1,1.64-1.62,1.46,1.46,0,0,1,1.15.51l-0.44.36a0.84,0.84,0,0,0-.71-0.35,1.11,1.11,0,0,0,0,2.22,0.88,0.88,0,0,0,.74-0.34l0.41,0.37a1.42,1.42,0,0,1-1.15.48,1.52,1.52,0,0,1-1.65-1.62" transform="translate(-1.55 -2.19)"/><path class="cls-2" d="M225.09,310.94a1.46,1.46,0,0,1,1.47,1.8h-2.44a1,1,0,0,0,1,.93,1,1,0,0,0,.89-0.47l0.43,0.34a1.54,1.54,0,0,1-1.32.63,1.62,1.62,0,0,1,0-3.24m0.86,1.35a0.85,0.85,0,0,0-1.23-.8,0.89,0.89,0,0,0-.6.8H226Z" transform="translate(-1.55 -2.19)"/><polyline class="cls-2" points="226.49 311.9 225.88 311.9 225.88 309.45 225.88 307 226.49 307 226.49 309.45 226.49 311.9"/><polyline class="cls-2" points="228.18 311.9 227.57 311.9 227.57 309.45 227.57 307 228.18 307 228.18 309.45 228.18 311.9"/><path class="cls-2" d="M231.81,313.7a0.87,0.87,0,0,0,.89-1.06c-0.67,0-1.52,0-1.52.58a0.52,0.52,0,0,0,.63.48m-1.25-.47c0-1,1.12-1,2.14-1a0.66,0.66,0,0,0-.76-0.76,1.28,1.28,0,0,0-.87.36l-0.32-.39a1.81,1.81,0,0,1,1.26-.46,1.14,1.14,0,0,1,1.28,1.21,19.14,19.14,0,0,0,0,2h-0.55a2,2,0,0,1-.05-0.44h0a1.18,1.18,0,0,1-1,.52A1,1,0,0,1,230.56,313.23Z" transform="translate(-1.55 -2.19)"/><path class="cls-2" d="M235.21,314.15a0.83,0.83,0,0,1-.89-1v-1.67h-0.59V311h0.59v-0.88h0.6V311h0.82v0.5h-0.82v1.6c0,0.35.1,0.51,0.43,0.52a0.87,0.87,0,0,0,.36-0.08l0,0.5a1.55,1.55,0,0,1-.52.08" transform="translate(-1.55 -2.19)"/><path class="cls-2" d="M236.68,309.52a0.4,0.4,0,0,1,.41.4,0.41,0.41,0,1,1-.41-0.4m0.3,4.57h-0.61V311H237v3.07Z" transform="translate(-1.55 -2.19)"/><path class="cls-2" d="M239.5,313.67a1.12,1.12,0,1,0-1-1.11,1,1,0,0,0,1,1.11m0-2.73a1.62,1.62,0,1,1-1.65,1.61A1.52,1.52,0,0,1,239.5,310.94Z" transform="translate(-1.55 -2.19)"/><path class="cls-2" d="M242,314.1c0-1,0-2.09,0-3.07h0.58c0,0.13,0,.36,0,0.51h0a1.07,1.07,0,0,1,1-.59,1.09,1.09,0,0,1,1.15,1.25v1.91h-0.61v-1.7c0-.54-0.16-0.94-0.7-0.94a0.89,0.89,0,0,0-.82,1v1.63H242" transform="translate(-1.55 -2.19)"/><path class="cls-2" d="M217.41,322.53a1.12,1.12,0,0,0,0-2.22,1.11,1.11,0,0,0,0,2.22m0.1,0.51a1.28,1.28,0,0,1-1.08-.54h0v2h-0.61v-4.63h0.6v0.48h0a1.23,1.23,0,0,1,1.11-.56A1.62,1.62,0,0,1,217.52,323Z" transform="translate(-1.55 -2.19)"/><path class="cls-2" d="M219.91,323c0-1,0-2.09,0-3.07h0.58c0,0.13,0,.38,0,0.52h0a1,1,0,0,1,1.18-.58l0,0.56a0.88,0.88,0,0,0-1.14,1V323h-0.61" transform="translate(-1.55 -2.19)"/><path class="cls-2" d="M223.6,322.53a1.12,1.12,0,1,0-1-1.11,1,1,0,0,0,1,1.11m0-2.73a1.62,1.62,0,1,1-1.65,1.61A1.52,1.52,0,0,1,223.6,319.8Z" transform="translate(-1.55 -2.19)"/><path class="cls-2" d="M225.9,321.42a1.5,1.5,0,0,1,1.64-1.62,1.46,1.46,0,0,1,1.15.51l-0.44.36a0.84,0.84,0,0,0-.71-0.35,1.11,1.11,0,0,0,0,2.22,0.88,0.88,0,0,0,.74-0.34l0.41,0.37a1.42,1.42,0,0,1-1.15.48,1.52,1.52,0,0,1-1.65-1.62" transform="translate(-1.55 -2.19)"/><path class="cls-2" d="M230.68,319.8a1.46,1.46,0,0,1,1.47,1.8h-2.44a1,1,0,0,0,1,.93,1,1,0,0,0,.89-0.47l0.43,0.34a1.54,1.54,0,0,1-1.32.63,1.62,1.62,0,0,1,0-3.24m0.86,1.35a0.85,0.85,0,0,0-1.23-.8,0.89,0.89,0,0,0-.6.8h1.83Z" transform="translate(-1.55 -2.19)"/><path class="cls-2" d="M232.9,321.1c-0.4-1,.76-1.59,1.71-1.17a1,1,0,0,1,.48.38l-0.42.36a0.82,0.82,0,0,0-.71-0.38,0.46,0.46,0,0,0-.57.4c0,0.47.73,0.41,1.11,0.58a0.87,0.87,0,0,1,.62.78c0,1.25-2,1.21-2.46.44l0.43-.37a1,1,0,0,0,.82.43,0.49,0.49,0,0,0,.61-0.45c0-.58-1-0.41-1.41-0.76a0.67,0.67,0,0,1-.21-0.24" transform="translate(-1.55 -2.19)"/><path class="cls-2" d="M235.78,321.1c-0.4-1,.76-1.59,1.71-1.17a1,1,0,0,1,.48.38l-0.42.36a0.82,0.82,0,0,0-.71-0.38,0.46,0.46,0,0,0-.57.4c0,0.47.73,0.41,1.11,0.58a0.87,0.87,0,0,1,.62.78c0,1.25-2,1.21-2.46.44l0.43-.37a1,1,0,0,0,.82.43,0.49,0.49,0,0,0,.61-0.45c0-.58-1-0.41-1.41-0.76a0.67,0.67,0,0,1-.21-0.24" transform="translate(-1.55 -2.19)"/><circle class="cls-3" cx="138.67" cy="316.91" r="32.4"/><circle class="cls-1" cx="138.67" cy="316.91" r="32.4"/><polyline class="cls-2" points="131.06 314.34 131.7 314.34 131.7 315.3 131.7 316.25 134.02 316.25 134.02 315.3 134.02 314.34 134.67 314.34 134.67 316.63 134.67 318.92 134.02 318.92 134.02 317.87 134.02 316.82 131.7 316.82 131.7 317.87 131.7 318.92 131.06 318.92 131.06 316.63 131.06 314.34"/><path class="cls-2" d="M138.75,320.69a1.12,1.12,0,1,0-1-1.11,1,1,0,0,0,1,1.11m0-2.73a1.62,1.62,0,1,1-1.65,1.61A1.52,1.52,0,0,1,138.75,318Z" transform="translate(-1.55 -2.19)"/><path class="cls-2" d="M142.23,321.17a0.83,0.83,0,0,1-.89-1v-1.67h-0.59V318h0.59v-0.88h0.6V318h0.82v0.5h-0.82v1.6c0,0.35.1,0.51,0.43,0.52a0.87,0.87,0,0,0,.36-0.08l0,0.5a1.55,1.55,0,0,1-.52.08" transform="translate(-1.55 -2.19)"/><path class="cls-2" d="M144.77,318a1.46,1.46,0,0,1,1.47,1.8H143.8a1,1,0,0,0,1,.93,1,1,0,0,0,.89-0.47l0.43,0.34a1.54,1.54,0,0,1-1.32.63,1.62,1.62,0,0,1,0-3.24m0.86,1.35a0.85,0.85,0,0,0-1.23-.8,0.89,0.89,0,0,0-.6.8h1.83Z" transform="translate(-1.55 -2.19)"/><polyline class="cls-2" points="146.17 318.92 145.56 318.92 145.56 316.48 145.56 314.02 146.17 314.02 146.17 316.48 146.17 318.92"/><circle class="cls-3" cx="82.44" cy="229.93" r="32.4"/><circle class="cls-1" cx="82.44" cy="229.93" r="32.4"/><polyline class="cls-2" points="73.23 231.95 72.59 231.95 72.59 229.65 72.59 227.36 73.23 227.36 73.23 229.65 73.23 231.95"/><path class="cls-2" d="M75.87,234.14c0-1,0-2.09,0-3.07h0.58c0,0.13,0,.36,0,0.51h0a1.07,1.07,0,0,1,1-.59,1.09,1.09,0,0,1,1.15,1.25v1.91H78v-1.7c0-.54-0.16-0.94-0.7-0.94a0.89,0.89,0,0,0-.82,1v1.63H75.87" transform="translate(-1.55 -2.19)"/><path class="cls-2" d="M81.08,231.49a1.12,1.12,0,0,0,0,2.22,1.11,1.11,0,0,0,0-2.22M81,231a1.26,1.26,0,0,1,1.11.56h0v-0.48h0.59v4.63H82.08c0-.67,0-1.37,0-2a1.27,1.27,0,0,1-1.09.54A1.62,1.62,0,0,1,81,231Z" transform="translate(-1.55 -2.19)"/><path class="cls-2" d="M86.45,231.07c0,1,0,2.09,0,3.07H85.9c0-.13,0-0.39,0-0.51a1.13,1.13,0,0,1-1,.59A1.09,1.09,0,0,1,83.71,233v-1.91h0.61v1.7c0,0.54.16,0.95,0.7,0.95a0.89,0.89,0,0,0,.82-1v-1.63h0.61" transform="translate(-1.55 -2.19)"/><path class="cls-2" d="M87.82,229.57a0.4,0.4,0,0,1,.41.4,0.41,0.41,0,1,1-.41-0.4m0.3,4.57H87.52v-3.07h0.61v3.07Z" transform="translate(-1.55 -2.19)"/><path class="cls-2" d="M89.19,234.14c0-1,0-2.09,0-3.07h0.58c0,0.13,0,.38,0,0.52h0A1,1,0,0,1,91,231l0,0.56a0.88,0.88,0,0,0-1.14,1v1.61H89.19" transform="translate(-1.55 -2.19)"/><path class="cls-2" d="M91.75,231.07c0.32,0.8.62,1.63,1,2.41l0.85-2.41h0.65l-1.49,3.8a1.12,1.12,0,0,1-1.46.78l0.06-.54A0.64,0.64,0,0,0,92,235a3.79,3.79,0,0,0,.41-0.89l-1.32-3.07h0.68" transform="translate(-1.55 -2.19)"/><path class="cls-3" d="M98,32H13.39a1.81,1.81,0,0,0-1.8,1.8v18a1.78,1.78,0,0,0,1.8,1.8H98" transform="translate(-1.55 -2.19)"/><path class="cls-1" d="M98,32H13.39a1.81,1.81,0,0,0-1.8,1.8v18a1.78,1.78,0,0,0,1.8,1.8H98" transform="translate(-1.55 -2.19)"/><path class="cls-2" d="M40.35,41.54c0-.84-1-0.73-1.81-0.73v1.46c0.85,0,1.81.09,1.81-.74m0.65,0a1.22,1.22,0,0,1-1.11,1.21l1.28,2.11H40.39l-1.17-2H38.53v2H37.89V40.27C39.35,40.26,41,40.06,41,41.54Z" transform="translate(-1.55 -2.19)"/><path class="cls-2" d="M43.15,41.7a1.46,1.46,0,0,1,1.47,1.8H42.18a1,1,0,0,0,1,.93A1,1,0,0,0,44.07,44l0.43,0.34a1.54,1.54,0,0,1-1.32.63,1.62,1.62,0,0,1,0-3.24M44,43a0.85,0.85,0,0,0-1.23-.8,0.89,0.89,0,0,0-.6.8H44Z" transform="translate(-1.55 -2.19)"/><path class="cls-2" d="M45.36,43c-0.4-1,.76-1.59,1.71-1.17a1,1,0,0,1,.48.38l-0.42.36a0.82,0.82,0,0,0-.71-0.38,0.46,0.46,0,0,0-.57.4c0,0.47.73,0.41,1.11,0.58a0.87,0.87,0,0,1,.62.78c0,1.25-2,1.21-2.46.44L45.55,44a1,1,0,0,0,.82.43A0.49,0.49,0,0,0,47,44c0-.58-1-0.41-1.41-0.76A0.67,0.67,0,0,1,45.36,43" transform="translate(-1.55 -2.19)"/><path class="cls-2" d="M49.74,41.7a1.46,1.46,0,0,1,1.47,1.8H48.77a1,1,0,0,0,1,.93A1,1,0,0,0,50.66,44l0.43,0.34a1.54,1.54,0,0,1-1.32.63,1.62,1.62,0,0,1,0-3.24M50.6,43a0.85,0.85,0,0,0-1.23-.8,0.89,0.89,0,0,0-.6.8H50.6Z" transform="translate(-1.55 -2.19)"/><path class="cls-2" d="M52.06,44.85c0-1,0-2.09,0-3.07h0.58c0,0.13,0,.38,0,0.52h0a1,1,0,0,1,1.18-.58l0,0.56a0.88,0.88,0,0,0-1.14,1v1.61H52.06" transform="translate(-1.55 -2.19)"/><path class="cls-2" d="M55.85,44.85H55.19l-1.25-3.07h0.67c0.3,0.8.59,1.63,0.91,2.42l0.91-2.42h0.65" transform="translate(-1.55 -2.19)"/><path class="cls-2" d="M58.7,44.45a0.87,0.87,0,0,0,.89-1.06c-0.67,0-1.52,0-1.52.58a0.52,0.52,0,0,0,.63.48M57.45,44c0-1,1.12-1,2.14-1a0.66,0.66,0,0,0-.76-0.76,1.28,1.28,0,0,0-.87.36l-0.32-.39a1.81,1.81,0,0,1,1.26-.46,1.14,1.14,0,0,1,1.28,1.21,19.14,19.14,0,0,0,0,2H59.66a2,2,0,0,1-.05-0.44h0a1.18,1.18,0,0,1-1,.52A1,1,0,0,1,57.45,44Z" transform="translate(-1.55 -2.19)"/><path class="cls-2" d="M62.1,44.91a0.83,0.83,0,0,1-.89-1V42.28H60.62v-0.5h0.59V40.9h0.6v0.88h0.82v0.5H61.81v1.6c0,0.35.1,0.51,0.43,0.52a0.87,0.87,0,0,0,.36-0.08l0,0.5a1.55,1.55,0,0,1-.52.08" transform="translate(-1.55 -2.19)"/><path class="cls-2" d="M63.56,40.28a0.4,0.4,0,0,1,.41.4,0.41,0.41,0,1,1-.41-0.4m0.3,4.57H63.26V41.78h0.61v3.07Z" transform="translate(-1.55 -2.19)"/><path class="cls-2" d="M66.38,44.43a1.12,1.12,0,1,0-1-1.11,1,1,0,0,0,1,1.11m0-2.73a1.62,1.62,0,1,1-1.65,1.61A1.52,1.52,0,0,1,66.38,41.7Z" transform="translate(-1.55 -2.19)"/><path class="cls-2" d="M68.88,44.85c0-1,0-2.09,0-3.07h0.58c0,0.13,0,.36,0,0.51h0a1.07,1.07,0,0,1,1-.59,1.09,1.09,0,0,1,1.15,1.25v1.91H71v-1.7c0-.54-0.16-0.94-0.7-0.94a0.89,0.89,0,0,0-.82,1v1.63H68.88" transform="translate(-1.55 -2.19)"/><line class="cls-1" x1="61.78" y1="51.41" x2="96.52" y2="95.44"/><path class="cls-2" d="M63.61,53.39l-0.29.22H62.86L62.35,53l0.58-.43ZM63,53.82l-0.18-.22h0.47Z" transform="translate(-1.55 -2.19)"/><polygon class="cls-2" points="96.52 95.44 92.05 92.41 94.64 90.36 96.52 95.44"/><path class="cls-2" d="M94.21,94.61l3.13,2.09L96,93.13Zm4.18,2.77-0.61.47L93,94.64,96.37,92Z" transform="translate(-1.55 -2.19)"/><line class="cls-1" x1="137.02" y1="95.22" x2="157.97" y2="52.16"/><polygon class="cls-2" points="137.34 95.4 137.16 95.8 136.62 95.36 136.58 95.33 136.69 95.08 137.34 95.4"/><polygon class="cls-2" points="157.21 57.53 154.22 56.05 157.97 52.16 157.21 57.53"/><path class="cls-2" d="M156.35,58.14l2.12,1L159,55.4Zm2.7,2.12-3.89-1.91,3.85-4h0.86Z" transform="translate(-1.55 -2.19)"/><path class="cls-3" d="M193.32,32.54a2.17,2.17,0,0,1,2.2,2.16V52.16a2.18,2.18,0,0,1-2.2,2.2H125.68a2.17,2.17,0,0,1-2.16-2.2V34.7a2.17,2.17,0,0,1,2.16-2.16h67.64Z" transform="translate(-1.55 -2.19)"/><path class="cls-1" d="M193.32,32.54a2.17,2.17,0,0,1,2.2,2.16V52.16a2.18,2.18,0,0,1-2.2,2.2H125.68a2.17,2.17,0,0,1-2.16-2.2V34.7a2.17,2.17,0,0,1,2.16-2.16h67.64Z" transform="translate(-1.55 -2.19)"/><path class="cls-2" d="M152.45,42.22c0-.84-1-0.73-1.81-0.73V43c0.85,0,1.81.09,1.81-.74m0.65,0A1.22,1.22,0,0,1,152,43.43l1.28,2.11h-0.78l-1.17-2h-0.69v2H150V40.95C151.45,40.94,153.1,40.75,153.1,42.22Z" transform="translate(-1.55 -2.19)"/><path class="cls-2" d="M155.25,42.38a1.46,1.46,0,0,1,1.47,1.8h-2.44a1,1,0,0,0,1,.93,1,1,0,0,0,.89-0.47L156.6,45a1.54,1.54,0,0,1-1.32.63,1.62,1.62,0,0,1,0-3.24m0.86,1.35a0.85,0.85,0,0,0-1.23-.8,0.89,0.89,0,0,0-.6.8h1.83Z" transform="translate(-1.55 -2.19)"/><path class="cls-2" d="M159.18,45.11a1.12,1.12,0,0,0,0-2.22,1.11,1.11,0,0,0,0,2.22m0.1,0.51a1.28,1.28,0,0,1-1.08-.54h0v2h-0.61V42.47h0.6v0.48h0a1.23,1.23,0,0,1,1.11-.56A1.62,1.62,0,0,1,159.29,45.62Z" transform="translate(-1.55 -2.19)"/><path class="cls-2" d="M163.14,45.11a1.12,1.12,0,1,0-1-1.11,1,1,0,0,0,1,1.11m0-2.73A1.62,1.62,0,1,1,161.48,44,1.52,1.52,0,0,1,163.14,42.38Z" transform="translate(-1.55 -2.19)"/><path class="cls-2" d="M165.64,45.54c0-1,0-2.09,0-3.07h0.58c0,0.13,0,.38,0,0.52h0a1,1,0,0,1,1.18-.58l0,0.56a0.88,0.88,0,0,0-1.14,1v1.61h-0.61" transform="translate(-1.55 -2.19)"/><path class="cls-2" d="M168.88,45.59a0.83,0.83,0,0,1-.89-1V43H167.4v-0.5H168V41.58h0.6v0.88h0.82V43h-0.82v1.6c0,0.35.1,0.51,0.43,0.52a0.87,0.87,0,0,0,.36-0.08l0,0.5a1.55,1.55,0,0,1-.52.08" transform="translate(-1.55 -2.19)"/><path class="cls-3" d="M273.17,71.57h-84.6a1.78,1.78,0,0,0-1.8,1.8v18a1.78,1.78,0,0,0,1.8,1.8h84.6" transform="translate(-1.55 -2.19)"/><path class="cls-1" d="M273.17,71.57h-84.6a1.78,1.78,0,0,0-1.8,1.8v18a1.78,1.78,0,0,0,1.8,1.8h84.6" transform="translate(-1.55 -2.19)"/><path class="cls-2" d="M215.52,81.1c0-.84-1-0.73-1.81-0.73v1.46c0.85,0,1.81.09,1.81-.74m0.65,0a1.22,1.22,0,0,1-1.11,1.21l1.28,2.11h-0.78l-1.17-2h-0.69v2h-0.64V79.83C214.52,79.82,216.17,79.63,216.17,81.1Z" transform="translate(-1.55 -2.19)"/><path class="cls-2" d="M218.32,81.26a1.46,1.46,0,0,1,1.47,1.8h-2.44a1,1,0,0,0,1,.93,1,1,0,0,0,.89-0.47l0.43,0.34a1.54,1.54,0,0,1-1.32.63,1.62,1.62,0,0,1,0-3.24m0.86,1.35a0.85,0.85,0,0,0-1.23-.8,0.89,0.89,0,0,0-.6.8h1.83Z" transform="translate(-1.55 -2.19)"/><path class="cls-2" d="M220.54,82.56c-0.4-1,.76-1.59,1.71-1.17a1,1,0,0,1,.48.38l-0.42.36a0.82,0.82,0,0,0-.71-0.38,0.46,0.46,0,0,0-.57.4c0,0.47.73,0.41,1.11,0.58a0.87,0.87,0,0,1,.62.78c0,1.25-2,1.21-2.46.44l0.43-.37a1,1,0,0,0,.82.43,0.49,0.49,0,0,0,.61-0.45c0-.58-1-0.41-1.41-0.76a0.67,0.67,0,0,1-.21-0.24" transform="translate(-1.55 -2.19)"/><path class="cls-2" d="M224.91,81.26a1.46,1.46,0,0,1,1.47,1.8h-2.44a1,1,0,0,0,1,.93,1,1,0,0,0,.89-0.47l0.43,0.34a1.54,1.54,0,0,1-1.32.63,1.62,1.62,0,0,1,0-3.24m0.86,1.35a0.85,0.85,0,0,0-1.23-.8,0.89,0.89,0,0,0-.6.8h1.83Z" transform="translate(-1.55 -2.19)"/><path class="cls-2" d="M227.24,84.42c0-1,0-2.09,0-3.07h0.58c0,0.13,0,.38,0,0.52h0a1,1,0,0,1,1.18-.58l0,0.56a0.88,0.88,0,0,0-1.14,1v1.61h-0.61" transform="translate(-1.55 -2.19)"/><path class="cls-2" d="M231,84.42h-0.66l-1.25-3.07h0.67c0.3,0.8.59,1.63,0.91,2.42l0.91-2.42h0.65" transform="translate(-1.55 -2.19)"/><path class="cls-2" d="M233.87,84a0.87,0.87,0,0,0,.89-1.06c-0.67,0-1.52,0-1.52.58a0.52,0.52,0,0,0,.63.48m-1.25-.47c0-1,1.12-1,2.14-1a0.66,0.66,0,0,0-.76-0.76,1.28,1.28,0,0,0-.87.36l-0.32-.39a1.81,1.81,0,0,1,1.26-.46,1.14,1.14,0,0,1,1.28,1.21,19.14,19.14,0,0,0,0,2h-0.55a2,2,0,0,1-.05-0.44h0a1.18,1.18,0,0,1-1,.52A1,1,0,0,1,232.62,83.55Z" transform="translate(-1.55 -2.19)"/><path class="cls-2" d="M237.28,84.47a0.83,0.83,0,0,1-.89-1V81.84h-0.59v-0.5h0.59V80.46H237v0.88h0.82v0.5H237v1.6c0,0.35.1,0.51,0.43,0.52a0.87,0.87,0,0,0,.36-0.08l0,0.5a1.55,1.55,0,0,1-.52.08" transform="translate(-1.55 -2.19)"/><path class="cls-2" d="M238.74,79.84a0.4,0.4,0,0,1,.41.4,0.41,0.41,0,1,1-.41-0.4m0.3,4.57h-0.61V81.35H239v3.07Z" transform="translate(-1.55 -2.19)"/><path class="cls-2" d="M241.56,84a1.12,1.12,0,1,0-1-1.11,1,1,0,0,0,1,1.11m0-2.73a1.62,1.62,0,1,1-1.65,1.61A1.52,1.52,0,0,1,241.56,81.26Z" transform="translate(-1.55 -2.19)"/><path class="cls-2" d="M244.06,84.42c0-1,0-2.09,0-3.07h0.58c0,0.13,0,.36,0,0.51h0a1.07,1.07,0,0,1,1-.59,1.09,1.09,0,0,1,1.15,1.25v1.91h-0.61v-1.7c0-.54-0.16-0.94-0.7-0.94a0.89,0.89,0,0,0-.82,1v1.63h-0.61" transform="translate(-1.55 -2.19)"/><line class="cls-1" x1="269.5" y1="132.12" x2="323.86" y2="98.5"/><polygon class="cls-2" points="269.68 132.41 269.68 132.41 269.5 132.12 269.68 132.41"/><polygon class="cls-2" points="320.36 102.6 318.6 99.76 323.86 98.5 320.36 102.6"/><path class="cls-2" d="M320.73,102.2l1.22,2,2.48-2.88Zm4.86-1.19-3.71,4.39-2.27-3.67,5.62-1.37Z" transform="translate(-1.55 -2.19)"/><path class="cls-3" d="M409.21,2.55h-84.6a1.83,1.83,0,0,0-1.8,1.8v18a1.81,1.81,0,0,0,1.8,1.8h84.6" transform="translate(-1.55 -2.19)"/><path class="cls-1" d="M409.21,2.55h-84.6a1.83,1.83,0,0,0-1.8,1.8v18a1.81,1.81,0,0,0,1.8,1.8h84.6" transform="translate(-1.55 -2.19)"/><path class="cls-2" d="M351.6,12.09c0-.84-1-0.73-1.81-0.73v1.46c0.85,0,1.81.09,1.81-.74m0.65,0a1.22,1.22,0,0,1-1.11,1.21l1.28,2.11h-0.78l-1.17-2h-0.69v2h-0.64V10.82C350.6,10.81,352.25,10.62,352.25,12.09Z" transform="translate(-1.55 -2.19)"/><path class="cls-2" d="M354.4,12.25a1.46,1.46,0,0,1,1.47,1.8h-2.44a1,1,0,0,0,1,.93,1,1,0,0,0,.89-0.47l0.43,0.34a1.54,1.54,0,0,1-1.32.63,1.49,1.49,0,0,1-1.62-1.61,1.49,1.49,0,0,1,1.59-1.63m0.86,1.35a0.85,0.85,0,0,0-1.23-.8,0.89,0.89,0,0,0-.6.8h1.83Z" transform="translate(-1.55 -2.19)"/><path class="cls-2" d="M356.62,13.55c-0.4-1,.76-1.59,1.71-1.17a1,1,0,0,1,.48.38l-0.42.36a0.82,0.82,0,0,0-.71-0.38,0.46,0.46,0,0,0-.57.4c0,0.47.73,0.41,1.11,0.58a0.87,0.87,0,0,1,.62.78c0,1.25-2,1.21-2.46.44l0.43-.37a1,1,0,0,0,.82.43,0.49,0.49,0,0,0,.61-0.45c0-.58-1-0.41-1.41-0.76a0.67,0.67,0,0,1-.21-0.24" transform="translate(-1.55 -2.19)"/><path class="cls-2" d="M361,12.25a1.46,1.46,0,0,1,1.47,1.8H360a1,1,0,0,0,1,.93,1,1,0,0,0,.89-0.47l0.43,0.34a1.54,1.54,0,0,1-1.32.63,1.49,1.49,0,0,1-1.62-1.61A1.49,1.49,0,0,1,361,12.25m0.86,1.35a0.85,0.85,0,0,0-1.23-.8,0.89,0.89,0,0,0-.6.8h1.83Z" transform="translate(-1.55 -2.19)"/><path class="cls-2" d="M363.32,15.41c0-1,0-2.09,0-3.07h0.58c0,0.13,0,.38,0,0.52h0a1,1,0,0,1,1.18-.58l0,0.56a0.88,0.88,0,0,0-1.14,1v1.61h-0.61" transform="translate(-1.55 -2.19)"/><path class="cls-2" d="M367.11,15.41h-0.66l-1.25-3.07h0.67c0.3,0.8.59,1.63,0.91,2.42l0.91-2.42h0.65" transform="translate(-1.55 -2.19)"/><path class="cls-2" d="M370,15a0.87,0.87,0,0,0,.89-1.06c-0.67,0-1.52,0-1.52.58A0.52,0.52,0,0,0,370,15m-1.25-.47c0-1,1.12-1,2.14-1a0.66,0.66,0,0,0-.76-0.76,1.28,1.28,0,0,0-.87.36l-0.32-.39a1.81,1.81,0,0,1,1.26-.46,1.14,1.14,0,0,1,1.28,1.21,19.14,19.14,0,0,0,0,2h-0.55a2,2,0,0,1-.05-0.44h0a1.18,1.18,0,0,1-1,.52A1,1,0,0,1,368.7,14.54Z" transform="translate(-1.55 -2.19)"/><path class="cls-2" d="M373.36,15.46a0.83,0.83,0,0,1-.89-1V12.83h-0.59v-0.5h0.59V11.45h0.6v0.88h0.82v0.5h-0.82v1.6c0,0.35.1,0.51,0.43,0.52a0.87,0.87,0,0,0,.36-0.08l0,0.5a1.55,1.55,0,0,1-.52.08" transform="translate(-1.55 -2.19)"/><path class="cls-2" d="M374.82,10.83a0.4,0.4,0,0,1,.41.4,0.41,0.41,0,1,1-.41-0.4m0.3,4.57h-0.61V12.33h0.61v3.07Z" transform="translate(-1.55 -2.19)"/><path class="cls-2" d="M377.64,15a1,1,0,0,0,1-1.11,1,1,0,1,0-2,0,1,1,0,0,0,1,1.11m0-2.73a1.52,1.52,0,0,1,1.66,1.61,1.66,1.66,0,0,1-3.31,0A1.51,1.51,0,0,1,377.64,12.25Z" transform="translate(-1.55 -2.19)"/><path class="cls-2" d="M380.14,15.41c0-1,0-2.09,0-3.07h0.58c0,0.13,0,.36,0,0.51h0a1.07,1.07,0,0,1,1-.59,1.09,1.09,0,0,1,1.15,1.25v1.91h-0.61V13.7c0-.54-0.16-0.94-0.7-0.94a0.89,0.89,0,0,0-.82,1v1.63h-0.61" transform="translate(-1.55 -2.19)"/><line class="cls-1" x1="346.61" y1="22.32" x2="346.61" y2="49.03"/><path class="cls-2" d="M348.52,24.15H347.8V23.43h0.72v0.72Zm0,0.36H347.8V24.15h0.72v0.36Z" transform="translate(-1.55 -2.19)"/><polygon class="cls-2" points="346.61 49.03 344.92 43.92 348.26 43.92 346.61 49.03"/><path class="cls-2" d="M347,46.47l1.19,3.6,1.15-3.6H347Zm1.44,5.08-0.5.07L346,45.75h4.32Z" transform="translate(-1.55 -2.19)"/><line class="cls-1" x1="357.12" y1="49.18" x2="357.12" y2="21.6"/><polygon class="cls-2" points="357.48 49.61 356.83 49.5 356.76 49.5 356.76 49.18 357.48 49.18 357.48 49.61"/><polygon class="cls-2" points="357.12 21.6 358.81 26.75 355.46 26.75 357.12 21.6"/><polygon class="cls-1" points="357.12 21.6 358.81 26.75 355.46 26.75 357.12 21.6"/><line class="cls-1" x1="367.63" y1="109.91" x2="368.28" y2="276.12"/><polygon class="cls-2" points="367.99 109.91 367.27 109.91 367.27 109.69 367.34 109.66 367.96 109.26 367.99 109.91"/><polygon class="cls-2" points="368.28 276.12 366.59 271.01 369.94 270.97 368.28 276.12"/><path class="cls-2" d="M368.64,273.56l1.19,3.6,1.15-3.64Zm1.4,5.26-0.5-.25-1.87-5.72,4.32,0Z" transform="translate(-1.55 -2.19)"/><line class="cls-1" x1="337.86" y1="228.2" x2="338.51" y2="276.3"/><polygon class="cls-2" points="338.22 228.17 337.5 228.2 337.46 227.99 338.18 227.59 338.22 228.17"/><polygon class="cls-2" points="338.51 276.3 336.78 271.19 340.13 271.15 338.51 276.3"/><path class="cls-2" d="M338.83,273.74l1.22,3.6,1.12-3.64Zm1.55,5-0.5.29-2.05-6,4.32-.07Z" transform="translate(-1.55 -2.19)"/><line class="cls-1" x1="269.53" y1="166.18" x2="295.27" y2="182.05"/><path class="cls-2" d="M271.26,168l-0.18.32Zm-0.4.61h0l0.14-.22Z" transform="translate(-1.55 -2.19)"/><polygon class="cls-2" points="295.27 182.05 290.02 180.79 291.78 177.95 295.27 182.05"/><path class="cls-2" d="M292.14,182.73l3.67,0.9-2.45-2.88Zm4.9,1.19-0.18.29-0.22.36L291,183.2l2.27-3.67Z" transform="translate(-1.55 -2.19)"/><path class="cls-3" d="M317.16,249.66h-84.6a1.78,1.78,0,0,0-1.8,1.8v18a1.81,1.81,0,0,0,1.8,1.8h84.6" transform="translate(-1.55 -2.19)"/><path class="cls-1" d="M317.16,249.66h-84.6a1.78,1.78,0,0,0-1.8,1.8v18a1.81,1.81,0,0,0,1.8,1.8h84.6" transform="translate(-1.55 -2.19)"/><path class="cls-2" d="M263.2,257.89c0.34,1.21.66,2.46,1,3.65l1.08-3.65H266c0.36,1.21.7,2.46,1.08,3.65l1-3.65h0.68l-1.35,4.59h-0.67c-0.38-1.22-.73-2.48-1.13-3.69l-1.11,3.69h-0.67l-1.35-4.59h0.69" transform="translate(-1.55 -2.19)"/><path class="cls-2" d="M270.16,262.07A0.87,0.87,0,0,0,271,261c-0.67,0-1.52,0-1.52.58a0.52,0.52,0,0,0,.63.48m-1.25-.47c0-1,1.12-1,2.14-1a0.66,0.66,0,0,0-.76-0.76,1.28,1.28,0,0,0-.87.36l-0.32-.39a1.81,1.81,0,0,1,1.26-.46,1.14,1.14,0,0,1,1.28,1.21,19.14,19.14,0,0,0,0,2h-0.55a2,2,0,0,1-.05-0.44h0a1.18,1.18,0,0,1-1,.52A1,1,0,0,1,268.91,261.6Z" transform="translate(-1.55 -2.19)"/><path class="cls-2" d="M273,257.9a0.4,0.4,0,0,1,.41.4,0.41,0.41,0,1,1-.41-0.4m0.3,4.57h-0.61V259.4h0.61v3.07Z" transform="translate(-1.55 -2.19)"/><path class="cls-2" d="M275.3,262.53a0.83,0.83,0,0,1-.89-1V259.9h-0.59v-0.5h0.59v-0.88H275v0.88h0.82v0.5H275v1.6c0,0.35.1,0.51,0.43,0.52a0.87,0.87,0,0,0,.36-0.08l0,0.5a1.55,1.55,0,0,1-.52.08" transform="translate(-1.55 -2.19)"/><path class="cls-2" d="M276.77,257.9a0.4,0.4,0,0,1,.41.4,0.41,0.41,0,1,1-.41-0.4m0.3,4.57h-0.61V259.4h0.61v3.07Z" transform="translate(-1.55 -2.19)"/><path class="cls-2" d="M278.14,262.47c0-1,0-2.09,0-3.07h0.58c0,0.13,0,.36,0,0.51h0a1.07,1.07,0,0,1,1-.59,1.09,1.09,0,0,1,1.15,1.25v1.91h-0.61v-1.7c0-.54-0.16-0.94-0.7-0.94a0.89,0.89,0,0,0-.82,1v1.63h-0.61" transform="translate(-1.55 -2.19)"/><path class="cls-2" d="M283.35,259.82a1.08,1.08,0,0,0,0,2.16,1.08,1.08,0,0,0,0-2.16m1.61,2.49a1.53,1.53,0,0,1-1.7,1.71,2.25,2.25,0,0,1-1.5-.56l0.39-.47a1.57,1.57,0,0,0,1.12.5c0.88,0,1.17-.62,1.07-1.53a1.25,1.25,0,0,1-1.08.53,1.59,1.59,0,0,1,0-3.18,1.3,1.3,0,0,1,1.12.58V259.4H285v2.92Z" transform="translate(-1.55 -2.19)"/><line class="cls-1" x1="281.63" y1="247.46" x2="301.82" y2="223.74"/><path class="cls-2" d="M283.18,249.66h-0.47l0.18-.25Zm0.25,0.22-0.68.83-0.54-.47,0.5-.58h0.47Z" transform="translate(-1.55 -2.19)"/><polygon class="cls-2" points="301.82 223.74 299.77 228.71 297.25 226.55 301.82 223.74"/><path class="cls-2" d="M299.38,228.78l1.8,1.55,1.44-3.53Zm4.28-2.63-2.2,5.36-3.28-2.81,4.9-3Z" transform="translate(-1.55 -2.19)"/><line class="cls-1" x1="257.54" y1="312.08" x2="321.26" y2="307.66"/><path class="cls-2" d="M259.09,314.1l0-.18Zm0,0.54h0l0-.36Z" transform="translate(-1.55 -2.19)"/><polygon class="cls-2" points="321.26 307.66 316.26 309.67 316.04 306.32 321.26 307.66"/><path class="cls-2" d="M318.13,311.33l3.53-1.4L318,309Zm4.68-1.87v0.47l0,0.29-5.36,2.16L317.2,308Z" transform="translate(-1.55 -2.19)"/><line class="cls-1" x1="132.3" y1="149.18" x2="153.36" y2="187.2"/><polygon class="cls-2" points="131.98 149.36 131.98 149.36 132.3 149.18 131.98 149.36"/><polygon class="cls-2" points="153.36 187.2 149.4 183.49 152.32 181.87 153.36 187.2"/><path class="cls-2" d="M151.56,185.76l2.77,2.59-0.72-3.71Zm3.67,3.46-0.58.29-0.11.07-4.21-4,3.78-2.09Z" transform="translate(-1.55 -2.19)"/><line class="cls-1" x1="193" y1="193.72" x2="217.98" y2="170.96"/><path class="cls-2" d="M194.55,195.91l-0.25-.25Zm0.25,0.25h0l-0.18-.18Z" transform="translate(-1.55 -2.19)"/><polygon class="cls-2" points="215.32 175.64 213.05 173.2 217.98 170.96 215.32 175.64"/><path class="cls-2" d="M215.21,175.5l1.58,1.73,1.87-3.28Zm4.28-2.38,0.29,0.29-2.84,5-2.92-3.2,5.26-2.38Z" transform="translate(-1.55 -2.19)"/><line class="cls-1" x1="185.08" y1="243.68" x2="209.2" y2="286.16"/><path class="cls-2" d="M186.91,245.7l-0.29.18Zm-0.61.36h0l0.14-.07Z" transform="translate(-1.55 -2.19)"/><polygon class="cls-2" points="209.2 286.16 205.2 282.53 208.12 280.87 209.2 286.16"/><path class="cls-2" d="M207.36,284.76l2.81,2.56-0.76-3.71Zm3.71,3.42-0.25.11-0.4.25-4.25-3.89,3.74-2.16Z" transform="translate(-1.55 -2.19)"/><path class="cls-3" d="M269.57,388.87H185a1.78,1.78,0,0,0-1.8,1.8v18a1.81,1.81,0,0,0,1.8,1.8h84.6" transform="translate(-1.55 -2.19)"/><path class="cls-1" d="M269.57,388.87H185a1.78,1.78,0,0,0-1.8,1.8v18a1.81,1.81,0,0,0,1.8,1.8h84.6" transform="translate(-1.55 -2.19)"/><path class="cls-2" d="M210.54,401.23a1.42,1.42,0,0,0,1.23-.61l0.51,0.35a2.06,2.06,0,0,1-1.75.83,2.29,2.29,0,0,1-2.24-1.44,2.75,2.75,0,0,1,0-2A2.39,2.39,0,0,1,211,397a1.78,1.78,0,0,1,1.17.67l-0.51.39a1.38,1.38,0,0,0-1.14-.54,1.68,1.68,0,0,0-1.74,1.84,1.65,1.65,0,0,0,1.72,1.85" transform="translate(-1.55 -2.19)"/><path class="cls-2" d="M213.81,401.28a0.87,0.87,0,0,0,.89-1.06c-0.67,0-1.52,0-1.52.58a0.52,0.52,0,0,0,.63.48m-1.25-.47c0-1,1.12-1,2.14-1a0.66,0.66,0,0,0-.76-0.76,1.28,1.28,0,0,0-.87.36l-0.32-.39a1.81,1.81,0,0,1,1.26-.46,1.14,1.14,0,0,1,1.28,1.21,19.14,19.14,0,0,0,0,2h-0.55a2,2,0,0,1-.05-0.44h0a1.18,1.18,0,0,1-1,.52A1,1,0,0,1,212.56,400.82Z" transform="translate(-1.55 -2.19)"/><path class="cls-2" d="M216.3,401.69c0-1,0-2.09,0-3.07h0.58c0,0.13,0,.36,0,0.51h0a1.07,1.07,0,0,1,1-.59,1.09,1.09,0,0,1,1.15,1.25v1.91h-0.61V400c0-.54-0.16-0.94-0.7-0.94a0.89,0.89,0,0,0-.82,1v1.63H216.3" transform="translate(-1.55 -2.19)"/><path class="cls-2" d="M219.87,400.15a1.5,1.5,0,0,1,1.64-1.62,1.46,1.46,0,0,1,1.15.51l-0.44.36a0.84,0.84,0,0,0-.71-0.35,1.11,1.11,0,0,0,0,2.22,0.88,0.88,0,0,0,.74-0.34l0.41,0.37a1.42,1.42,0,0,1-1.15.48,1.52,1.52,0,0,1-1.65-1.62" transform="translate(-1.55 -2.19)"/><path class="cls-2" d="M224.66,398.53a1.46,1.46,0,0,1,1.47,1.8H223.7a1,1,0,0,0,1,.93,1,1,0,0,0,.89-0.47l0.43,0.34a1.54,1.54,0,0,1-1.32.63,1.62,1.62,0,0,1,0-3.24m0.86,1.35a0.85,0.85,0,0,0-1.23-.8,0.89,0.89,0,0,0-.6.8h1.83Z" transform="translate(-1.55 -2.19)"/><polyline class="cls-2" points="226.06 399.49 225.45 399.49 225.45 397.04 225.45 394.59 226.06 394.59 226.06 397.04 226.06 399.49"/><path class="cls-2" d="M231.26,401.74a0.83,0.83,0,0,1-.89-1v-1.67h-0.59v-0.5h0.59v-0.88H231v0.88h0.82v0.5H231v1.6c0,0.35.1,0.51,0.43,0.52a0.87,0.87,0,0,0,.36-0.08l0,0.5a1.55,1.55,0,0,1-.52.08" transform="translate(-1.55 -2.19)"/><path class="cls-2" d="M233.43,401.28a0.87,0.87,0,0,0,.89-1.06c-0.67,0-1.52,0-1.52.58a0.52,0.52,0,0,0,.63.48m-1.25-.47c0-1,1.12-1,2.14-1a0.66,0.66,0,0,0-.76-0.76,1.28,1.28,0,0,0-.87.36l-0.32-.39a1.81,1.81,0,0,1,1.26-.46,1.14,1.14,0,0,1,1.28,1.21,19.14,19.14,0,0,0,0,2H234.4a2,2,0,0,1-.05-0.44h0a1.18,1.18,0,0,1-1,.52A1,1,0,0,1,232.18,400.82Z" transform="translate(-1.55 -2.19)"/><path class="cls-2" d="M237.54,401.26a1.12,1.12,0,0,0,0-2.22,1.11,1.11,0,0,0,0,2.22m0.1,0.51a1.3,1.3,0,0,1-1.11-.57h0v0.49h-0.59v-4.9h0.61v2.29h0a1.28,1.28,0,0,1,1.1-.54A1.62,1.62,0,0,1,237.65,401.77Z" transform="translate(-1.55 -2.19)"/><polyline class="cls-2" points="239.12 399.49 238.51 399.49 238.51 397.04 238.51 394.59 239.12 394.59 239.12 397.04 239.12 399.49"/><path class="cls-2" d="M243.11,398.53a1.46,1.46,0,0,1,1.47,1.8h-2.44a1,1,0,0,0,1,.93,1,1,0,0,0,.89-0.47l0.43,0.34a1.54,1.54,0,0,1-1.32.63,1.62,1.62,0,0,1,0-3.24m0.86,1.35a0.85,0.85,0,0,0-1.23-.8,0.89,0.89,0,0,0-.6.8H244Z" transform="translate(-1.55 -2.19)"/><line class="cls-1" x1="225.07" y1="346.72" x2="224.86" y2="386.68"/><path class="cls-2" d="M226.62,348.91h0Z" transform="translate(-1.55 -2.19)"/><polygon class="cls-2" points="226.58 381.53 224.86 386.68 223.24 381.53 226.58 381.53"/><path class="cls-2" d="M226.44,387.68l1.19-3.6h-2.34Zm2.16-4.32-1.8,5.51H226l-1.76-5.51h4.32Zm-2.2,6.66L226,388.87h0.76Z" transform="translate(-1.55 -2.19)"/><line class="cls-1" x1="202.93" y1="386.32" x2="162.54" y2="339.3"/><path class="cls-2" d="M205.27,388.87h-1l-0.11-.14,0.58-.47Zm0.18,0.22-0.54.47-0.61-.68h1Z" transform="translate(-1.55 -2.19)"/><polygon class="cls-2" points="167.15 342.11 164.63 344.27 162.54 339.3 167.15 342.11"/><path class="cls-2" d="M166.32,345.89l1.8-1.55-3.28-1.94Zm3-1.62L166,347.07l-2.34-5.65,0.36-.4Z" transform="translate(-1.55 -2.19)"/><path class="cls-3" d="M142.53,388.44H57.93a1.78,1.78,0,0,0-1.8,1.8v18a1.78,1.78,0,0,0,1.8,1.8h84.6" transform="translate(-1.55 -2.19)"/><path class="cls-1" d="M142.53,388.44H57.93a1.78,1.78,0,0,0-1.8,1.8v18a1.78,1.78,0,0,0,1.8,1.8h84.6" transform="translate(-1.55 -2.19)"/><path class="cls-2" d="M80.1,396.7c0.34,1.21.66,2.46,1,3.65l1.08-3.65h0.71c0.36,1.21.7,2.46,1.08,3.65l1-3.65h0.68l-1.35,4.59H83.67c-0.38-1.22-.73-2.48-1.13-3.69l-1.11,3.69H80.76l-1.35-4.59H80.1" transform="translate(-1.55 -2.19)"/><path class="cls-2" d="M87.06,400.89a0.87,0.87,0,0,0,.89-1.06c-0.67,0-1.52,0-1.52.58a0.52,0.52,0,0,0,.63.48m-1.25-.47c0-1,1.12-1,2.14-1a0.66,0.66,0,0,0-.76-0.76,1.28,1.28,0,0,0-.87.36L86,398.59a1.81,1.81,0,0,1,1.26-.46,1.14,1.14,0,0,1,1.28,1.21,19.14,19.14,0,0,0,0,2H88a2,2,0,0,1-.05-0.44h0a1.18,1.18,0,0,1-1,.52A1,1,0,0,1,85.81,400.42Z" transform="translate(-1.55 -2.19)"/><path class="cls-2" d="M89.86,396.71a0.4,0.4,0,0,1,.41.4,0.41,0.41,0,1,1-.41-0.4m0.3,4.57H89.56v-3.07h0.61v3.07Z" transform="translate(-1.55 -2.19)"/><path class="cls-2" d="M92.21,401.34a0.83,0.83,0,0,1-.89-1v-1.67H90.72v-0.5h0.59v-0.88h0.6v0.88h0.82v0.5H91.92v1.6c0,0.35.1,0.51,0.43,0.52a0.87,0.87,0,0,0,.36-0.08l0,0.5a1.55,1.55,0,0,1-.52.08" transform="translate(-1.55 -2.19)"/><path class="cls-2" d="M93.67,396.71a0.4,0.4,0,0,1,.41.4,0.41,0.41,0,1,1-.41-0.4m0.3,4.57H93.37v-3.07H94v3.07Z" transform="translate(-1.55 -2.19)"/><path class="cls-2" d="M95,401.29c0-1,0-2.09,0-3.07h0.58c0,0.13,0,.36,0,0.51h0a1.07,1.07,0,0,1,1-.59,1.09,1.09,0,0,1,1.15,1.25v1.91H97.17v-1.7c0-.54-0.16-0.94-0.7-0.94a0.89,0.89,0,0,0-.82,1v1.63H95" transform="translate(-1.55 -2.19)"/><path class="cls-2" d="M100.26,398.64a1.08,1.08,0,0,0,0,2.16,1.08,1.08,0,0,0,0-2.16m1.61,2.49a1.53,1.53,0,0,1-1.7,1.71,2.25,2.25,0,0,1-1.5-.56l0.39-.47a1.57,1.57,0,0,0,1.12.5c0.88,0,1.17-.62,1.07-1.53a1.25,1.25,0,0,1-1.08.53,1.59,1.59,0,0,1,0-3.18,1.3,1.3,0,0,1,1.12.58v-0.49h0.59v2.92Z" transform="translate(-1.55 -2.19)"/><path class="cls-2" d="M105.51,401.34a0.83,0.83,0,0,1-.89-1v-1.67H104v-0.5h0.59v-0.88h0.6v0.88H106v0.5h-0.82v1.6c0,0.35.1,0.51,0.43,0.52a0.87,0.87,0,0,0,.36-0.08l0,0.5a1.55,1.55,0,0,1-.52.08" transform="translate(-1.55 -2.19)"/><path class="cls-2" d="M107.69,400.89a0.87,0.87,0,0,0,.89-1.06c-0.67,0-1.52,0-1.52.58a0.52,0.52,0,0,0,.63.48m-1.25-.47c0-1,1.12-1,2.14-1a0.66,0.66,0,0,0-.76-0.76,1.28,1.28,0,0,0-.87.36l-0.32-.39a1.81,1.81,0,0,1,1.26-.46,1.14,1.14,0,0,1,1.28,1.21,19.14,19.14,0,0,0,0,2h-0.55a2,2,0,0,1-.05-0.44h0a1.18,1.18,0,0,1-1,.52A1,1,0,0,1,106.44,400.42Z" transform="translate(-1.55 -2.19)"/><path class="cls-2" d="M111.79,400.86a1.12,1.12,0,0,0,0-2.22,1.11,1.11,0,0,0,0,2.22m0.1,0.51a1.3,1.3,0,0,1-1.11-.57h0v0.49h-0.59v-4.9h0.61v2.29h0a1.28,1.28,0,0,1,1.1-.54A1.62,1.62,0,0,1,111.9,401.37Z" transform="translate(-1.55 -2.19)"/><polyline class="cls-2" points="113.37 399.1 112.76 399.1 112.76 396.65 112.76 394.2 113.37 394.2 113.37 396.65 113.37 399.1"/><path class="cls-2" d="M117.37,398.13a1.46,1.46,0,0,1,1.47,1.8H116.4a1,1,0,0,0,1,.93,1,1,0,0,0,.89-0.47l0.43,0.34a1.54,1.54,0,0,1-1.32.63,1.62,1.62,0,0,1,0-3.24m0.86,1.35a0.85,0.85,0,0,0-1.23-.8,0.89,0.89,0,0,0-.6.8h1.83Z" transform="translate(-1.55 -2.19)"/><line class="cls-1" x1="103.28" y1="386.24" x2="123.95" y2="345.74"/><path class="cls-2" d="M104.83,388.44h-0.4l0.07-.14Zm0.32,0.18-0.5.94-0.65-.32,0.43-.79h0.4Z" transform="translate(-1.55 -2.19)"/><polygon class="cls-2" points="123.08 351.07 120.13 349.56 123.95 345.74 123.08 351.07"/><path class="cls-2" d="M122.29,351.68l2.09,1L125,349Zm3.53-3.56-0.9,5.72-3.85-2,4.1-4.1Z" transform="translate(-1.55 -2.19)"/><path class="cls-3" d="M88.31,324.86H3.71a1.81,1.81,0,0,0-1.8,1.8v18a1.83,1.83,0,0,0,1.8,1.8h84.6" transform="translate(-1.55 -2.19)"/><path class="cls-1" d="M88.31,324.86H3.71a1.81,1.81,0,0,0-1.8,1.8v18a1.83,1.83,0,0,0,1.8,1.8h84.6" transform="translate(-1.55 -2.19)"/><path class="cls-2" d="M30.7,334.36c0-.84-1-0.73-1.81-0.73v1.46c0.85,0,1.81.09,1.81-.74m0.65,0a1.22,1.22,0,0,1-1.11,1.21l1.28,2.11H30.74l-1.17-2H28.88v2H28.24v-4.59C29.7,333.08,31.35,332.89,31.35,334.36Z" transform="translate(-1.55 -2.19)"/><path class="cls-2" d="M33.5,334.52a1.46,1.46,0,0,1,1.47,1.8H32.53a1,1,0,0,0,1,.93,1,1,0,0,0,.89-0.47l0.43,0.34a1.54,1.54,0,0,1-1.32.63,1.62,1.62,0,0,1,0-3.24m0.86,1.35a0.85,0.85,0,0,0-1.23-.8,0.89,0.89,0,0,0-.6.8h1.83Z" transform="translate(-1.55 -2.19)"/><path class="cls-2" d="M35.71,335.82c-0.4-1,.76-1.59,1.71-1.17a1,1,0,0,1,.48.38l-0.42.36a0.82,0.82,0,0,0-.71-0.38,0.46,0.46,0,0,0-.57.4c0,0.47.73,0.41,1.11,0.58a0.87,0.87,0,0,1,.62.78c0,1.25-2,1.21-2.46.44l0.43-.37a1,1,0,0,0,.82.43,0.49,0.49,0,0,0,.61-0.45c0-.58-1-0.41-1.41-0.76a0.67,0.67,0,0,1-.21-0.24" transform="translate(-1.55 -2.19)"/><path class="cls-2" d="M40.09,334.52a1.46,1.46,0,0,1,1.47,1.8H39.12a1,1,0,0,0,1,.93,1,1,0,0,0,.89-0.47l0.43,0.34a1.54,1.54,0,0,1-1.32.63,1.62,1.62,0,0,1,0-3.24m0.86,1.35a0.85,0.85,0,0,0-1.23-.8,0.89,0.89,0,0,0-.6.8h1.83Z" transform="translate(-1.55 -2.19)"/><path class="cls-2" d="M42.41,337.68c0-1,0-2.09,0-3.07H43c0,0.13,0,.38,0,0.52h0a1,1,0,0,1,1.18-.58l0,0.56a0.88,0.88,0,0,0-1.14,1v1.61H42.41" transform="translate(-1.55 -2.19)"/><path class="cls-2" d="M46.21,337.68H45.54l-1.25-3.07H45c0.3,0.8.59,1.63,0.91,2.42l0.91-2.42h0.65" transform="translate(-1.55 -2.19)"/><path class="cls-2" d="M49,337.28a0.87,0.87,0,0,0,.89-1.06c-0.67,0-1.52,0-1.52.58a0.52,0.52,0,0,0,.63.48m-1.25-.47c0-1,1.12-1,2.14-1a0.66,0.66,0,0,0-.76-0.76,1.28,1.28,0,0,0-.87.36L48,335a1.81,1.81,0,0,1,1.26-.46,1.14,1.14,0,0,1,1.28,1.21,19.14,19.14,0,0,0,0,2H50a2,2,0,0,1-.05-0.44h0a1.18,1.18,0,0,1-1,.52A1,1,0,0,1,47.8,336.81Z" transform="translate(-1.55 -2.19)"/><path class="cls-2" d="M52.45,337.73a0.83,0.83,0,0,1-.89-1V335.1H51v-0.5h0.59v-0.88h0.6v0.88H53v0.5H52.16v1.6c0,0.35.1,0.51,0.43,0.52a0.87,0.87,0,0,0,.36-0.08l0,0.5a1.55,1.55,0,0,1-.52.08" transform="translate(-1.55 -2.19)"/><path class="cls-2" d="M53.92,333.1a0.4,0.4,0,0,1,.41.4,0.41,0.41,0,1,1-.41-0.4m0.3,4.57H53.61v-3.07h0.61v3.07Z" transform="translate(-1.55 -2.19)"/><path class="cls-2" d="M56.74,337.25a1.12,1.12,0,1,0-1-1.11,1,1,0,0,0,1,1.11m0-2.73a1.62,1.62,0,1,1-1.65,1.61A1.52,1.52,0,0,1,56.74,334.52Z" transform="translate(-1.55 -2.19)"/><path class="cls-2" d="M59.24,337.68c0-1,0-2.09,0-3.07h0.58c0,0.13,0,.36,0,0.51h0a1.07,1.07,0,0,1,1-.59A1.09,1.09,0,0,1,62,335.77v1.91H61.37V336c0-.54-0.16-0.94-0.7-0.94a0.89,0.89,0,0,0-.82,1v1.63H59.24" transform="translate(-1.55 -2.19)"/><line class="cls-1" x1="86.76" y1="325.94" x2="106.74" y2="322.45"/><polygon class="cls-2" points="85.64 325.76 86.69 325.58 86.83 326.3 86.76 326.3 85.75 326.48 85.64 325.76"/><polygon class="cls-2" points="106.74 322.45 101.99 324.97 101.41 321.7 106.74 322.45"/><path class="cls-2" d="M103.79,326.63l3.35-1.76-3.74-.54Zm4.46-2.34,0.11,0.72v0l-5.11,2.7-0.72-4.28Z" transform="translate(-1.55 -2.19)"/><line class="cls-1" x1="43.56" y1="322.67" x2="68.11" y2="259.38"/><path class="cls-2" d="M45.11,324.86h-0.4l0.07-.14ZM45.43,325l-0.36,1-0.68-.25,0.32-.86h0.4Z" transform="translate(-1.55 -2.19)"/><polygon class="cls-2" points="67.79 264.78 64.69 263.56 68.11 259.38 67.79 264.78"/><path class="cls-2" d="M66.82,265.61l2.2,0.86,0.22-3.82Zm3.2-4.25-0.36,6.12-4-1.55,3.92-4.82Z" transform="translate(-1.55 -2.19)"/><line class="cls-1" x1="92.12" y1="199.01" x2="106.92" y2="151.74"/><polygon class="cls-2" points="92.45 199.12 92.45 199.12 92.12 199.01 92.45 199.12"/><polygon class="cls-2" points="106.99 157.14 103.79 156.17 106.92 151.74 106.99 157.14"/><path class="cls-2" d="M105.91,158.15l2.23,0.72,0-3.82Zm2.92-4.07,0.07,5.76-4.14-1.3,3.35-4.72Z" transform="translate(-1.55 -2.19)"/><path class="cls-3" d="M2.81,153.29a1.78,1.78,0,0,1,1.8-1.8h61.2a1.78,1.78,0,0,1,1.8,1.8v18.14a1.81,1.81,0,0,1-1.8,1.8H4.61a1.81,1.81,0,0,1-1.8-1.8V153.29Z" transform="translate(-1.55 -2.19)"/><path class="cls-1" d="M2.81,153.29a1.78,1.78,0,0,1,1.8-1.8h61.2a1.78,1.78,0,0,1,1.8,1.8v18.14a1.81,1.81,0,0,1-1.8,1.8H4.61a1.81,1.81,0,0,1-1.8-1.8V153.29Z" transform="translate(-1.55 -2.19)"/><path class="cls-2" d="M30.92,164.23a3.49,3.49,0,0,1-2.71.22,2.42,2.42,0,0,1,1-4.64,2.33,2.33,0,0,1,1.7.6l-0.45.47a1.6,1.6,0,0,0-1.24-.5,1.84,1.84,0,0,0,0,3.68,2.13,2.13,0,0,0,1.07-.23v-1.28h-1V162h1.65v2.22" transform="translate(-1.55 -2.19)"/><path class="cls-2" d="M34.71,161.45c0,1,0,2.09,0,3.07H34.16c0-.13,0-0.39,0-0.51a1.13,1.13,0,0,1-1,.59A1.09,1.09,0,0,1,32,163.35v-1.91h0.61v1.7c0,0.54.16,0.95,0.7,0.95a0.89,0.89,0,0,0,.82-1v-1.63h0.61" transform="translate(-1.55 -2.19)"/><path class="cls-2" d="M37.15,161.36a1.46,1.46,0,0,1,1.47,1.8H36.18a1,1,0,0,0,1,.93,1,1,0,0,0,.89-0.47L38.5,164a1.54,1.54,0,0,1-1.32.63,1.62,1.62,0,0,1,0-3.24M38,162.71a0.85,0.85,0,0,0-1.23-.8,0.89,0.89,0,0,0-.6.8H38Z" transform="translate(-1.55 -2.19)"/><path class="cls-2" d="M39.37,162.66c-0.4-1,.76-1.59,1.71-1.17a1,1,0,0,1,.48.38l-0.42.36a0.82,0.82,0,0,0-.71-0.38,0.46,0.46,0,0,0-.57.4c0,0.47.73,0.41,1.11,0.58a0.87,0.87,0,0,1,.62.78c0,1.25-2,1.21-2.46.44l0.43-.37a1,1,0,0,0,.82.43,0.49,0.49,0,0,0,.61-0.45c0-.58-1-0.41-1.41-0.76a0.67,0.67,0,0,1-.21-0.24" transform="translate(-1.55 -2.19)"/><path class="cls-2" d="M43.33,164.57a0.83,0.83,0,0,1-.89-1v-1.67H41.85v-0.5h0.59v-0.88H43v0.88h0.82v0.5H43v1.6c0,0.35.1,0.51,0.43,0.52a0.87,0.87,0,0,0,.36-0.08l0,0.5a1.55,1.55,0,0,1-.52.08" transform="translate(-1.55 -2.19)"/><line class="cls-1" x1="56.59" y1="149.29" x2="87.34" y2="134.71"/><polygon class="cls-2" points="56.59 149.29 55.73 149.29 56.45 148.97 56.59 149.29"/><polygon class="cls-2" points="83.41 138.42 81.97 135.4 87.34 134.71 83.41 138.42"/><path class="cls-2" d="M84.06,137.91l1,2.09,2.77-2.59Zm5-.65-4.18,4L83,137.3l5.76-.72Z" transform="translate(-1.55 -2.19)"/><line class="cls-1" x1="41.26" y1="171.04" x2="63.86" y2="203.36"/><polygon class="cls-2" points="40.97 171.25 40.82 171.04 41.26 171.04 40.97 171.25"/><polygon class="cls-2" points="63.86 203.36 59.54 200.12 62.28 198.22 63.86 203.36"/><path class="cls-2" d="M61.71,202.32l3.06,2.3L63.65,201Zm4,3-0.65.43-4.61-3.46L64,199.83Z" transform="translate(-1.55 -2.19)"/><line class="cls-1" x1="51.52" y1="219.1" x2="18.04" y2="171.4"/><polygon class="cls-2" points="51.91 219.06 51.8 219.31 51.62 219.89 51.19 219.31 51.8 218.92 51.91 219.06"/><polygon class="cls-2" points="22.36 174.64 19.62 176.54 18.04 171.4 22.36 174.64"/><path class="cls-2" d="M21.35,178.16l1.94-1.33-3.06-2.3Zm3.17-1.33L21,179.31l-1.87-6.08h0.61Z" transform="translate(-1.55 -2.19)"/></svg>