<svg id="Layer_1" data-name="Layer 1" xmlns="http://www.w3.org/2000/svg" viewBox="0 0 319.46 324.95"><defs><style>.cls-1{fill:none;stroke:#3d4752;stroke-miterlimit:10;stroke-width:0.9px;}.cls-2{fill:#3d4752;}.cls-3{fill:#cdbbdc;}</style></defs><title>data-flow-diagram-4</title><line class="cls-1" x1="180.54" y1="39.42" x2="180.54" y2="101.16"/><path class="cls-2" d="M183.48,41.46h-0.9v-0.9h0.9v0.9Zm0,0.45h-0.9V41.46h0.9v0.45Z" transform="translate(-2.49 -2.49)"/><polygon class="cls-2" points="180.54 101.16 178.43 94.72 182.61 94.72 180.54 101.16"/><path class="cls-2" d="M181.55,97.67l1.48,4.5,1.44-4.5h-2.92Zm1.8,6.48-0.27,0-0.4,0-2.34-7.29h5.4Z" transform="translate(-2.49 -2.49)"/><line class="cls-1" x1="166.36" y1="101.25" x2="166.36" y2="38.52"/><polygon class="cls-2" points="166.81 101.66 166.41 101.7 165.91 101.83 165.91 101.25 166.81 101.25 166.81 101.66"/><polygon class="cls-2" points="166.37 38.52 168.44 44.95 164.25 44.95 166.37 38.52"/><polygon class="cls-1" points="166.37 38.52 168.44 44.95 164.25 44.95 166.37 38.52"/><circle class="cls-3" cx="173.79" cy="141.52" r="40.5"/><circle class="cls-1" cx="173.79" cy="141.52" r="40.5"/><path class="cls-2" d="M158.27,136.9c0-1-1.21-.91-2.27-0.91v1.83c1.06,0,2.27.11,2.27-.92m0.81,0a1.53,1.53,0,0,1-1.39,1.51l1.6,2.63h-1l-1.46-2.55H156V141h-0.8v-5.73C157,135.3,159.08,135.06,159.08,136.9Z" transform="translate(-2.49 -2.49)"/><path class="cls-2" d="M161.77,137.1c1.3,0,1.9.87,1.84,2.25h-3a1.2,1.2,0,0,0,1.25,1.17,1.28,1.28,0,0,0,1.12-.58l0.53,0.43a1.92,1.92,0,0,1-1.65.79,2,2,0,0,1,0-4m1.08,1.68a1.07,1.07,0,0,0-1.54-1,1.12,1.12,0,0,0-.75,1h2.28Z" transform="translate(-2.49 -2.49)"/><path class="cls-2" d="M164.54,138.73c-0.5-1.26.95-2,2.14-1.47a1.3,1.3,0,0,1,.6.47l-0.53.45a1,1,0,0,0-.89-0.48,0.58,0.58,0,0,0-.71.5c0,0.59.92,0.51,1.39,0.73a1.08,1.08,0,0,1,.78,1c0.06,1.56-2.45,1.51-3.08.55l0.54-.46a1.24,1.24,0,0,0,1,.53,0.62,0.62,0,0,0,.76-0.56c0-.73-1.27-0.51-1.76-0.95a0.84,0.84,0,0,1-.26-0.3" transform="translate(-2.49 -2.49)"/><path class="cls-2" d="M170,137.1c1.3,0,1.9.87,1.84,2.25h-3a1.2,1.2,0,0,0,1.25,1.17,1.28,1.28,0,0,0,1.12-.58l0.53,0.43a1.92,1.92,0,0,1-1.65.79,2,2,0,0,1,0-4m1.08,1.68a1.07,1.07,0,0,0-1.54-1,1.12,1.12,0,0,0-.75,1h2.28Z" transform="translate(-2.49 -2.49)"/><path class="cls-2" d="M172.91,141c0-1.28,0-2.61,0-3.84h0.72c0,0.16,0,.48,0,0.65h0a1.3,1.3,0,0,1,1.47-.72l0,0.7a1.1,1.1,0,0,0-1.43,1.19v2h-0.76" transform="translate(-2.49 -2.49)"/><path class="cls-2" d="M177.65,141h-0.83l-1.56-3.84h0.84c0.38,1,.74,2,1.14,3l1.13-3h0.81" transform="translate(-2.49 -2.49)"/><path class="cls-2" d="M181.21,140.55a1.09,1.09,0,0,0,1.11-1.33c-0.83,0-1.9,0-1.9.73a0.65,0.65,0,0,0,.79.6m-1.56-.58c0-1.24,1.4-1.26,2.67-1.3a0.83,0.83,0,0,0-.95-0.95,1.6,1.6,0,0,0-1.09.45l-0.4-.49a2.26,2.26,0,0,1,1.57-.58,1.42,1.42,0,0,1,1.6,1.51,23.92,23.92,0,0,0,.06,2.44h-0.69a2.56,2.56,0,0,1-.06-0.55h0a1.47,1.47,0,0,1-1.29.65A1.19,1.19,0,0,1,179.64,140Z" transform="translate(-2.49 -2.49)"/><path class="cls-2" d="M185.46,141.11a1,1,0,0,1-1.12-1.2v-2.08H183.6v-0.62h0.74v-1.1h0.75v1.1h1v0.62h-1v2c0,0.44.13,0.64,0.54,0.65a1.09,1.09,0,0,0,.45-0.1l0,0.62a1.94,1.94,0,0,1-.65.11" transform="translate(-2.49 -2.49)"/><path class="cls-2" d="M187.29,135.33a0.5,0.5,0,0,1,.51.49,0.51,0.51,0,1,1-.51-0.49m0.38,5.72h-0.76v-3.84h0.76V141Z" transform="translate(-2.49 -2.49)"/><path class="cls-2" d="M190.81,140.51a1.39,1.39,0,1,0-1.28-1.39,1.24,1.24,0,0,0,1.28,1.39m0-3.41a2,2,0,1,1-2.07,2A1.9,1.9,0,0,1,190.81,137.1Z" transform="translate(-2.49 -2.49)"/><path class="cls-2" d="M193.94,141c0-1.28,0-2.61,0-3.84h0.72c0,0.16,0,.45,0,0.63h0a1.34,1.34,0,0,1,1.25-.74,1.36,1.36,0,0,1,1.43,1.56V141H196.6v-2.13c0-.68-0.19-1.17-0.87-1.17a1.11,1.11,0,0,0-1,1.26v2h-0.76" transform="translate(-2.49 -2.49)"/><path class="cls-2" d="M165.93,148c0-1-1.15-.92-2.19-0.92v1.85c1,0,2.19.09,2.19-.94m0.81,0c0,1.51-1.39,1.69-3,1.62v2.52h-0.8v-5.73h1.75C165.88,146.4,166.74,146.8,166.74,148Z" transform="translate(-2.49 -2.49)"/><path class="cls-2" d="M167.34,152.12c0-1.28,0-2.61,0-3.84H168c0,0.16,0,.48,0,0.65h0a1.3,1.3,0,0,1,1.47-.72l0,0.7a1.1,1.1,0,0,0-1.43,1.19v2h-0.76" transform="translate(-2.49 -2.49)"/><path class="cls-2" d="M171.94,151.58a1.39,1.39,0,1,0-1.28-1.39,1.24,1.24,0,0,0,1.28,1.39m0-3.41a2,2,0,1,1-2.07,2A1.9,1.9,0,0,1,171.94,148.17Z" transform="translate(-2.49 -2.49)"/><path class="cls-2" d="M174.82,150.2a1.88,1.88,0,0,1,2-2,1.82,1.82,0,0,1,1.44.63l-0.55.45a1.05,1.05,0,0,0-.88-0.44,1.39,1.39,0,0,0,0,2.77,1.1,1.1,0,0,0,.92-0.42l0.51,0.46a1.77,1.77,0,0,1-1.43.6,1.9,1.9,0,0,1-2.07-2" transform="translate(-2.49 -2.49)"/><path class="cls-2" d="M180.81,148.17c1.3,0,1.9.87,1.84,2.25h-3a1.2,1.2,0,0,0,1.25,1.17A1.28,1.28,0,0,0,182,151l0.53,0.43a1.92,1.92,0,0,1-1.65.79,2,2,0,0,1,0-4m1.08,1.68a1.07,1.07,0,0,0-1.54-1,1.12,1.12,0,0,0-.75,1h2.28Z" transform="translate(-2.49 -2.49)"/><path class="cls-2" d="M183.58,149.8c-0.5-1.26.95-2,2.14-1.47a1.3,1.3,0,0,1,.6.47l-0.53.45a1,1,0,0,0-.89-0.48,0.58,0.58,0,0,0-.71.5c0,0.59.92,0.51,1.39,0.73a1.08,1.08,0,0,1,.78,1c0.06,1.56-2.45,1.51-3.08.55l0.54-.46a1.24,1.24,0,0,0,1,.53,0.62,0.62,0,0,0,.76-0.56c0-.73-1.27-0.51-1.76-0.95a0.84,0.84,0,0,1-.26-0.3" transform="translate(-2.49 -2.49)"/><path class="cls-2" d="M187.17,149.8c-0.5-1.26.95-2,2.14-1.47a1.3,1.3,0,0,1,.6.47l-0.53.45a1,1,0,0,0-.89-0.48,0.58,0.58,0,0,0-.71.5c0,0.59.92,0.51,1.39,0.73a1.08,1.08,0,0,1,.78,1c0.06,1.56-2.45,1.51-3.08.55l0.54-.46a1.24,1.24,0,0,0,1,.53,0.62,0.62,0,0,0,.76-0.56c0-.73-1.27-0.51-1.76-0.95a0.84,0.84,0,0,1-.26-0.3" transform="translate(-2.49 -2.49)"/><path class="cls-3" d="M321,98.52a31.21,31.21,0,1,1-31.18-31.23A31.21,31.21,0,0,1,321,98.52Z" transform="translate(-2.49 -2.49)"/><path class="cls-1" d="M321,98.52a31.21,31.21,0,1,1-31.18-31.23A31.21,31.21,0,0,1,321,98.52Z" transform="translate(-2.49 -2.49)"/><path class="cls-2" d="M282.56,85.92c0-1-1.21-.91-2.27-0.91v1.83c1.06,0,2.27.11,2.27-.92m0.81,0A1.53,1.53,0,0,1,282,87.43l1.6,2.63h-1l-1.46-2.55h-0.86v2.55h-0.8V84.33C281.31,84.32,283.37,84.08,283.37,85.92Z" transform="translate(-2.49 -2.49)"/><path class="cls-2" d="M286.14,89.53a1.39,1.39,0,1,0-1.28-1.39,1.24,1.24,0,0,0,1.28,1.39m0-3.41a2,2,0,1,1-2.07,2A1.9,1.9,0,0,1,286.14,86.12Z" transform="translate(-2.49 -2.49)"/><path class="cls-2" d="M291.08,89.53a1.39,1.39,0,1,0-1.28-1.39,1.24,1.24,0,0,0,1.28,1.39m0-3.41a2,2,0,1,1-2.07,2A1.9,1.9,0,0,1,291.08,86.12Z" transform="translate(-2.49 -2.49)"/><path class="cls-2" d="M295,86.85a1.34,1.34,0,0,1,1.22-.74,1.2,1.2,0,0,1,1.19.77,1.41,1.41,0,0,1,1.3-.77,1.36,1.36,0,0,1,1.43,1.56v2.38h-0.76V87.93c0-.66-0.19-1.17-0.85-1.17-1.39,0-.87,2-1,3.3h-0.76V87.78a0.83,0.83,0,0,0-.81-1A1.11,1.11,0,0,0,295,88v2h-0.76c0-1.28,0-2.61,0-3.84h0.72c0,0.16,0,.45,0,0.63h0" transform="translate(-2.49 -2.49)"/><path class="cls-2" d="M273.55,98.82c-0.5-1.26.95-2,2.14-1.47a1.3,1.3,0,0,1,.6.47l-0.53.45a1,1,0,0,0-.89-0.48,0.58,0.58,0,0,0-.71.5c0,0.59.92,0.51,1.39,0.73a1.08,1.08,0,0,1,.78,1c0.06,1.56-2.45,1.51-3.08.55l0.54-.46a1.24,1.24,0,0,0,1,.53,0.62,0.62,0,0,0,.76-0.56c0-.73-1.27-0.51-1.76-0.95a0.84,0.84,0,0,1-.26-0.3" transform="translate(-2.49 -2.49)"/><path class="cls-2" d="M279,97.19c1.3,0,1.9.87,1.84,2.25h-3a1.2,1.2,0,0,0,1.25,1.17,1.28,1.28,0,0,0,1.12-.58l0.53,0.43a1.92,1.92,0,0,1-1.65.79,2,2,0,0,1,0-4m1.08,1.68a1.07,1.07,0,0,0-1.54-1,1.12,1.12,0,0,0-.75,1h2.28Z" transform="translate(-2.49 -2.49)"/><polyline class="cls-2" points="280.21 98.64 279.45 98.64 279.45 95.58 279.45 92.52 280.21 92.52 280.21 95.58 280.21 98.64"/><path class="cls-2" d="M285.76,97.19c1.3,0,1.9.87,1.84,2.25h-3a1.2,1.2,0,0,0,1.25,1.17,1.28,1.28,0,0,0,1.12-.58l0.53,0.43a1.92,1.92,0,0,1-1.65.79,2,2,0,0,1,0-4m1.08,1.68a1.07,1.07,0,0,0-1.54-1,1.12,1.12,0,0,0-.75,1h2.28Z" transform="translate(-2.49 -2.49)"/><path class="cls-2" d="M288.42,99.21a1.88,1.88,0,0,1,2-2,1.82,1.82,0,0,1,1.44.63l-0.55.45a1.05,1.05,0,0,0-.88-0.44,1.39,1.39,0,0,0,0,2.77,1.1,1.1,0,0,0,.92-0.42l0.51,0.46a1.77,1.77,0,0,1-1.43.6,1.9,1.9,0,0,1-2.07-2" transform="translate(-2.49 -2.49)"/><path class="cls-2" d="M293.9,101.2a1,1,0,0,1-1.12-1.2V97.92H292V97.29h0.74v-1.1h0.75v1.1h1v0.62h-1v2c0,0.44.13,0.64,0.54,0.65a1.09,1.09,0,0,0,.45-0.1l0,0.62a1.94,1.94,0,0,1-.65.11" transform="translate(-2.49 -2.49)"/><path class="cls-2" d="M295.73,95.41a0.5,0.5,0,0,1,.51.49,0.51,0.51,0,1,1-.51-0.49m0.38,5.72h-0.76V97.29h0.76v3.84Z" transform="translate(-2.49 -2.49)"/><path class="cls-2" d="M299.25,100.6A1.39,1.39,0,1,0,298,99.2a1.24,1.24,0,0,0,1.28,1.39m0-3.41a2,2,0,1,1-2.07,2A1.9,1.9,0,0,1,299.25,97.19Z" transform="translate(-2.49 -2.49)"/><path class="cls-2" d="M302.38,101.13c0-1.28,0-2.61,0-3.84h0.72c0,0.16,0,.45,0,0.63h0a1.34,1.34,0,0,1,1.25-.74,1.36,1.36,0,0,1,1.43,1.56v2.38H305V99c0-.68-0.19-1.17-0.87-1.17a1.11,1.11,0,0,0-1,1.26v2h-0.76" transform="translate(-2.49 -2.49)"/><path class="cls-2" d="M278.08,111.62a1.39,1.39,0,0,0,0-2.78,1.39,1.39,0,0,0,0,2.78m0.13,0.64a1.59,1.59,0,0,1-1.35-.68h0v2.52h-0.76v-5.78h0.75v0.6h0a1.54,1.54,0,0,1,1.39-.7A2,2,0,0,1,278.21,112.26Z" transform="translate(-2.49 -2.49)"/><path class="cls-2" d="M281.21,112.16c0-1.28,0-2.61,0-3.84h0.72c0,0.16,0,.48,0,0.65h0a1.3,1.3,0,0,1,1.47-.72l0,0.7a1.1,1.1,0,0,0-1.43,1.19v2h-0.76" transform="translate(-2.49 -2.49)"/><path class="cls-2" d="M285.81,111.62a1.39,1.39,0,1,0-1.28-1.39,1.24,1.24,0,0,0,1.28,1.39m0-3.41a2,2,0,1,1-2.07,2A1.9,1.9,0,0,1,285.81,108.21Z" transform="translate(-2.49 -2.49)"/><path class="cls-2" d="M288.68,110.24a1.88,1.88,0,0,1,2-2,1.82,1.82,0,0,1,1.44.63l-0.55.45a1.05,1.05,0,0,0-.88-0.44,1.39,1.39,0,0,0,0,2.77,1.1,1.1,0,0,0,.92-0.42l0.51,0.46a1.77,1.77,0,0,1-1.43.6,1.9,1.9,0,0,1-2.07-2" transform="translate(-2.49 -2.49)"/><path class="cls-2" d="M294.67,108.21c1.3,0,1.9.87,1.84,2.25h-3a1.2,1.2,0,0,0,1.25,1.17,1.28,1.28,0,0,0,1.12-.58l0.53,0.43a1.92,1.92,0,0,1-1.65.79,2,2,0,0,1,0-4m1.08,1.68a1.07,1.07,0,0,0-1.54-1,1.12,1.12,0,0,0-.75,1h2.28Z" transform="translate(-2.49 -2.49)"/><path class="cls-2" d="M297.44,109.84c-0.5-1.26.95-2,2.14-1.47a1.3,1.3,0,0,1,.6.47l-0.53.45a1,1,0,0,0-.89-0.48,0.58,0.58,0,0,0-.71.5c0,0.59.92,0.51,1.39,0.73a1.08,1.08,0,0,1,.78,1c0.06,1.56-2.45,1.51-3.08.55l0.54-.46a1.24,1.24,0,0,0,1,.53,0.62,0.62,0,0,0,.76-0.56c0-.73-1.27-0.51-1.76-0.95a0.84,0.84,0,0,1-.26-0.3" transform="translate(-2.49 -2.49)"/><path class="cls-2" d="M301,109.84c-0.5-1.26.95-2,2.14-1.47a1.3,1.3,0,0,1,.6.47l-0.53.45a1,1,0,0,0-.89-0.48,0.58,0.58,0,0,0-.71.5c0,0.59.92,0.51,1.39,0.73a1.08,1.08,0,0,1,.78,1c0.06,1.56-2.45,1.51-3.08.55l0.54-.46a1.24,1.24,0,0,0,1,.53,0.62,0.62,0,0,0,.76-0.56c0-.73-1.27-0.51-1.76-0.95a0.84,0.84,0,0,1-.26-0.3" transform="translate(-2.49 -2.49)"/><path class="cls-3" d="M321.5,191.67a31.23,31.23,0,1,1-31.23-31.23A31.21,31.21,0,0,1,321.5,191.67Z" transform="translate(-2.49 -2.49)"/><path class="cls-1" d="M321.5,191.67a31.23,31.23,0,1,1-31.23-31.23A31.21,31.21,0,0,1,321.5,191.67Z" transform="translate(-2.49 -2.49)"/><path class="cls-2" d="M276.71,184.56c0-1-1.21-.91-2.27-0.91v1.83c1.06,0,2.27.11,2.27-.92m0.81,0a1.53,1.53,0,0,1-1.39,1.51l1.6,2.63h-1l-1.46-2.55h-0.86v2.55h-0.8V183C275.46,183,277.52,182.72,277.52,184.56Z" transform="translate(-2.49 -2.49)"/><path class="cls-2" d="M280.21,184.76c1.3,0,1.9.87,1.84,2.25h-3a1.2,1.2,0,0,0,1.25,1.17,1.28,1.28,0,0,0,1.12-.58L281.9,188a1.92,1.92,0,0,1-1.65.79,2,2,0,0,1,0-4m1.08,1.68a1.07,1.07,0,0,0-1.54-1,1.12,1.12,0,0,0-.75,1h2.28Z" transform="translate(-2.49 -2.49)"/><path class="cls-2" d="M285.12,188.17a1.39,1.39,0,0,0,0-2.78,1.39,1.39,0,0,0,0,2.78m0.13,0.64a1.59,1.59,0,0,1-1.35-.68h0v2.52h-0.76v-5.78h0.75v0.6h0a1.54,1.54,0,0,1,1.39-.7A2,2,0,0,1,285.25,188.81Z" transform="translate(-2.49 -2.49)"/><path class="cls-2" d="M290.06,188.17a1.39,1.39,0,1,0-1.28-1.39,1.24,1.24,0,0,0,1.28,1.39m0-3.41a2,2,0,1,1-2.07,2A1.9,1.9,0,0,1,290.06,184.76Z" transform="translate(-2.49 -2.49)"/><path class="cls-2" d="M293.19,188.7c0-1.28,0-2.61,0-3.84h0.72c0,0.16,0,.48,0,0.65h0a1.3,1.3,0,0,1,1.47-.72l0,0.7a1.1,1.1,0,0,0-1.43,1.19v2h-0.76" transform="translate(-2.49 -2.49)"/><path class="cls-2" d="M297.25,188.77a1,1,0,0,1-1.12-1.2v-2.08h-0.74v-0.62h0.74v-1.1h0.75v1.1h1v0.62h-1v2c0,0.44.13,0.64,0.54,0.65a1.09,1.09,0,0,0,.45-0.1l0,0.62a1.94,1.94,0,0,1-.65.11" transform="translate(-2.49 -2.49)"/><path class="cls-2" d="M301.91,188.77a1,1,0,0,1-1.12-1.2v-2.08h-0.74v-0.62h0.74v-1.1h0.75v1.1h1v0.62h-1v2c0,0.44.13,0.64,0.54,0.65a1.09,1.09,0,0,0,.45-0.1l0,0.62a1.94,1.94,0,0,1-.65.11" transform="translate(-2.49 -2.49)"/><path class="cls-2" d="M305.17,188.17a1.39,1.39,0,1,0-1.28-1.39,1.24,1.24,0,0,0,1.28,1.39m0-3.41a2,2,0,1,1-2.07,2A1.9,1.9,0,0,1,305.17,184.76Z" transform="translate(-2.49 -2.49)"/><path class="cls-2" d="M280.46,199.27a1.09,1.09,0,0,0,1.11-1.33c-0.83,0-1.9,0-1.9.73a0.65,0.65,0,0,0,.79.6m-1.56-.58c0-1.24,1.4-1.26,2.67-1.3a0.83,0.83,0,0,0-.95-0.95,1.6,1.6,0,0,0-1.09.45l-0.4-.49a2.26,2.26,0,0,1,1.57-.58,1.42,1.42,0,0,1,1.6,1.51,23.92,23.92,0,0,0,.06,2.44h-0.69a2.56,2.56,0,0,1-.06-0.55h0a1.47,1.47,0,0,1-1.29.65A1.19,1.19,0,0,1,278.89,198.69Z" transform="translate(-2.49 -2.49)"/><path class="cls-2" d="M285.37,196.46a1.39,1.39,0,0,0,0,2.78,1.39,1.39,0,0,0,0-2.78m-0.14-.63a1.7,1.7,0,0,1,1.39.68v-2.86h0.76v6.12h-0.74a3.73,3.73,0,0,0,0-.61,1.6,1.6,0,0,1-1.39.71,1.84,1.84,0,0,1-1.94-2A1.86,1.86,0,0,1,285.24,195.83Z" transform="translate(-2.49 -2.49)"/><path class="cls-2" d="M289.46,196.57a1.34,1.34,0,0,1,1.22-.74,1.2,1.2,0,0,1,1.19.77,1.41,1.41,0,0,1,1.3-.77,1.36,1.36,0,0,1,1.43,1.56v2.38h-0.76v-2.13c0-.66-0.19-1.17-0.85-1.17-1.39,0-.87,2-1,3.3h-0.76v-2.28a0.83,0.83,0,0,0-.81-1,1.11,1.11,0,0,0-1,1.26v2h-0.76c0-1.28,0-2.61,0-3.84h0.72c0,0.16,0,.45,0,0.63h0" transform="translate(-2.49 -2.49)"/><path class="cls-2" d="M296.28,194.05a0.5,0.5,0,0,1,.51.49,0.51,0.51,0,1,1-.51-0.49m0.38,5.72H295.9v-3.84h0.76v3.84Z" transform="translate(-2.49 -2.49)"/><path class="cls-2" d="M298,199.77c0-1.28,0-2.61,0-3.84h0.72c0,0.16,0,.45,0,0.63h0a1.34,1.34,0,0,1,1.25-.74,1.36,1.36,0,0,1,1.43,1.56v2.38h-0.76v-2.13c0-.68-0.19-1.17-0.87-1.17a1.11,1.11,0,0,0-1,1.26v2H298" transform="translate(-2.49 -2.49)"/><path class="cls-3" d="M230.64,2.94H124.89a2.29,2.29,0,0,0-2.25,2.25v34a2.26,2.26,0,0,0,2.25,2.25H230.64" transform="translate(-2.49 -2.49)"/><path class="cls-1" d="M230.64,2.94H124.89a2.29,2.29,0,0,0-2.25,2.25v34a2.26,2.26,0,0,0,2.25,2.25H230.64" transform="translate(-2.49 -2.49)"/><path class="cls-2" d="M148,15.22c0-1-1.21-.91-2.27-0.91v1.83c1.06,0,2.27.11,2.27-.92m0.81,0a1.53,1.53,0,0,1-1.39,1.51l1.6,2.63h-1l-1.46-2.55h-0.86v2.55h-0.8V13.63C146.76,13.62,148.82,13.38,148.82,15.22Z" transform="translate(-2.49 -2.49)"/><path class="cls-2" d="M151.51,15.42c1.3,0,1.9.87,1.84,2.25h-3a1.2,1.2,0,0,0,1.25,1.17,1.28,1.28,0,0,0,1.12-.58l0.53,0.43a1.92,1.92,0,0,1-1.65.79,1.86,1.86,0,0,1-2-2,1.86,1.86,0,0,1,2-2m1.08,1.68a1.07,1.07,0,0,0-1.54-1,1.12,1.12,0,0,0-.75,1h2.28Z" transform="translate(-2.49 -2.49)"/><path class="cls-2" d="M154.28,17.05c-0.5-1.26.95-2,2.14-1.47a1.3,1.3,0,0,1,.6.47l-0.53.45A1,1,0,0,0,155.6,16a0.58,0.58,0,0,0-.71.5c0,0.59.92,0.51,1.39,0.73a1.08,1.08,0,0,1,.78,1c0.06,1.56-2.45,1.51-3.08.55l0.54-.46a1.24,1.24,0,0,0,1,.53,0.62,0.62,0,0,0,.76-0.56c0-.73-1.27-0.51-1.76-0.95a0.84,0.84,0,0,1-.26-0.3" transform="translate(-2.49 -2.49)"/><path class="cls-2" d="M159.74,15.42c1.3,0,1.9.87,1.84,2.25h-3a1.2,1.2,0,0,0,1.25,1.17,1.28,1.28,0,0,0,1.12-.58l0.53,0.43a1.92,1.92,0,0,1-1.65.79,1.86,1.86,0,0,1-2-2,1.86,1.86,0,0,1,2-2m1.08,1.68a1.07,1.07,0,0,0-1.54-1,1.12,1.12,0,0,0-.75,1h2.28Z" transform="translate(-2.49 -2.49)"/><path class="cls-2" d="M162.65,19.37c0-1.28,0-2.61,0-3.84h0.72c0,0.16,0,.48,0,0.65h0a1.3,1.3,0,0,1,1.47-.72l0,0.7a1.1,1.1,0,0,0-1.43,1.19v2h-0.76" transform="translate(-2.49 -2.49)"/><path class="cls-2" d="M167.39,19.37h-0.83L165,15.53h0.84c0.38,1,.74,2,1.14,3l1.13-3h0.81" transform="translate(-2.49 -2.49)"/><path class="cls-2" d="M170.95,18.87a1.09,1.09,0,0,0,1.11-1.33c-0.83,0-1.9,0-1.9.73a0.65,0.65,0,0,0,.79.6m-1.56-.58c0-1.24,1.4-1.26,2.67-1.3a0.83,0.83,0,0,0-.95-0.95,1.6,1.6,0,0,0-1.09.45l-0.4-.49a2.26,2.26,0,0,1,1.57-.58,1.42,1.42,0,0,1,1.6,1.51,23.92,23.92,0,0,0,.06,2.44h-0.69a2.56,2.56,0,0,1-.06-0.55h0a1.47,1.47,0,0,1-1.29.65A1.19,1.19,0,0,1,169.38,18.28Z" transform="translate(-2.49 -2.49)"/><path class="cls-2" d="M175.2,19.43a1,1,0,0,1-1.12-1.2V16.15h-0.74V15.53h0.74v-1.1h0.75v1.1h1v0.62h-1v2c0,0.44.13,0.64,0.54,0.65a1.09,1.09,0,0,0,.45-0.1l0,0.62a1.94,1.94,0,0,1-.65.11" transform="translate(-2.49 -2.49)"/><path class="cls-2" d="M177,13.65a0.5,0.5,0,0,1,.51.49,0.51,0.51,0,1,1-.51-0.49m0.38,5.72h-0.76V15.53h0.76v3.84Z" transform="translate(-2.49 -2.49)"/><path class="cls-2" d="M180.55,18.83a1.24,1.24,0,0,0,1.28-1.39,1.28,1.28,0,1,0-2.56,0,1.24,1.24,0,0,0,1.28,1.39m0-3.41a1.9,1.9,0,0,1,2.07,2,2.07,2.07,0,0,1-4.14,0A1.89,1.89,0,0,1,180.55,15.42Z" transform="translate(-2.49 -2.49)"/><path class="cls-2" d="M183.68,19.37c0-1.28,0-2.61,0-3.84h0.72c0,0.16,0,.45,0,0.63h0a1.34,1.34,0,0,1,1.25-.74A1.36,1.36,0,0,1,187.11,17v2.38h-0.76V17.24c0-.68-0.19-1.17-0.87-1.17a1.11,1.11,0,0,0-1,1.26v2h-0.76" transform="translate(-2.49 -2.49)"/><path class="cls-2" d="M144.76,28.12c-0.5-1.26.95-2,2.14-1.47a1.3,1.3,0,0,1,.6.47l-0.53.45a1,1,0,0,0-.89-0.48,0.58,0.58,0,0,0-.71.5c0,0.59.92,0.51,1.39,0.73a1.08,1.08,0,0,1,.78,1c0.06,1.56-2.45,1.51-3.08.55l0.54-.46a1.24,1.24,0,0,0,1,.53,0.62,0.62,0,0,0,.76-0.56c0-.73-1.27-0.51-1.76-0.95a0.84,0.84,0,0,1-.26-0.3" transform="translate(-2.49 -2.49)"/><path class="cls-2" d="M149.72,30.5a1,1,0,0,1-1.12-1.2V27.22h-0.74V26.6h0.74V25.5h0.75v1.1h1v0.62h-1v2c0,0.44.13,0.64,0.54,0.65a1.09,1.09,0,0,0,.45-0.1l0,0.62a1.94,1.94,0,0,1-.65.11" transform="translate(-2.49 -2.49)"/><path class="cls-2" d="M153,29.9a1.24,1.24,0,0,0,1.28-1.39,1.28,1.28,0,1,0-2.56,0A1.24,1.24,0,0,0,153,29.9m0-3.41a2,2,0,1,1-2.07,2A1.9,1.9,0,0,1,153,26.49Z" transform="translate(-2.49 -2.49)"/><path class="cls-2" d="M156.1,30.44c0-1.28,0-2.61,0-3.84h0.72c0,0.16,0,.48,0,0.65h0a1.3,1.3,0,0,1,1.47-.72l0,0.7a1.1,1.1,0,0,0-1.43,1.19v2H156.1" transform="translate(-2.49 -2.49)"/><path class="cls-2" d="M160.21,29.94a1.09,1.09,0,0,0,1.11-1.33c-0.83,0-1.9,0-1.9.73a0.65,0.65,0,0,0,.79.6m-1.56-.58c0-1.24,1.4-1.26,2.67-1.3a0.83,0.83,0,0,0-.95-0.95,1.6,1.6,0,0,0-1.09.45l-0.4-.49a2.26,2.26,0,0,1,1.57-.58A1.42,1.42,0,0,1,162,28a23.92,23.92,0,0,0,.06,2.44h-0.69a2.56,2.56,0,0,1-.06-0.55h0a1.47,1.47,0,0,1-1.29.65A1.19,1.19,0,0,1,158.64,29.35Z" transform="translate(-2.49 -2.49)"/><path class="cls-2" d="M165.12,27.12a1.36,1.36,0,0,0,0,2.71,1.35,1.35,0,0,0,0-2.71m2,3.12A1.92,1.92,0,0,1,165,32.38a2.81,2.81,0,0,1-1.88-.7l0.49-.59a2,2,0,0,0,1.4.62c1.1,0,1.47-.77,1.34-1.91a1.56,1.56,0,0,1-1.35.66,1.81,1.81,0,0,1-1.94-2,1.82,1.82,0,0,1,1.93-2,1.63,1.63,0,0,1,1.4.72V26.6h0.74v3.64Z" transform="translate(-2.49 -2.49)"/><path class="cls-2" d="M170.17,26.49c1.3,0,1.9.87,1.84,2.25h-3a1.2,1.2,0,0,0,1.25,1.17,1.28,1.28,0,0,0,1.12-.58l0.53,0.43a1.92,1.92,0,0,1-1.65.79,1.86,1.86,0,0,1-2-2,1.86,1.86,0,0,1,2-2m1.08,1.68a1.07,1.07,0,0,0-1.54-1,1.12,1.12,0,0,0-.75,1h2.28Z" transform="translate(-2.49 -2.49)"/><path class="cls-2" d="M176.69,24.87c-0.83,0-.66.93-0.68,1.73h0.89v0.62H176v3.22h-0.76V27.22h-0.76V26.6h0.76V25.8a1.42,1.42,0,0,1,1.91-1.52l-0.09.66a1.35,1.35,0,0,0-.38-0.06" transform="translate(-2.49 -2.49)"/><path class="cls-2" d="M178,24.72a0.5,0.5,0,0,1,.51.49,0.51,0.51,0,1,1-.51-0.49m0.38,5.72h-0.76V26.6h0.76v3.84Z" transform="translate(-2.49 -2.49)"/><polyline class="cls-2" points="177.99 27.95 177.23 27.95 177.23 24.88 177.23 21.82 177.99 21.82 177.99 24.88 177.99 27.95"/><path class="cls-2" d="M183.54,26.49c1.3,0,1.9.87,1.84,2.25h-3a1.2,1.2,0,0,0,1.25,1.17,1.28,1.28,0,0,0,1.12-.58l0.53,0.43a1.92,1.92,0,0,1-1.65.79,1.86,1.86,0,0,1-2-2,1.86,1.86,0,0,1,2-2m1.08,1.68a1.07,1.07,0,0,0-1.54-1,1.12,1.12,0,0,0-.75,1h2.28Z" transform="translate(-2.49 -2.49)"/><path class="cls-3" d="M2.94,131.37a2.26,2.26,0,0,1,2.25-2.25H61.53a2.26,2.26,0,0,1,2.25,2.25v26.28a2.23,2.23,0,0,1-2.25,2.25H5.19a2.23,2.23,0,0,1-2.25-2.25V131.37Z" transform="translate(-2.49 -2.49)"/><path class="cls-1" d="M2.94,131.37a2.26,2.26,0,0,1,2.25-2.25H61.53a2.26,2.26,0,0,1,2.25,2.25v26.28a2.23,2.23,0,0,1-2.25,2.25H5.19a2.23,2.23,0,0,1-2.25-2.25V131.37Z" transform="translate(-2.49 -2.49)"/><path class="cls-2" d="M28.14,146.86a4.37,4.37,0,0,1-3.39.28,3,3,0,0,1,1.22-5.8,2.91,2.91,0,0,1,2.12.75l-0.56.58A2,2,0,0,0,26,142a2.3,2.3,0,0,0,0,4.6,2.66,2.66,0,0,0,1.34-.28v-1.6H26.07v-0.68h2.07v2.78" transform="translate(-2.49 -2.49)"/><path class="cls-2" d="M32.87,143.37c0,1.28,0,2.61,0,3.84H32.18c0-.16,0-0.49,0-0.63a1.41,1.41,0,0,1-1.26.74,1.36,1.36,0,0,1-1.43-1.56v-2.38H30.2v2.12c0,0.68.19,1.18,0.87,1.18a1.11,1.11,0,0,0,1-1.26v-2h0.76" transform="translate(-2.49 -2.49)"/><path class="cls-2" d="M35.92,143.27c1.3,0,1.9.87,1.84,2.25h-3A1.2,1.2,0,0,0,36,146.69a1.28,1.28,0,0,0,1.12-.58l0.53,0.43a1.92,1.92,0,0,1-1.65.79,2,2,0,0,1,0-4M37,145a1.07,1.07,0,0,0-1.54-1,1.12,1.12,0,0,0-.75,1H37Z" transform="translate(-2.49 -2.49)"/><path class="cls-2" d="M38.69,144.9c-0.5-1.26.95-2,2.14-1.47a1.3,1.3,0,0,1,.6.47l-0.53.45a1,1,0,0,0-.89-0.48,0.58,0.58,0,0,0-.71.5c0,0.59.92,0.51,1.39,0.73a1.08,1.08,0,0,1,.78,1c0.06,1.56-2.45,1.51-3.08.55l0.54-.46a1.24,1.24,0,0,0,1,.53,0.62,0.62,0,0,0,.76-0.56c0-.73-1.27-0.51-1.76-0.95a0.84,0.84,0,0,1-.26-0.3" transform="translate(-2.49 -2.49)"/><path class="cls-2" d="M43.65,147.28a1,1,0,0,1-1.12-1.2V144H41.79v-0.62h0.74v-1.1h0.75v1.1h1V144h-1v2c0,0.44.13,0.64,0.54,0.65a1.09,1.09,0,0,0,.45-0.1l0,0.62a1.94,1.94,0,0,1-.65.11" transform="translate(-2.49 -2.49)"/><path class="cls-3" d="M207.24,241.13a31.21,31.21,0,1,1-31.18-31.18A31.18,31.18,0,0,1,207.24,241.13Z" transform="translate(-2.49 -2.49)"/><path class="cls-1" d="M207.24,241.13a31.21,31.21,0,1,1-31.18-31.18A31.18,31.18,0,0,1,207.24,241.13Z" transform="translate(-2.49 -2.49)"/><polyline class="cls-2" points="160.75 240.53 163.75 240.53 163.75 240.89 163.75 241.25 159.95 241.25 159.95 238.38 159.95 235.51 163.63 235.51 163.63 235.86 163.63 236.22 160.75 236.22 160.75 237.07 160.75 237.93 163.46 237.93 163.46 238.28 163.46 238.62 160.75 238.62 160.75 239.58 160.75 240.53"/><path class="cls-2" d="M167.27,243.74c0-1.28,0-2.61,0-3.84H168c0,0.16,0,.45,0,0.63h0a1.34,1.34,0,0,1,1.25-.74,1.36,1.36,0,0,1,1.43,1.56v2.38h-0.76v-2.13c0-.68-0.19-1.17-0.87-1.17a1.11,1.11,0,0,0-1,1.26v2h-0.76" transform="translate(-2.49 -2.49)"/><path class="cls-2" d="M173.79,240.42a1.39,1.39,0,0,0,0,2.78,1.39,1.39,0,0,0,0-2.78m-0.14-.63a1.57,1.57,0,0,1,1.39.7h0v-0.6h0.74v5.78H175c0-.83,0-1.71,0-2.52a1.59,1.59,0,0,1-1.36.68A2,2,0,0,1,173.65,239.79Z" transform="translate(-2.49 -2.49)"/><path class="cls-2" d="M180.51,239.9c0,1.28,0,2.61,0,3.84h-0.72c0-.16,0-0.49,0-0.63a1.41,1.41,0,0,1-1.26.74,1.36,1.36,0,0,1-1.43-1.56V239.9h0.76V242c0,0.68.19,1.18,0.87,1.18a1.11,1.11,0,0,0,1-1.26v-2h0.76" transform="translate(-2.49 -2.49)"/><path class="cls-2" d="M182.21,238a0.5,0.5,0,0,1,.51.49,0.51,0.51,0,1,1-.51-0.49m0.38,5.72h-0.76V239.9h0.76v3.84Z" transform="translate(-2.49 -2.49)"/><path class="cls-2" d="M183.92,243.74c0-1.28,0-2.61,0-3.84h0.72c0,0.16,0,.48,0,0.65h0a1.3,1.3,0,0,1,1.47-.72l0,0.7a1.1,1.1,0,0,0-1.43,1.19v2h-0.76" transform="translate(-2.49 -2.49)"/><path class="cls-2" d="M187.12,239.9c0.41,1,.78,2,1.21,3l1.06-3h0.81l-1.86,4.75a1.4,1.4,0,0,1-1.83,1l0.07-.67a0.79,0.79,0,0,0,.83-0.1,4.73,4.73,0,0,0,.51-1.12l-1.64-3.84h0.85" transform="translate(-2.49 -2.49)"/><line class="cls-1" x1="61.29" y1="142.02" x2="132.84" y2="142.02"/><polygon class="cls-2" points="132.84 142.02 126.45 144.13 126.45 139.95 132.84 142.02"/><path class="cls-2" d="M129.39,146l4.5-1.48-4.5-1.44V146Zm6.39-1.8v0.45l0,0.18-7.34,2.39v-5.4Z" transform="translate(-2.49 -2.49)"/><line class="cls-1" x1="53.6" y1="157.41" x2="147.69" y2="221.17"/><polygon class="cls-2" points="53.33 157.77 52.78 157.41 53.59 157.41 53.33 157.77"/><polygon class="cls-2" points="147.69 221.18 141.21 219.28 143.55 215.82 147.69 221.18"/><path class="cls-2" d="M144.42,221.51l4.59,1.3-2.92-3.74Zm6,1.76-0.54.76L143,222l3.06-4.5Z" transform="translate(-2.49 -2.49)"/><line class="cls-1" x1="211.36" y1="126.45" x2="258.3" y2="107.64"/><polygon class="cls-2" points="211.54 126.9 211.54 126.9 211.37 126.45 211.54 126.9"/><polygon class="cls-2" points="253.13 111.96 251.55 108.09 258.3 107.64 253.13 111.96"/><path class="cls-2" d="M254.72,111l1.08,2.74,3.64-3.06Zm6.26-.41-5.54,4.64-2-5,7.2-.45Z" transform="translate(-2.49 -2.49)"/><line class="cls-1" x1="211.18" y1="157.14" x2="258.97" y2="177.12"/><polygon class="cls-2" points="211 157.59 211 157.54 211.19 157.14 211 157.59"/><polygon class="cls-2" points="258.98 177.12 252.27 176.58 253.89 172.71 258.98 177.12"/><path class="cls-2" d="M255.39,178.67l4.72,0.41-3.6-3.11Zm6.26,0.54-0.36.86-7.2-.59,2.11-5Z" transform="translate(-2.49 -2.49)"/><line class="cls-1" x1="173.57" y1="207.45" x2="173.57" y2="182.47"/><polygon class="cls-2" points="174.01 207.45 173.56 207.45 173.12 207.45 174.01 207.45"/><polygon class="cls-2" points="175.63 188.91 171.45 188.91 173.56 182.47 175.63 188.91"/><path class="cls-2" d="M174.57,191h2.93l-1.44-4.5Zm1.71-6.43h0.09l2.38,7.33h-5.45l2.39-7.33h0.58Z" transform="translate(-2.49 -2.49)"/><rect class="cls-3" x="95.49" y="296.19" width="71.14" height="28.31" rx="2.25" ry="2.25"/><path class="cls-3" d="M169.13,327H98m0-28.31h71.14" transform="translate(-2.49 -2.49)"/><path class="cls-1" d="M169.13,327H98m0-28.31h71.14" transform="translate(-2.49 -2.49)"/><path class="cls-2" d="M112.51,312.51c0-1.46-.95-2.13-2.4-2.17h-1v4.33h1c1.44,0,2.4-.72,2.4-2.16m-2.24-2.87c1.84,0.09,3.09,1,3.09,2.87a2.67,2.67,0,0,1-2,2.69,12,12,0,0,1-3.07.18v-5.73h2Z" transform="translate(-2.49 -2.49)"/><path class="cls-2" d="M116.25,314.84a1.39,1.39,0,1,0-1.28-1.39,1.24,1.24,0,0,0,1.28,1.39m0-3.41a2,2,0,1,1-2.07,2A1.9,1.9,0,0,1,116.25,311.43Z" transform="translate(-2.49 -2.49)"/><path class="cls-2" d="M119.66,311.54c0.3,1,.57,2,0.88,2.93l0.92-2.93h0.8c0.32,1,.61,2,0.95,2.93l0.87-2.93h0.8l-1.27,3.84h-0.79c-0.32-1-.62-1.94-1-2.88l-0.94,2.88h-0.79l-1.28-3.84h0.83" transform="translate(-2.49 -2.49)"/><path class="cls-2" d="M125.63,315.38c0-1.28,0-2.61,0-3.84h0.72c0,0.16,0,.45,0,0.63h0a1.34,1.34,0,0,1,1.25-.74,1.36,1.36,0,0,1,1.43,1.56v2.38H128.3v-2.13c0-.68-0.19-1.17-0.87-1.17a1.11,1.11,0,0,0-1,1.26v2h-0.76" transform="translate(-2.49 -2.49)"/><path class="cls-2" d="M132.2,313.06c-0.5-1.26.95-2,2.14-1.47a1.3,1.3,0,0,1,.6.47l-0.53.45a1,1,0,0,0-.89-0.48,0.58,0.58,0,0,0-.71.5c0,0.59.92,0.51,1.39,0.73a1.08,1.08,0,0,1,.78,1c0.06,1.56-2.45,1.51-3.08.55l0.54-.46a1.24,1.24,0,0,0,1,.53,0.62,0.62,0,0,0,.76-0.56c0-.73-1.27-0.51-1.76-0.95a0.84,0.84,0,0,1-.26-0.3" transform="translate(-2.49 -2.49)"/><path class="cls-2" d="M137.16,315.44a1,1,0,0,1-1.12-1.2v-2.08h-0.74v-0.62H136v-1.1h0.75v1.1h1v0.62h-1v2c0,0.44.13,0.64,0.54,0.65a1.09,1.09,0,0,0,.45-0.1l0,0.62a1.94,1.94,0,0,1-.65.11" transform="translate(-2.49 -2.49)"/><path class="cls-2" d="M140.42,314.84a1.39,1.39,0,1,0-1.28-1.39,1.24,1.24,0,0,0,1.28,1.39m0-3.41a2,2,0,1,1-2.07,2A1.9,1.9,0,0,1,140.42,311.43Z" transform="translate(-2.49 -2.49)"/><path class="cls-2" d="M143.54,315.38c0-1.28,0-2.61,0-3.84h0.72c0,0.16,0,.48,0,0.65h0a1.3,1.3,0,0,1,1.47-.72l0,0.7a1.1,1.1,0,0,0-1.43,1.19v2h-0.76" transform="translate(-2.49 -2.49)"/><path class="cls-2" d="M147.65,314.88a1.09,1.09,0,0,0,1.11-1.33c-0.83,0-1.9,0-1.9.73a0.65,0.65,0,0,0,.79.6m-1.56-.58c0-1.24,1.4-1.26,2.67-1.3a0.83,0.83,0,0,0-.95-0.95,1.6,1.6,0,0,0-1.09.45l-0.4-.49a2.26,2.26,0,0,1,1.57-.58,1.42,1.42,0,0,1,1.6,1.51,23.92,23.92,0,0,0,.06,2.44h-0.69a2.56,2.56,0,0,1-.06-0.55h0a1.47,1.47,0,0,1-1.29.65A1.19,1.19,0,0,1,146.09,314.29Z" transform="translate(-2.49 -2.49)"/><path class="cls-2" d="M152.57,312.06a1.36,1.36,0,0,0,0,2.71,1.35,1.35,0,0,0,0-2.71m2,3.12a1.92,1.92,0,0,1-2.12,2.14,2.81,2.81,0,0,1-1.88-.7l0.49-.59a2,2,0,0,0,1.4.62c1.1,0,1.47-.77,1.34-1.91a1.56,1.56,0,0,1-1.35.66,2,2,0,0,1,0-4,1.63,1.63,0,0,1,1.4.72v-0.62h0.74v3.64Z" transform="translate(-2.49 -2.49)"/><path class="cls-2" d="M157.61,311.43c1.3,0,1.9.87,1.84,2.25h-3a1.2,1.2,0,0,0,1.25,1.17,1.28,1.28,0,0,0,1.12-.58l0.53,0.43a1.92,1.92,0,0,1-1.65.79,2,2,0,0,1,0-4m1.08,1.68a1.07,1.07,0,0,0-1.54-1,1.12,1.12,0,0,0-.75,1h2.28Z" transform="translate(-2.49 -2.49)"/><path class="cls-3" d="M182,300.53a2.26,2.26,0,0,1,2.25-2.25h66.64a2.26,2.26,0,0,1,2.25,2.25v23.85a2.26,2.26,0,0,1-2.25,2.25H184.2a2.26,2.26,0,0,1-2.25-2.25V300.53Z" transform="translate(-2.49 -2.49)"/><path class="cls-3" d="M253.1,326.63H182m0-28.35H253.1" transform="translate(-2.49 -2.49)"/><path class="cls-1" d="M253.1,326.63H182m0-28.35H253.1" transform="translate(-2.49 -2.49)"/><path class="cls-2" d="M202.23,312.9a2.08,2.08,0,0,1-2.23,2.27,2.06,2.06,0,0,1-2.23-2.27v-3.61h0.8v3.56a1.43,1.43,0,1,0,2.85,0v-3.56h0.8v3.61" transform="translate(-2.49 -2.49)"/><path class="cls-2" d="M205.55,314.48a1.39,1.39,0,0,0,0-2.78,1.39,1.39,0,0,0,0,2.78m0.13,0.64a1.59,1.59,0,0,1-1.35-.68h0V317h-0.76v-5.78h0.75v0.6h0a1.54,1.54,0,0,1,1.39-.7A2,2,0,0,1,205.68,315.12Z" transform="translate(-2.49 -2.49)"/><path class="cls-2" d="M210.55,312.7c-0.5-1.26.95-2,2.14-1.47a1.3,1.3,0,0,1,.6.47l-0.53.45a1,1,0,0,0-.89-0.48,0.58,0.58,0,0,0-.71.5c0,0.59.92,0.51,1.39,0.73a1.08,1.08,0,0,1,.78,1c0.06,1.56-2.45,1.51-3.08.55l0.54-.46a1.24,1.24,0,0,0,1,.53,0.62,0.62,0,0,0,.76-0.56c0-.73-1.27-0.51-1.76-0.95a0.84,0.84,0,0,1-.26-0.3" transform="translate(-2.49 -2.49)"/><path class="cls-2" d="M215.51,315.08a1,1,0,0,1-1.12-1.2V311.8h-0.74v-0.62h0.74v-1.1h0.75v1.1h1v0.62h-1v2c0,0.44.13,0.64,0.54,0.65a1.09,1.09,0,0,0,.45-0.1l0,0.62a1.94,1.94,0,0,1-.65.11" transform="translate(-2.49 -2.49)"/><path class="cls-2" d="M218.76,314.48a1.39,1.39,0,1,0-1.28-1.39,1.24,1.24,0,0,0,1.28,1.39m0-3.41a2,2,0,1,1-2.07,2A1.9,1.9,0,0,1,218.76,311.07Z" transform="translate(-2.49 -2.49)"/><path class="cls-2" d="M221.89,315c0-1.28,0-2.61,0-3.84h0.72c0,0.16,0,.48,0,0.65h0a1.3,1.3,0,0,1,1.47-.72l0,0.7a1.1,1.1,0,0,0-1.43,1.19v2h-0.76" transform="translate(-2.49 -2.49)"/><path class="cls-2" d="M226,314.52a1.09,1.09,0,0,0,1.11-1.33c-0.83,0-1.9,0-1.9.73a0.65,0.65,0,0,0,.79.6m-1.56-.58c0-1.24,1.4-1.26,2.67-1.3a0.83,0.83,0,0,0-.95-0.95,1.6,1.6,0,0,0-1.09.45l-0.4-.49a2.26,2.26,0,0,1,1.57-.58,1.42,1.42,0,0,1,1.6,1.51,23.92,23.92,0,0,0,.06,2.44H227.2a2.56,2.56,0,0,1-.06-0.55h0a1.47,1.47,0,0,1-1.29.65A1.19,1.19,0,0,1,224.43,313.93Z" transform="translate(-2.49 -2.49)"/><path class="cls-2" d="M230.91,311.7a1.36,1.36,0,0,0,0,2.71,1.35,1.35,0,0,0,0-2.71m2,3.12A1.92,1.92,0,0,1,230.8,317a2.81,2.81,0,0,1-1.88-.7l0.49-.59a2,2,0,0,0,1.4.62c1.1,0,1.47-.77,1.34-1.91a1.56,1.56,0,0,1-1.35.66,2,2,0,0,1,0-4,1.63,1.63,0,0,1,1.4.72v-0.62h0.74v3.64Z" transform="translate(-2.49 -2.49)"/><path class="cls-2" d="M236,311.07c1.3,0,1.9.87,1.84,2.25h-3a1.2,1.2,0,0,0,1.25,1.17,1.28,1.28,0,0,0,1.12-.58l0.53,0.43a1.92,1.92,0,0,1-1.65.79,2,2,0,0,1,0-4m1.08,1.68a1.07,1.07,0,0,0-1.54-1,1.12,1.12,0,0,0-.75,1H237Z" transform="translate(-2.49 -2.49)"/><line class="cls-1" x1="163.26" y1="268.6" x2="163.26" y2="295.74"/><polygon class="cls-2" points="163.71 268.25 163.71 268.61 162.81 268.61 162.81 267.98 163.71 268.25"/><polygon class="cls-2" points="163.26 295.74 161.15 289.31 165.33 289.31 163.26 295.74"/><path class="cls-2" d="M164.27,292.25l1.48,4.5,1.44-4.5h-2.92Zm1.8,6.44h-0.67l-2.34-7.34h5.4Z" transform="translate(-2.49 -2.49)"/><line class="cls-1" x1="155.2" y1="295.74" x2="155.2" y2="264.46"/><rect class="cls-2" x="154.76" y="295.74" width="0.9" height="0.45"/><polygon class="cls-2" points="157.32 270.9 153.13 270.9 155.21 264.46 157.32 270.9"/><path class="cls-2" d="M156.26,272.94h2.93l-1.49-4.55Zm1.85-6.26,2.34,7.16H155l2.47-7.61Z" transform="translate(-2.49 -2.49)"/><line class="cls-1" x1="182.34" y1="269.1" x2="182.34" y2="295.34"/><polygon class="cls-2" points="182.79 269.1 181.89 269.1 181.89 268.74 181.98 268.69 182.79 268.47 182.79 269.1"/><polygon class="cls-2" points="182.34 295.33 180.27 288.94 184.41 288.94 182.34 295.33"/><path class="cls-2" d="M183.35,291.89l1.49,4.5,1.48-4.5h-3Zm1.8,6.39h-0.63L182.13,291h5.4Z" transform="translate(-2.49 -2.49)"/><line class="cls-1" x1="189.99" y1="295.34" x2="189.99" y2="265.73"/><rect class="cls-2" x="189.54" y="295.34" width="0.9" height="0.45"/><polygon class="cls-2" points="192.06 272.12 187.88 272.12 189.99 265.73 192.06 272.12"/><path class="cls-2" d="M191,274.16h2.92l-1.44-4.5Zm4.18,0.9h-5.4l2.3-7.15,0.58-.32,0,0Z" transform="translate(-2.49 -2.49)"/></svg>