<?xml version="1.0" encoding="UTF-8" standalone="no"?>
<!-- Created with Inkscape (http://www.inkscape.org/) -->

<svg
   width="2560"
   height="1080"
   viewBox="0 0 677.33332 285.75"
   version="1.1"
   id="svg1"
   xml:space="preserve"
   inkscape:version="1.3 (0e150ed6c4, 2023-07-21)"
   sodipodi:docname="windows-terminal-bg-2025.svg"
   inkscape:export-filename="windows-terminal-bg-2025.png"
   inkscape:export-xdpi="96"
   inkscape:export-ydpi="96"
   xmlns:inkscape="http://www.inkscape.org/namespaces/inkscape"
   xmlns:sodipodi="http://sodipodi.sourceforge.net/DTD/sodipodi-0.dtd"
   xmlns:xlink="http://www.w3.org/1999/xlink"
   xmlns="http://www.w3.org/2000/svg"
   xmlns:svg="http://www.w3.org/2000/svg"><sodipodi:namedview
     id="namedview1"
     pagecolor="#505050"
     bordercolor="#eeeeee"
     borderopacity="1"
     inkscape:showpageshadow="0"
     inkscape:pageopacity="0"
     inkscape:pagecheckerboard="0"
     inkscape:deskcolor="#505050"
     inkscape:document-units="mm"
     inkscape:zoom="0.31"
     inkscape:cx="1280.6452"
     inkscape:cy="538.70968"
     inkscape:window-width="1278"
     inkscape:window-height="998"
     inkscape:window-x="1266"
     inkscape:window-y="0"
     inkscape:window-maximized="0"
     inkscape:current-layer="layer1" /><defs
     id="defs1"><linearGradient
       id="linearGradient3"
       inkscape:collect="always"><stop
         style="stop-color:#7e2c00;stop-opacity:1;"
         offset="0"
         id="stop5" /><stop
         style="stop-color:#62007a;stop-opacity:1;"
         offset="1"
         id="stop3" /></linearGradient><radialGradient
       inkscape:collect="always"
       xlink:href="#linearGradient3"
       id="radialGradient5"
       cx="815.06335"
       cy="-113.00595"
       fx="815.06335"
       fy="-113.00595"
       r="338.66666"
       gradientTransform="matrix(-1.8942768,0.73234481,-0.29556821,-0.76451424,1850.0748,-542.13406)"
       gradientUnits="userSpaceOnUse" /></defs><g
     inkscape:label="Layer 1"
     inkscape:groupmode="layer"
     id="layer1"><rect
       style="fill:url(#radialGradient5);fill-opacity:1;fill-rule:evenodd;stroke:#f3a712;stroke-width:0.491044;stroke-opacity:0.996094"
       id="rect1"
       width="676.84229"
       height="285.25894"
       x="0.24552409"
       y="0.24552917" /><g
       inkscape:label="Layer 1"
       id="layer1-6"
       transform="matrix(2.5000001,0,0,2.5000001,312.20833,116.41667)"><rect
         style="fill:#ffdd33;fill-rule:evenodd;stroke:none;stroke-width:1.08113;stroke-opacity:0.996094"
         id="rect1-7"
         width="21.166666"
         height="21.166666"
         x="3.1789145e-07"
         y="3.1789145e-07" /><g
         inkscape:label="logo"
         id="layer1-3"
         transform="matrix(0.51199999,0,0,0.51199999,-2.4214662,-2.4214662)"><g
           id="g7"
           transform="translate(0.13700365,-0.239022)"><path
             id="rect5"
             style="display:inline;fill:#000000;fill-opacity:1;fill-rule:evenodd;stroke:none;stroke-width:0;stroke-dasharray:none;stroke-opacity:0.996094"
             d="M 8.7265377,15.698743 V 34.302258 H 16.724188 V 33.720897 H 9.7600656 V 16.280104 H 40.765926 v 17.440793 h -6.963403 v 0.581361 h 7.996931 V 15.698743 Z" /><path
             d="m 18.754535,35.5793 q -0.264583,0 -0.511527,-0.08819 -0.242528,-0.09264 -0.436556,-0.282222 -0.194028,-0.189611 -0.308681,-0.48507 -0.110277,-0.295444 -0.110277,-0.709958 v -0.08819 q 0,-0.396875 0.110277,-0.683513 0.114584,-0.286625 0.308681,-0.471834 0.194028,-0.189625 0.436556,-0.277819 0.246944,-0.08819 0.511527,-0.08819 0.264584,0 0.507125,0.08819 0.246945,0.08819 0.440973,0.277819 0.194027,0.185209 0.304264,0.471834 0.114722,0.286638 0.114722,0.683513 v 0.08819 q 0,0.414514 -0.114722,0.709958 -0.110278,0.295459 -0.304264,0.48507 -0.194028,0.189625 -0.440973,0.282222 -0.242541,0.08819 -0.507125,0.08819 z m 0,-0.370416 q 0.242542,0 0.449792,-0.119028 0.211667,-0.119028 0.343958,-0.383653 0.132223,-0.264583 0.132223,-0.692319 v -0.08819 q 0,-0.405694 -0.132223,-0.657055 -0.132361,-0.255764 -0.343958,-0.37482 -0.20725,-0.119028 -0.449792,-0.119028 -0.238125,0 -0.449791,0.119028 -0.211667,0.119028 -0.343959,0.37482 -0.132361,0.251361 -0.132361,0.657055 v 0.08819 q 0,0.427736 0.132361,0.692319 0.132223,0.264584 0.343959,0.383653 0.211666,0.119028 0.449791,0.119028 z m 2.07257,0.326319 v -3.086806 h 0.405694 l 1.658056,2.403306 v -2.403306 h 0.405695 v 3.086806 h -0.405695 l -1.658056,-2.403292 v 2.403292 z m 3.351389,0 v -3.086806 h 0.414514 v 2.725209 h 1.569861 v 0.361597 z m 2.557639,0 v -3.086806 h 0.414514 v 3.086806 z m 1.340556,0 v -3.086806 h 0.405694 l 1.658056,2.403306 v -2.403306 h 0.405695 v 3.086806 h -0.405695 l -1.658056,-2.403292 v 2.403292 z m 3.351389,0 v -3.086806 h 1.984375 v 0.361598 h -1.569861 v 0.956916 h 1.43757 v 0.361598 h -1.43757 v 1.045097 h 1.569861 v 0.361597 z"
             id="text2"
             style="font-size:3.175px;font-family:'Golos Text';-inkscape-font-specification:'Golos Text, Normal';text-align:center;letter-spacing:0px;word-spacing:0.00529167px;text-anchor:middle;fill:#000000;fill-opacity:1;fill-rule:evenodd;stroke-width:0;stroke-opacity:0"
             inkscape:label="online"
             aria-label="ONLINE" /><g
             id="g2"
             transform="matrix(1.0000013,0,0,1,-0.05354535,-9.3322189)"
             style="fill:#000000"
             inkscape:label="g2-gemini"><path
               style="fill:#000000;fill-opacity:1;stroke-width:0.0236903"
               d="m 33.883617,29.848034 c -0.04444,0.0042 -0.175689,0.02159 -0.292821,0.03353 -0.117087,0.01435 -0.327945,0.05513 -0.468495,0.09347 -0.140562,0.03836 -0.358407,0.11024 -0.480219,0.158126 -0.121813,0.05029 -0.304529,0.131831 -0.405257,0.182091 -0.09833,0.05271 -0.250652,0.138933 -0.339671,0.191666 -0.08667,0.05512 -0.220192,0.148535 -0.297501,0.208441 -0.07736,0.05995 -0.224887,0.186881 -0.325615,0.277926 -0.100704,0.09347 -0.264694,0.268334 -0.360741,0.385731 -0.09833,0.119756 -0.238942,0.313851 -0.316237,0.431249 -0.07736,0.119753 -0.206152,0.356993 -0.285795,0.527094 -0.08195,0.172502 -0.185064,0.431246 -0.229566,0.575011 -0.04444,0.146136 -0.09833,0.349792 -0.11945,0.455213 -0.01876,0.105407 -0.04917,0.282712 -0.0632,0.395307 -0.01403,0.112652 -0.02806,0.354593 -0.02806,0.53907 0,0.184492 0.01403,0.438451 0.02806,0.563035 0.01639,0.124586 0.05153,0.330629 0.07736,0.455215 0.02569,0.124584 0.08667,0.347405 0.13348,0.491151 0.04917,0.146153 0.142894,0.376144 0.208481,0.515109 0.06556,0.138932 0.185066,0.354592 0.264709,0.479178 0.07958,0.124583 0.203802,0.304275 0.278765,0.395321 0.07502,0.09106 0.238929,0.27072 0.36542,0.395306 0.128895,0.127001 0.295169,0.277923 0.372465,0.340216 0.07723,0.05995 0.224886,0.162927 0.327961,0.227607 0.103061,0.06706 0.262361,0.158125 0.351381,0.203655 0.08904,0.04787 0.269388,0.124585 0.398227,0.174889 0.128896,0.04787 0.327948,0.115067 0.44508,0.143764 0.11709,0.03112 0.332642,0.0743 0.480217,0.09831 0.23893,0.03594 0.44976,0.04076 1.920865,0.03594 0.908908,-0.0028 1.670225,-0.0099 1.691309,-0.01677 0.03987,-0.0099 0.04222,-0.131831 0.04222,-2.165871 V 34.481747 H 35.16042 c -0.02806,0.639692 -0.03514,1.082929 -0.03514,1.396792 v 0.567824 c -0.13584,0.03594 -0.257678,0.06221 -0.358407,0.0814 -0.103061,0.02159 -0.299836,0.03836 -0.461468,0.03836 -0.163981,0 -0.356062,-0.01677 -0.46383,-0.03836 -0.09833,-0.02159 -0.255333,-0.06705 -0.34435,-0.102992 -0.08905,-0.03353 -0.248304,-0.11734 -0.35138,-0.182091 -0.103061,-0.06464 -0.267042,-0.198854 -0.363089,-0.299489 -0.09833,-0.0983 -0.2319,-0.270734 -0.299835,-0.38333 -0.06793,-0.112653 -0.154604,-0.292301 -0.192093,-0.400109 -0.03987,-0.110237 -0.08667,-0.299488 -0.107784,-0.419286 -0.02806,-0.158127 -0.03514,-0.304277 -0.02569,-0.510319 0.0097,-0.213228 0.02806,-0.342604 0.07264,-0.503129 0.03515,-0.11734 0.09139,-0.28031 0.128896,-0.35938 0.03514,-0.07912 0.114726,-0.225207 0.178037,-0.323439 0.06097,-0.0983 0.175689,-0.244384 0.255332,-0.325841 0.07958,-0.0814 0.222541,-0.198853 0.318586,-0.263547 0.09598,-0.06705 0.264707,-0.153325 0.374798,-0.196454 0.110142,-0.04318 0.292819,-0.09589 0.409949,-0.117339 0.142884,-0.02401 0.278751,-0.03112 0.421648,-0.02159 0.11709,0.0071 0.295154,0.03594 0.39823,0.06221 0.103059,0.0287 0.281111,0.0983 0.398229,0.153337 0.117088,0.05753 0.299849,0.172503 0.407604,0.256347 0.107783,0.08381 0.201454,0.167714 0.210831,0.184492 0.0097,0.01917 0.119449,-0.09589 0.295154,-0.311464 0.154605,-0.189281 0.47319,-0.567824 0.707439,-0.845747 l 0.423995,-0.503131 c -0.168662,-0.170101 -0.271724,-0.263546 -0.334976,-0.316251 -0.06555,-0.05271 -0.201454,-0.153337 -0.30453,-0.225206 -0.10306,-0.07188 -0.292821,-0.186878 -0.421647,-0.253972 -0.128895,-0.06705 -0.327961,-0.160512 -0.445092,-0.20604 -0.11709,-0.04787 -0.316239,-0.112655 -0.44508,-0.143752 -0.128896,-0.03353 -0.31389,-0.07188 -0.409938,-0.08865 -0.09598,-0.01435 -0.323265,-0.03112 -0.503637,-0.03594 -0.180384,-0.0042 -0.365435,-0.0028 -0.409951,0.0028 z"
               id="path786"
               inkscape:label="g" /><path
               style="fill:#000000;fill-opacity:1;stroke-width:0.023424"
               d="m 13.376028,29.935116 c 0,0.0097 0.09369,0.269375 0.208474,0.578569 0.114777,0.309194 0.353702,0.953361 0.529383,1.428861 0.178022,0.477847 0.573886,1.557709 0.883081,2.400973 0.309208,0.843264 0.737861,2.023833 0.955708,2.623486 0.2155,0.599653 0.452083,1.253195 0.524695,1.452292 0.075,0.199111 0.135833,0.365416 0.138194,0.365416 0.0028,0.0028 0.276403,0.0069 0.611375,0.01111 l 0.604333,0.0097 c 0.145237,-0.398209 0.269375,-0.735514 0.370098,-1.007236 0.100694,-0.269375 0.252986,-0.681639 0.334972,-0.913528 0.08431,-0.231903 0.168653,-0.463806 0.189736,-0.515334 0.01875,-0.05153 0.121806,-0.325597 0.224861,-0.609027 0.105417,-0.283431 0.241278,-0.658209 0.304514,-0.831556 0.06083,-0.173333 0.182708,-0.505958 0.269375,-0.737861 0.08667,-0.231889 0.180375,-0.489556 0.21082,-0.573889 0.03042,-0.08431 0.152263,-0.414597 0.269375,-0.737847 0.117083,-0.320917 0.248291,-0.679306 0.292805,-0.796417 0.04222,-0.114722 0.21082,-0.573889 0.374778,-1.018945 0.163972,-0.445069 0.32325,-0.88075 0.353708,-0.972111 0.03042,-0.08903 0.05625,-0.166305 0.05625,-0.168653 0,-0.0042 -0.529389,-0.0069 -1.178236,-0.0069 h -1.175875 c -1.02832,3.113056 -1.360945,4.117958 -1.403111,4.239764 l -0.07722,0.222528 C 17.102869,33.961699 16.76791,32.95681 16.407188,31.876963 l -0.653542,-1.960597 c -1.843467,0 -2.377535,0.0069 -2.377535,0.01875 z"
               id="Path 1"
               inkscape:label="v1" /><path
               style="fill:#000000;fill-opacity:1;stroke-width:0.023424"
               d="m 21.600245,29.935116 c 0,0.0097 0.09369,0.269375 0.208474,0.578569 0.114777,0.309194 0.353702,0.953361 0.529383,1.428861 0.178022,0.477847 0.573886,1.557709 0.883081,2.400973 0.309208,0.843264 0.737861,2.023833 0.955708,2.623486 0.2155,0.599653 0.452083,1.253195 0.524695,1.452292 0.075,0.199111 0.135833,0.365416 0.138194,0.365416 0.0028,0.0028 0.276403,0.0069 0.611375,0.01111 l 0.604333,0.0097 c 0.145237,-0.398209 0.269375,-0.735514 0.370098,-1.007236 0.100694,-0.269375 0.252986,-0.681639 0.334972,-0.913528 0.08431,-0.231903 0.168653,-0.463806 0.189736,-0.515334 0.01875,-0.05153 0.121806,-0.325597 0.224861,-0.609027 0.105417,-0.283431 0.241278,-0.658209 0.304514,-0.831556 0.06083,-0.173333 0.182708,-0.505958 0.269375,-0.737861 0.08667,-0.231889 0.180375,-0.489556 0.21082,-0.573889 0.03042,-0.08431 0.152263,-0.414597 0.269375,-0.737847 0.117083,-0.320917 0.248291,-0.679306 0.292805,-0.796417 0.04222,-0.114722 0.21082,-0.573889 0.374778,-1.018945 0.163972,-0.445069 0.32325,-0.88075 0.353708,-0.972111 0.03042,-0.08903 0.05625,-0.166305 0.05625,-0.168653 0,-0.0042 -0.529389,-0.0069 -1.178236,-0.0069 h -1.175875 c -1.02832,3.113056 -1.360945,4.117958 -1.403111,4.239764 l -0.07722,0.222528 C 25.327086,33.961699 24.992127,32.95681 24.631405,31.876963 l -0.653542,-1.960597 c -1.843467,0 -2.377535,0.0069 -2.377535,0.01875 z"
               id="path1"
               inkscape:label="v2" /></g></g></g></g></g></svg>
